<svg width="784" height="590" viewBox="0 0 784 590" fill="none" xmlns="http://www.w3.org/2000/svg">
<g id="Group">
<g id="Group_2">
<path id="Vector" d="M57.2718 1.33851C41.0398 5.27451 23.9838 17.2425 14.4718 31.6745C-3.72824 59.2265 -4.88024 95.7945 11.6878 124.003C21.5278 140.731 40.7118 154.667 59.7358 158.771C73.6718 161.723 108.768 157.627 114.016 152.379C115 151.395 114.504 145.322 112.704 136.634C110.408 124.666 109.424 122.53 107.296 123.514C97.1277 127.778 89.9118 129.579 78.2718 130.243C66.4638 131.067 63.8398 130.731 55.9678 127.123C37.7598 118.755 27.9198 103.667 27.1038 82.3465C26.2878 65.6185 30.5438 53.6505 40.3838 43.4825C49.3998 34.2985 57.9278 30.2025 70.7198 29.3785C79.2478 28.7225 82.3598 29.3785 89.5757 32.8185C105.152 40.5225 118.6 57.9065 128.28 82.9945C130.904 89.8825 142.384 132.355 153.536 177.451C197.32 352.755 220.608 464.099 223.072 511.331C223.888 528.875 223.728 531.011 220.448 538.059C216.024 547.075 206.184 555.931 197.488 558.395C188.472 561.179 171.416 560.851 162.392 557.739C152.88 554.459 141.896 544.123 136.648 533.307C131.072 521.995 130.744 499.363 136.16 488.043C142.88 473.451 159.776 460.491 172.4 460.331C178.632 460.331 178.632 460.003 174.856 442.947L172.072 430.483L165.512 431.467C139.6 435.571 113.856 461.483 107.296 489.851C104.832 500.675 105.16 522.155 107.952 533.307C113.688 554.955 129.6 574.467 149.28 583.811L160.432 589.059L353.12 589.555C490.544 589.883 547.608 589.555 552.04 588.243C560.728 585.619 570.08 576.603 574.672 566.435C577.792 559.387 578.448 554.955 578.448 540.691C578.448 524.459 577.624 519.531 561.72 453.123C552.52 414.259 544.648 382.451 544.32 382.123C544.16 381.795 537.76 385.235 530.384 389.827C512.512 400.483 500.864 404.747 486.76 405.899L475.28 406.723L462.16 418.691C449.368 430.499 448.384 430.995 428.872 437.387C410.672 443.459 408.048 443.947 401.976 442.139C388.2 438.531 380.168 424.267 384.104 410.819C385.744 405.403 390.992 399.179 407.392 382.451C427.4 362.115 428.544 360.475 428.544 354.411C428.544 344.739 432.808 329.811 439.368 317.019C442.48 310.787 444.776 305.539 444.448 305.051C444.12 304.723 441.168 305.707 437.888 307.019C421.656 313.739 407.88 313.411 406.072 306.195C405.584 304.387 404.432 302.915 403.608 302.915C402.624 302.915 392.952 307.995 381.96 314.227C339.816 338.331 326.856 342.267 319.152 333.411C317.024 330.947 315.384 326.851 315.384 324.059C315.384 321.435 314.896 319.307 314.232 319.307C310.952 319.307 288.976 334.067 274.712 346.203C266.672 352.763 264.384 353.259 260.608 349.483C254.376 343.419 257.328 339.483 280.944 321.603C313.088 297.331 330.144 295.035 330.144 315.211V322.427L337.032 319.963C340.968 318.651 357.2 310.123 373.112 301.107C404.6 283.395 410.336 281.595 415.752 288.155C417.392 290.123 418.704 292.747 418.704 294.059C418.704 297.179 418.376 297.179 434.936 290.779C458.384 281.763 464.784 277.827 474.456 266.675C479.376 260.939 489.216 250.115 496.264 242.571C504.792 233.387 508.728 227.971 508.232 226.171C506.264 219.939 488.552 139.259 482.488 109.739C474.784 71.0345 471.168 58.4105 462.808 41.1865C454.936 25.1145 443.456 11.8345 431.648 5.27449L422.792 0.35449L243.224 0.0265208C138.776 -0.141479 61.0478 0.514513 57.2718 1.33851ZM434.944 87.1065C436.088 88.4185 436.744 91.5385 436.416 94.1625C435.92 98.4265 434.776 99.0825 419.688 104.163C385.248 115.803 359.504 119.083 353.104 112.691C351.296 110.883 349.824 108.258 349.824 106.954C349.824 105.65 349.168 104.491 348.512 104.491C347.856 104.491 333.592 109.41 317.024 115.314C299.152 121.714 282.752 126.467 277.336 126.963C268.648 127.779 267.664 127.619 263.072 122.859C259.296 119.083 257.992 116.298 257.992 112.034C257.992 107.77 257.336 106.131 255.536 106.131C254.064 106.131 242.256 111.707 228.968 118.427C209.944 128.099 204.368 130.235 202.072 128.923C198.136 126.795 197.968 118.922 201.904 115.474C206.984 110.882 242.08 93.3385 251.76 90.5465C267.336 86.1145 275.704 91.3705 273.896 104.483C273.08 110.547 273.4 111.043 276.848 111.043C278.976 111.043 291.28 107.274 304.232 102.674C353.264 85.2905 352.776 85.4585 357.696 88.0825C359.992 89.5545 362.616 92.8345 363.432 95.6265L364.912 100.714L374.096 99.2345C385.904 97.4345 405.416 92.3465 417.064 88.2505C428.056 84.3145 432.48 84.1545 434.944 87.1065ZM454.128 184.019C458.72 191.067 455.928 194.019 436.256 203.699C426.088 208.619 414.608 213.211 410.672 214.195C400.504 216.491 393.776 213.211 392.304 205.667C391.816 203.043 389.52 204.027 377.384 211.899C362.464 221.571 357.704 222.395 355.576 215.835C353.776 210.259 356.232 207.147 369.024 198.451C385.752 187.467 397.064 181.563 401.496 181.563C407.072 181.563 411.168 187.139 410.024 193.043C409.368 195.667 409.528 197.963 410.184 197.963C410.84 197.963 419.528 193.859 429.368 189.107C439.376 184.187 448.392 180.091 449.376 180.091C450.52 179.923 452.656 181.723 454.128 184.019ZM278.496 196.651C281.12 199.115 283.088 203.043 283.904 207.307L285.056 214.355L308.672 203.699C322.776 197.299 333.6 193.371 335.4 194.019C338.512 195.003 340.976 201.395 339.496 205.003C338.016 208.939 289.48 230.747 282.096 230.747C276.848 230.747 271.6 224.683 270.288 217.139C269.632 213.859 268.488 211.075 267.664 211.075C265.368 211.075 254.872 217.963 246.84 224.851C239.296 231.083 235.36 232.067 232.08 228.787C227.976 224.683 229.784 218.291 237.16 212.387C247.328 204.027 257 197.955 264.056 195.331C272.592 192.387 273.576 192.547 278.496 196.651Z" fill="black"/>
<path id="Vector_2" d="M762.92 55.7784C710.768 77.4264 560.72 204.522 492.008 285.53C462.488 320.298 449.696 348.498 456.424 364.41C457.568 367.202 453.96 371.458 433.792 391.794C420.512 405.242 410.344 416.066 411.16 416.066C411.984 416.066 417.88 414.426 424.28 412.298C434.776 409.018 437.4 407.21 451.832 393.442L467.736 378.026L473.64 379.994C488.728 384.914 513.16 373.762 546.288 346.706C575.152 323.258 625.328 273.074 663.872 229.122L671.744 220.266L667.48 219.122C665.184 218.466 654.688 217.482 644.032 216.826C632.88 216.01 625.832 215.018 627.136 214.202C628.448 213.546 642.552 210.434 658.456 207.314C686.336 201.898 687.48 201.578 692.24 196.162C696.504 191.242 709.952 174.682 714.376 168.938C715.688 167.138 706.672 169.266 664.192 180.746C656.32 182.874 650.256 184.026 650.744 183.37C651.896 181.402 688.464 159.594 718.8 142.866L745.856 127.946L758.32 109.418C771.768 89.7384 781.608 71.0424 783.576 62.1864C785.88 51.5224 778.664 49.3864 762.92 55.7784Z" fill="black"/>
</g>
</g>
</svg>
