<?xml version="1.0" encoding="UTF-8" standalone="no"?>
<!-- Created with Inkscape (http://www.inkscape.org/) -->

<svg
   width="210mm"
   height="297mm"
   viewBox="0 0 210 297"
   version="1.1"
   id="svg1"
   inkscape:version="1.3.2 (091e20e, 2023-11-25, custom)"
   sodipodi:docname="InkandQuill.svg"
   xmlns:inkscape="http://www.inkscape.org/namespaces/inkscape"
   xmlns:sodipodi="http://sodipodi.sourceforge.net/DTD/sodipodi-0.dtd"
   xmlns:xlink="http://www.w3.org/1999/xlink"
   xmlns="http://www.w3.org/2000/svg"
   xmlns:svg="http://www.w3.org/2000/svg">
  <sodipodi:namedview
     id="namedview1"
     pagecolor="#ffffff"
     bordercolor="#000000"
     borderopacity="0.25"
     inkscape:showpageshadow="2"
     inkscape:pageopacity="0.0"
     inkscape:pagecheckerboard="0"
     inkscape:deskcolor="#d1d1d1"
     inkscape:document-units="mm"
     inkscape:zoom="0.59956711"
     inkscape:cx="296.04693"
     inkscape:cy="642.96389"
     inkscape:window-width="1920"
     inkscape:window-height="991"
     inkscape:window-x="-9"
     inkscape:window-y="-9"
     inkscape:window-maximized="1"
     inkscape:current-layer="layer1" />
  <defs
     id="defs1">
    <inkscape:path-effect
       effect="fillet_chamfer"
       id="path-effect5"
       is_visible="true"
       lpeversion="1"
       nodesatellites_param="F,0,0,1,0,3.5493689,0,1 @ F,0,0,1,0,0,0,1 @ F,0,0,1,0,0,0,1 @ F,0,0,1,0,0,0,1 @ F,0,0,1,0,0,0,1 @ F,0,0,1,0,0,0,1 @ F,0,0,1,0,0,0,1 @ F,0,0,1,0,3.5756608,0,1 @ F,0,0,1,0,1.3339673,0,1 @ F,0,0,1,0,1.4173787,0,1"
       radius="0"
       unit="px"
       method="auto"
       mode="F"
       chamfer_steps="1"
       flexible="false"
       use_knot_distance="true"
       apply_no_radius="true"
       apply_with_radius="true"
       only_selected="false"
       hide_knots="false" />
    <linearGradient
       id="linearGradient2"
       inkscape:collect="always">
      <stop
         style="stop-color:#000000;stop-opacity:1;"
         offset="0"
         id="stop2" />
      <stop
         style="stop-color:#ffffff;stop-opacity:1;"
         offset="0.43799326"
         id="stop4" />
      <stop
         style="stop-color:#000000;stop-opacity:1;"
         offset="1"
         id="stop3" />
    </linearGradient>
    <linearGradient
       inkscape:collect="always"
       xlink:href="#linearGradient2"
       id="linearGradient3"
       x1="35.372169"
       y1="124.61521"
       x2="79.151917"
       y2="107.71883"
       gradientUnits="userSpaceOnUse"
       gradientTransform="translate(-42.263808,34.861958)" />
    <inkscape:path-effect
       effect="fillet_chamfer"
       id="path-effect5-2"
       is_visible="true"
       lpeversion="1"
       nodesatellites_param="F,0,0,1,0,0,0,1 @ F,0,0,1,0,2.0231775,0,1 @ F,0,0,1,0,0,0,1"
       radius="0"
       unit="px"
       method="auto"
       mode="F"
       chamfer_steps="1"
       flexible="false"
       use_knot_distance="true"
       apply_no_radius="true"
       apply_with_radius="true"
       only_selected="false"
       hide_knots="false" />
  </defs>
  <g
     inkscape:label="Layer 1"
     inkscape:groupmode="layer"
     id="layer1">
    <g
       id="g2"
       inkscape:label="InkandQuill"
       transform="translate(0.44129058,-10.370329)">
      <g
         id="g6"
         inkscape:label="Quill"
         transform="matrix(-1,0,0,1,122.93996,0)">
        <path
           style="fill:url(#linearGradient3);stroke:#000000;stroke-width:0.529167"
           d="m 34.184069,218.33686 c -0.389572,-0.11509 -0.773086,-0.23456 -1.150542,-0.35803 -0.377455,-0.12346 -0.74885,-0.25091 -1.114185,-0.38198 -0.365335,-0.13106 -0.724608,-0.26573 -1.077818,-0.40361 -0.353211,-0.13789 -0.700358,-0.279 -1.041441,-0.42294 -0.341082,-0.14395 -0.6761,-0.29072 -1.00505,-0.43995 -0.328951,-0.14923 -0.651835,-0.3009 -0.968651,-0.45463 -0.316815,-0.15374 -0.627562,-0.30954 -0.932239,-0.46701 -0.304676,-0.15748 -0.603282,-0.31663 -0.895816,-0.47707 -0.292534,-0.16044 -0.578995,-0.32217 -0.859383,-0.4848 -0.280387,-0.16264 -0.5547,-0.32617 -0.822937,-0.49023 -0.268238,-0.16406 -0.530399,-0.32863 -0.786482,-0.49334 -0.256084,-0.1647 -0.506089,-0.32954 -0.750015,-0.49412 -0.243926,-0.16459 -0.481773,-0.32892 -0.713537,-0.49261 -0.231765,-0.16369 -0.538608,-0.4471 -0.758207,-0.60912 -0.2196,-0.16202 0.857572,-0.38095 4.070144,0.45237 0.253334,0.0657 -5.09266,-1.18891 -5.287919,-1.34529 -0.195259,-0.15637 -0.330082,-0.25441 -0.513165,-0.4068 -0.183083,-0.15239 -0.360077,-0.3026 -0.53098,-0.45023 -0.170904,-0.14764 -0.335716,-0.29271 -0.494436,-0.43482 -0.15872,-0.14211 -0.311348,-0.28126 -0.457881,-0.41707 -0.146533,-0.13581 -0.286971,-0.26828 -0.421314,-0.39702 -0.134342,-0.12874 -0.262588,-0.25375 -0.384735,-0.37465 -0.122148,-0.12089 -0.238198,-0.23768 -0.348148,-0.34996 -0.109949,-0.11228 -0.213799,-0.22006 -0.311547,-0.32295 -0.09775,-0.1029 -0.189393,-0.2009 -0.274936,-0.29364 -0.08554,-0.0927 -0.16498,-0.1802 -0.238313,-0.262 -0.07333,-0.0818 -0.140561,-0.15795 -0.201681,-0.22805 -0.06112,-0.0701 -0.116133,-0.13415 -0.165036,-0.19177 -0.0489,-0.0576 -0.0917,-0.10882 -0.128381,-0.1532 -0.03668,-0.0444 -0.06726,-0.0819 -0.09171,-0.11229 -0.02446,-0.0303 -0.04281,-0.0535 -0.05504,-0.0691 -0.01223,-0.0156 -0.01835,-0.0235 -0.01835,-0.0235 0,0 -0.0012,-0.0139 -0.0037,-0.0413 -0.0025,-0.0275 -0.0062,-0.0686 -0.01126,-0.12303 -0.005,-0.0545 -0.01141,-0.12228 -0.01914,-0.20323 -0.0077,-0.081 -0.01681,-0.17502 -0.02731,-0.28197 -0.0105,-0.10695 -0.02241,-0.22678 -0.03578,-0.35924 -0.01337,-0.13246 -0.02821,-0.27755 -0.04455,-0.43503 -0.01635,-0.15748 -0.03421,-0.32734 -0.05363,-0.50935 -0.01942,-0.182 4.737706,-0.88321 6.353314,-0.81622 0.207097,0.009 -6.463114,-0.18995 -6.488984,-0.41954 -0.02587,-0.22958 -0.0534,-0.47082 -0.08264,-0.72346 -0.02924,-0.25263 -0.0602,-0.51668 -0.09291,-0.79188 -0.03272,-0.2752 -0.06719,-0.56156 -0.103482,-0.85883 -0.03629,-0.29727 1.466305,-0.83949 0.724255,-1.06083 -0.307937,-0.0918 -0.920386,-0.51185 -0.964125,-0.85179 -0.04373,-0.33994 -0.08938,-0.69031 -0.136988,-1.05084 -0.04761,-0.36054 -0.09718,-0.73125 -0.148756,-1.1119 -0.05158,-0.38064 1.572042,-0.69321 1.51639,-1.09346 -0.05565,-0.40026 -1.790579,-0.88822 -1.850403,-1.3076 -0.05983,-0.41938 -0.12176,-0.8482 -0.185857,-1.28622 -0.0641,-0.43801 -0.130353,-0.88522 -0.198822,-1.34137 -0.06847,-0.45616 -0.139147,-0.92126 -0.212087,-1.39507 -0.07294,-0.4738 -0.148141,-0.95631 -0.225653,-1.44727 -0.07751,-0.49097 -0.157334,-0.99039 -0.239517,-1.49802 -0.08218,-0.50763 -0.166726,-1.02347 -0.253681,-1.54728 -0.08695,-0.52381 0.896317,-1.27011 1.682103,-1.67308 0.48696,-0.24973 -2.136358,-1.0087 -2.233154,-1.56338 -0.0968,-0.55469 -0.196103,-1.11685 -0.29797,-1.68624 -0.101867,-0.56939 -0.206294,-1.14601 -0.313332,-1.72961 -0.107037,-0.5836 -0.216685,-1.17418 -0.328993,-1.7715 -0.112308,-0.59732 -0.227276,-1.20138 -0.344954,-1.81192 -0.117678,-0.61055 -0.238066,-1.22759 -0.361215,-1.85088 -0.123148,-0.62329 -0.249056,-1.25282 -0.377774,-1.88835 -0.1287193,-0.63553 -0.2602473,-1.27707 -0.3946353,-1.92435 -0.134388,-0.64729 -0.271635,-1.30034 -0.411793,-1.95889 -0.140158,-0.65855 1.5110033,-2.49276 4.9534313,-2.77203 0.682831,-0.0554 -5.6776973,-0.56382 -5.8296933,-1.24342 -0.151996,-0.67961 -0.307002,-1.36423 -0.465068,-2.05363 -0.158065,-0.68939 -0.31919,-1.38356 -0.483425,-2.08226 -0.164234,-0.69869 -0.331578,-1.40191 -0.502081,-2.10942 -0.170503,-0.7075 -0.344166,-1.41928 -0.521038,-2.1351 -0.176871,-0.71582 -0.356953,-1.43567 -0.540293,-2.15932 -0.18334,-0.72364 -0.36994,-1.45108 -0.559848,-2.18206 -0.189909,-0.73097 3.271311,-2.56873 2.178363,-2.75493 -0.752712,-0.12824 -3.154579,-0.92733 -3.357924,-1.6715 -0.203344,-0.74418 -0.410098,-1.4914 -0.620311,-2.24143 -0.210212,-0.75004 -0.423884,-1.50288 -0.641064,-2.25828 -0.21718,-0.7554 -0.437869,-1.51337 -0.662117,-2.27365 -0.224248,-0.76028 -0.452054,-1.52287 -0.683469,-2.28754 -0.231415,-0.76467 -0.466439,-1.53141 -0.705121,-2.29997 -0.238678,-0.7686 -0.481019,-1.53899 -0.727068,-2.31096 -0.246049,-0.77196 -0.495807,-1.54551 -0.749323,-2.32039 -0.253516,-0.77488 -0.510791,-1.55109 -0.771873,-2.32839 -0.261083,-0.7773 -0.525974,-1.55569 -0.794724,-2.33492 -0.268749,-0.77924 -0.541357,-1.55931 -0.817872,-2.33998 -0.276516,-0.78067 -0.55694,-1.56194 -0.841322,-2.34356 -0.284382,-0.78162 0.08688,-3.37324 -0.377508,-2.73571 -0.45652,0.62672 -1.076266,-1.17421 -1.37668,-1.95625 -0.300413,-0.78205 -0.604885,-1.56395 -0.913465,-2.34546 -0.308579,-0.78152 -0.621267,-1.56265 -0.938112,-2.34315 -0.316845,-0.7805 -0.637848,-1.56037 -0.963058,-2.33936 -0.325211,-0.77899 -0.654629,-1.5571 -0.988305,-2.33409 -0.333676,-0.777 -0.6716087,-1.55287 -1.0138497,-2.32737 -0.342241,-0.7745 -0.688789,-1.54763 -1.039695,-2.31915 -0.350905,-0.77152 -0.706169,-1.54143 -1.065839,-2.30947 0,0 0.01078,0.0113 0.03205,0.0338 0.02127,0.0225 0.05303,0.0562 0.09498,0.10082 0.04195,0.0447 0.0941,0.1003 0.156147,0.16676 0.06205,0.0665 0.133996,0.14374 0.215552,0.23166 0.08156,0.0879 0.172718,0.18649 0.273195,0.29552 0.100476,0.10903 0.210266,0.22853 0.329075,0.35832 0.11881,0.1298 0.246639,0.26989 0.383195,0.4201 0.136555,0.15021 0.281837,0.31054 0.435551,0.48082 0.153714,0.17028 0.315861,0.35051 0.486147,0.54051 0.1702847,0.19 0.3487097,0.38977 0.5349787,0.59914 0.18627,0.20938 0.380385,0.42835 0.582051,0.65675 0.201667,0.2284 0.410884,0.46622 0.62736,0.7133 0.216476,0.24708 0.440209,0.5034 0.670907,0.76881 0.230698,0.26541 0.46836,0.53989 0.712693,0.82328 0.244332,0.28339 0.495336,0.57569 0.752716,0.87671 0.25738,0.30103 0.521137,0.61079 0.790977,0.9291 0.26984,0.31831 0.545763,0.64518 0.827476,0.98043 0.281713,0.33526 0.569216,0.67889 0.862215,1.03074 0.292998,0.35184 0.591492,0.7119 0.895189,1.07999 0.303697,0.36809 0.612596,0.74421 0.926403,1.1282 0.313808,0.38399 0.632524,0.77584 0.955855,1.17537 0.323331,0.39954 0.651278,0.80677 0.983545,1.22151 0.332267,0.41474 0.668856,0.83699 1.009472,1.26658 0.340616,0.4296 0.68526,0.86653 1.033638,1.31063 0.348378,0.4441 0.70049,0.89537 1.056042,1.35363 0.355552,0.45826 0.714545,0.92351 1.076684,1.39558 0.362139,0.47207 0.727425,0.95097 1.095564,1.4365 0.368139,0.48554 0.73913,0.97772 1.112682,1.47637 0.373551,0.49865 0.749661,1.00378 1.128037,1.5152 0.378376,0.51142 0.759018,1.02914 1.141632,1.55298 0.382614,0.52384 0.7672,1.05381 1.153464,1.58973 0.3862643,0.53591 -0.753796,5.03712 -0.942733,5.68194 -0.234751,0.80117 2.8863073,-2.95545 3.2781103,-2.39643 0.391803,0.55902 0.784697,1.12364 1.178389,1.69369 0.393691,0.57006 0.78818,1.14554 1.183173,1.72627 0.394992,0.58074 0.790489,1.16673 1.186195,1.7578 0.395706,0.59107 0.791623,1.18723 1.187456,1.78829 0.395833,0.60106 0.791582,1.20702 1.186954,1.81772 0.395372,0.6107 0.790367,1.22614 1.184691,1.84613 0.394324,0.62 0.787977,1.24455 1.180666,1.87349 0.392688,0.62894 0.784412,1.26226 1.174878,1.8998 0.390466,0.63754 0.779673,1.27929 1.167329,1.92507 0.387655,0.64579 0.773759,1.29562 1.158017,1.94931 0.384258,0.65369 0.766671,1.31124 1.146945,1.97249 0.380273,0.66124 0.758407,1.32618 1.134109,1.99463 0.375701,0.66845 0.74897,1.34042 1.119512,2.01574 0.370542,0.67531 -2.853897,11.23622 -2.537495,10.53063 2.736733,-6.10301 4.367219,-7.12802 4.72568,-6.44003 0.358461,0.68799 0.713609,1.37897 1.065149,2.07278 0.35154,0.69381 0.699473,1.39044 1.043504,2.08971 0.344032,0.69928 0.684162,1.40121 1.020098,2.1056 0.335935,0.7044 -1.395946,3.63596 -0.770234,3.16852 1.044349,-0.78019 2.415178,0.37258 2.73316,1.08618 0.317981,0.7136 0.631181,1.42932 0.939305,2.147 0.308124,0.71768 0.611172,1.43731 0.90885,2.15872 0.297679,0.72141 0.589988,1.4446 0.876634,2.1694 0.286646,0.72479 0.567629,1.45119 0.842655,2.17903 0.275026,0.72783 0.544096,1.45709 0.806915,2.18761 0.262819,0.73052 0.519387,1.4623 0.769412,2.19516 0.250025,0.73286 0.493505,1.46681 0.730148,2.20166 0.236643,0.73486 -6.548896,7.15697 -5.875077,6.78551 3.36687,-1.85608 7.002414,-3.10465 7.210531,-2.36685 0.208118,0.7378 0.40881,1.47616 0.601783,2.21492 0.192974,0.73875 0.378229,1.47789 0.555471,2.21724 0,0 -2.06e-4,0.011 -8.68e-4,0.0327 -6.61e-4,0.0217 -0.0018,0.0542 -0.0036,0.097 -0.0018,0.0428 -0.0043,0.0961 -0.0078,0.15948 -0.0035,0.0634 -0.0079,0.13686 -0.01354,0.22016 -0.0056,0.0833 -0.01247,0.17641 -0.02075,0.27904 -0.0083,0.10262 -0.01802,0.21477 -0.02946,0.33612 -0.01144,0.12136 -0.02457,0.25193 -0.03966,0.39142 -0.01508,0.13949 -0.03212,0.28789 -0.05135,0.44491 -0.01923,0.15703 -0.04066,0.32266 -0.06454,0.49662 -0.02388,0.17395 -0.0502,0.35622 -0.07922,0.54651 -0.02902,0.19029 -0.06073,0.38859 -0.09539,0.59462 -0.03466,0.20602 -0.07226,0.41977 -0.113056,0.64093 -0.0408,0.22116 -0.08478,0.44974 -0.132216,0.68544 -0.04743,0.23571 -0.09831,0.47853 -0.152871,0.72817 -0.05456,0.24964 -1.817768,0.57218 -1.554051,0.63118 0.682478,0.15266 1.250699,0.67039 1.180373,0.94612 -0.07033,0.27572 -0.144841,0.55767 -0.223794,0.84554 -0.07895,0.28787 -0.162345,0.58166 -0.250423,0.88108 -0.08808,0.29941 -2.158309,1.22353 -3.80887,1.46642 -1.329958,0.19572 2.754215,0.54999 2.422326,0.6158 -2.452179,0.48619 -5.206126,2.40013 -4.862499,2.32835 3.963498,-0.82793 5.080753,-0.90645 4.951196,-0.56684 -0.129557,0.33961 -0.264797,0.68364 -0.405968,1.0318 -0.141172,0.34817 -0.288275,0.70045 -0.441559,1.05657 -0.153284,0.35612 -0.312748,0.71606 -0.478642,1.07953 -0.165894,0.36347 -0.338217,0.73047 -0.517219,1.10069 -0.179002,0.37023 -0.364682,0.74368 -0.557289,1.12007 -0.192608,0.37638 -0.392143,0.75569 -0.598854,1.13764 -0.206712,0.38194 -0.420599,0.76651 -0.641912,1.15341 -0.221313,0.3869 -0.450051,0.77614 -0.686463,1.1674 -0.236412,0.39126 -0.480499,0.78456 -0.732508,1.17959 -0.25201,0.39502 -0.511942,0.79178 -0.780047,1.18997 z"
           id="path1"
           sodipodi:nodetypes="cssssssssssssssssssssssssssssssscssssssssssssssssssssssssssssssssssssssssssssssssssssssssssssssscssssssssssssssssssssssssssssssssssssssssssssssssssssssssssssssscssssssssssssssssssssssssssssssscc" />
        <path
           style="fill:#efedd5;fill-opacity:1;stroke:#000000;stroke-width:0.529;stroke-dasharray:none"
           d="M 41.253968,253.39034 C 29.639147,165.02807 -12.5359,100.82633 -12.5359,100.82633 c 0,0 35.217238,54.28229 53.789868,152.56401 z"
           id="path2"
           sodipodi:nodetypes="ccc" />
      </g>
      <path
         style="opacity:1;fill:#000000;fill-opacity:1;stroke:#000000;stroke-width:0.529;stroke-dasharray:none"
         d="m 107.42784,249.64104 c -5.43605,-0.98135 -15.366394,-3.16029 -16.156277,-6.09415 -1.87223,-8.89313 5.772745,-8.00803 5.772745,-8.00803 2.824694,-4.30258 0,-7.74997 0,-7.74997 H 70.208904 c 0,0 -2.824692,3.44739 0,7.74997 0,0 7.644971,-0.8851 5.772733,8.00803 -0.788644,2.92925 -10.689093,5.10596 -16.130663,6.08953 -1.943066,0.35121 -3.635711,2.17755 -3.768789,4.14784 l -1.073325,15.89119 a 1.2469075,1.2469075 46.932006 0 0 1.244073,1.33093 l 54.663917,0 a 1.3248757,1.3248757 133.068 0 0 1.32187,-1.41416 l -1.06947,-15.83419 c -0.1321,-1.95581 -1.81241,-3.76875 -3.74141,-4.11699 z"
         id="path5"
         sodipodi:nodetypes="ccccccccccc"
         inkscape:label="Ink"
         inkscape:original-d="m 110.93006,250.21673 c 0,0 -18.566359,-2.61332 -19.658497,-6.66984 -1.87223,-8.89313 5.772745,-8.00803 5.772745,-8.00803 2.824694,-4.30258 0,-7.74997 0,-7.74997 H 70.208904 c 0,0 -2.824692,3.44739 0,7.74997 0,0 7.644971,-0.8851 5.772733,8.00803 -1.092138,4.05652 -19.658493,6.66984 -19.658493,6.66984 l -1.404178,20.78965 h 57.415264 z"
         inkscape:path-effect="#path-effect5"
         transform="matrix(0.8152163,0,0,0.8152163,15.988469,43.678609)" />
    </g>
  </g>
</svg>
