<svg width="1175" height="745" viewBox="0 0 1175 745" fill="none" xmlns="http://www.w3.org/2000/svg">
<g id="Island">
<g id="Sand">
<path id="Vector 15" d="M19 807.336V37.8362C1169.73 -164.946 1174.5 807.336 1174.5 807.336L19 807.336Z" fill="#D7B557"/>
<path id="Vector 15_2" d="M546.5 807.336V37.8362C-604.227 -164.946 -609 807.336 -609 807.336L546.5 807.336Z" fill="#D7B557"/>
</g>
<path id="Grass" d="M-56.7402 115.421C-111.152 105.269 -149.599 127.022 -200 108.016C108 -51.9841 615 -4.48468 796 124.516C791.837 127.664 768.258 133.817 765 137.516C749.846 154.717 719.929 149.168 700 163.395C663.295 189.597 639.129 172.043 590.451 176.726C539.712 181.608 485.703 186.77 436.433 172.875C412.919 166.244 391.634 164.027 366.529 163.395C324.606 162.338 282.749 163.328 240.832 163.024L240.392 163.021C207.983 162.786 173.708 162.538 144.379 150.156C129.959 144.068 119.332 134.324 103.786 129.696C52.4709 114.419 -4.24751 125.214 -56.7402 115.421Z" fill="#1F6519"/>
</g>
</svg>
