<svg width="1202" height="608" viewBox="0 0 1202 608" fill="none" xmlns="http://www.w3.org/2000/svg">
<path d="M803.118 178.812L840.449 176.623L836.646 249.569L836.637 249.735L836.666 249.9L849.126 322.826C843.819 328.497 838.419 331.455 832.489 331.857C826.507 332.262 819.709 330.085 811.595 324.898L815.441 251.144L815.449 250.978L815.421 250.813L803.118 178.812Z" fill="#CA9C67" stroke="#5C2806" stroke-width="3"/>
<path d="M814.785 249.38C815.423 249.348 816.209 249.309 817.102 249.267C819.55 249.152 822.805 249.01 826.037 248.907C829.275 248.803 832.469 248.738 834.803 248.773C835.61 248.785 836.291 248.809 836.825 248.845C836.825 248.866 836.825 248.887 836.825 248.908C836.821 249.472 836.89 250.047 836.973 250.54L815.036 251.44L815.002 250.474L814.997 250.337L814.967 250.202L814.785 249.38Z" fill="#FE0707" stroke="#FF0303" stroke-width="3"/>
<path d="M840.82 175.014C840.822 175.049 840.805 175.424 839.93 176.087C839.107 176.709 837.804 177.361 836.048 177.971C832.555 179.184 827.599 180.118 822.023 180.445C816.446 180.772 811.416 180.424 807.805 179.627C805.989 179.227 804.619 178.732 803.729 178.21C802.783 177.654 802.722 177.283 802.72 177.248C802.718 177.213 802.735 176.838 803.61 176.175C804.432 175.553 805.735 174.901 807.492 174.291C810.985 173.078 815.94 172.144 821.517 171.817C827.093 171.49 832.124 171.838 835.735 172.635C837.551 173.035 838.921 173.53 839.81 174.052C840.757 174.608 840.817 174.979 840.82 175.014Z" fill="#D1B798" stroke="#5C2806" stroke-width="3"/>
<path d="M820.183 177.822C819.611 177.865 819.033 177.9 818.447 177.927C817.857 177.936 817.27 177.937 816.686 177.928C816.118 177.901 815.563 177.865 815.022 177.819C814.517 177.755 814.036 177.682 813.578 177.599C813.177 177.5 812.808 177.392 812.471 177.276C812.208 177.145 811.985 177.008 811.801 176.865C811.703 176.71 811.65 176.551 811.643 176.388C811.727 176.219 811.86 176.048 812.039 175.875C812.312 175.701 812.631 175.529 812.997 175.358C813.451 175.192 813.947 175.03 814.485 174.872C815.1 174.725 815.75 174.586 816.433 174.453C817.177 174.336 817.944 174.229 818.736 174.131C819.564 174.054 820.404 173.989 821.256 173.935C822.118 173.906 822.978 173.889 823.836 173.884C824.676 173.906 825.5 173.941 826.307 173.99C827.067 174.065 827.797 174.152 828.496 174.252C829.122 174.378 829.705 174.514 830.244 174.662C830.687 174.832 831.077 175.011 831.414 175.2C831.636 175.405 831.797 175.616 831.899 175.834C831.875 176.063 831.787 176.294 831.636 176.529C831.356 176.767 831.014 177.004 830.608 177.24C830.08 177.472 829.494 177.699 828.85 177.922C828.098 178.132 827.297 178.334 826.446 178.528C825.51 178.701 824.537 178.863 823.527 179.014C822.46 179.139 821.373 179.249 820.264 179.345C819.132 179.41 817.996 179.458 816.857 179.491C815.731 179.49 814.62 179.471 813.525 179.436C812.478 179.366 811.466 179.28 810.487 179.176C809.593 179.039 808.749 178.887 807.955 178.719C807.277 178.523 806.663 178.313 806.114 178.089C805.704 177.843 805.369 177.586 805.108 177.32C805.003 177.038 804.979 176.75 805.035 176.457C805.253 176.157 805.551 175.855 805.931 175.553C806.469 175.253 807.083 174.957 807.773 174.665C808.607 174.386 809.508 174.115 810.474 173.853C811.56 173.612 812.697 173.384 813.887 173.17C815.162 172.985 816.471 172.817 817.813 172.666C819.202 172.551 820.603 172.456 822.016 172.38C823.431 172.344 824.836 172.33 826.231 172.336C827.582 172.385 828.9 172.455 830.186 172.546C831.383 172.679 832.526 172.832 833.615 173.004C834.577 173.215 835.466 173.443 836.282 173.688C836.939 173.965 837.508 174.256 837.991 174.56C838.29 174.888 838.494 175.224 838.602 175.57C838.515 175.929 838.329 176.291 838.044 176.657C837.564 177.024 836.989 177.389 836.319 177.752C835.466 178.104 834.528 178.448 833.504 178.785C832.323 179.099 831.072 179.4 829.751 179.688C828.309 179.943 826.817 180.18 825.276 180.399C823.658 180.577 822.015 180.733 820.346 180.867" stroke="#351703"/>
<mask id="path-5-inside-1_18_108" fill="white">
<path fill-rule="evenodd" clip-rule="evenodd" d="M866.561 76.7356C869.026 77.1399 870.697 79.4659 870.292 81.9309C869.888 84.3958 867.562 86.0664 865.097 85.6621L864.727 85.6014C863.956 100.371 861.796 146.735 864.385 158.165C877.962 162.833 886.6 176.738 884.198 191.383L859.272 343.359C857.931 351.534 850.217 357.074 842.042 355.734L776.802 345.033C768.627 343.692 763.087 335.978 764.428 327.803L789.355 175.827C791.771 161.097 804.532 150.644 818.993 150.678C825.572 140.671 837.846 96.0191 841.656 81.7931C839.446 81.1936 838.003 79.0063 838.382 76.697C838.786 74.2321 841.112 72.5616 843.577 72.9659L866.561 76.7356Z"/>
</mask>
<path fill-rule="evenodd" clip-rule="evenodd" d="M866.561 76.7356C869.026 77.1399 870.697 79.4659 870.292 81.9309C869.888 84.3958 867.562 86.0664 865.097 85.6621L864.727 85.6014C863.956 100.371 861.796 146.735 864.385 158.165C877.962 162.833 886.6 176.738 884.198 191.383L859.272 343.359C857.931 351.534 850.217 357.074 842.042 355.734L776.802 345.033C768.627 343.692 763.087 335.978 764.428 327.803L789.355 175.827C791.771 161.097 804.532 150.644 818.993 150.678C825.572 140.671 837.846 96.0191 841.656 81.7931C839.446 81.1936 838.003 79.0063 838.382 76.697C838.786 74.2321 841.112 72.5616 843.577 72.9659L866.561 76.7356Z" fill="url(#paint0_linear_18_108)" fill-opacity="0.3"/>
<path d="M864.727 85.6014L861.731 85.4451L861.906 82.0986L865.213 82.641L864.727 85.6014ZM864.385 158.165L863.409 161.002L861.828 160.458L861.459 158.828L864.385 158.165ZM818.993 150.678L821.5 152.326L820.608 153.682L818.986 153.678L818.993 150.678ZM841.656 81.7931L842.441 78.8978L845.327 79.6806L844.554 82.5692L841.656 81.7931ZM867.332 81.4453C867.468 80.6153 866.905 79.8321 866.075 79.696L867.047 73.7751C871.147 74.4476 873.925 78.3164 873.253 82.4164L867.332 81.4453ZM865.583 82.7016C866.412 82.8377 867.196 82.2753 867.332 81.4453L873.253 82.4164C872.58 86.5164 868.711 89.295 864.611 88.6225L865.583 82.7016ZM865.213 82.641L865.583 82.7016L864.611 88.6225L864.242 88.5618L865.213 82.641ZM861.459 158.828C860.736 155.639 860.387 150.314 860.238 144.154C860.087 137.905 860.14 130.526 860.297 123.073C860.611 108.16 861.345 92.8411 861.731 85.4451L867.723 85.7577C867.338 93.1313 866.607 108.379 866.295 123.199C866.139 130.611 866.089 137.889 866.237 144.01C866.387 150.219 866.738 154.976 867.31 157.502L861.459 158.828ZM881.238 190.897C883.399 177.72 875.626 165.203 863.409 161.002L865.36 155.328C880.297 160.464 889.802 175.757 887.159 191.869L881.238 190.897ZM856.311 342.874L881.238 190.897L887.159 191.869L862.232 343.845L856.311 342.874ZM842.527 352.773C849.067 353.846 855.239 349.414 856.311 342.874L862.232 343.845C860.623 353.655 851.366 360.303 841.556 358.694L842.527 352.773ZM777.288 342.073L842.527 352.773L841.556 358.694L776.317 347.994L777.288 342.073ZM767.388 328.289C766.316 334.829 770.748 341 777.288 342.073L776.317 347.994C766.507 346.385 759.858 337.128 761.467 327.318L767.388 328.289ZM792.315 176.313L767.388 328.289L761.467 327.318L786.394 175.341L792.315 176.313ZM818.986 153.678C805.974 153.648 794.489 163.058 792.315 176.313L786.394 175.341C789.052 159.136 803.091 147.641 819 147.678L818.986 153.678ZM844.554 82.5692C842.645 89.6951 838.613 104.456 834.23 118.7C832.039 125.82 829.752 132.841 827.59 138.728C825.463 144.521 823.359 149.498 821.5 152.326L816.486 149.03C817.916 146.855 819.814 142.497 821.958 136.659C824.067 130.915 826.319 124.008 828.496 116.935C832.847 102.795 836.857 88.1172 838.758 81.0171L844.554 82.5692ZM841.343 77.1826C841.215 77.9583 841.7 78.6967 842.441 78.8978L840.871 84.6885C837.191 83.6904 834.791 80.0543 835.422 76.2115L841.343 77.1826ZM843.092 75.9263C842.262 75.7902 841.479 76.3526 841.343 77.1826L835.422 76.2115C836.094 72.1115 839.963 69.3329 844.063 70.0054L843.092 75.9263ZM866.075 79.696L843.092 75.9263L844.063 70.0054L867.047 73.7751L866.075 79.696Z" fill="black" mask="url(#path-5-inside-1_18_108)"/>
<path d="M175.991 118.58L211.483 106.804L226.689 178.249L226.723 178.412L226.793 178.563L257.703 245.781C254.045 252.631 249.594 256.887 243.97 258.809C238.297 260.749 231.167 260.405 221.987 257.495L206.613 185.259L206.579 185.096L206.509 184.944L175.991 118.58Z" fill="#CA9C67" stroke="#5C2806" stroke-width="3"/>
<path d="M205.524 183.724C206.131 183.528 206.88 183.288 207.733 183.016C210.067 182.27 213.175 181.292 216.27 180.355C219.371 179.417 222.438 178.528 224.702 177.957C225.485 177.76 226.149 177.607 226.674 177.503C226.68 177.524 226.685 177.544 226.69 177.564C226.832 178.11 227.048 178.648 227.256 179.103L206.299 185.649L206.016 184.725L205.976 184.593L205.912 184.471L205.524 183.724Z" fill="#FE0707" stroke="#FF0303" stroke-width="3"/>
<path d="M211.425 105.154C211.436 105.188 211.517 105.554 210.843 106.421C210.21 107.235 209.12 108.202 207.581 109.246C204.521 111.321 199.976 113.506 194.674 115.265C189.372 117.024 184.423 117.989 180.729 118.155C178.871 118.238 177.419 118.114 176.425 117.84C175.367 117.548 175.213 117.206 175.202 117.172C175.19 117.139 175.11 116.772 175.784 115.906C176.417 115.092 177.506 114.125 179.045 113.081C182.105 111.005 186.65 108.821 191.952 107.062C197.254 105.303 202.204 104.337 205.897 104.172C207.755 104.089 209.207 104.212 210.201 104.486C211.259 104.778 211.414 105.121 211.425 105.154Z" fill="#D1B798" stroke="#5C2806" stroke-width="3"/>
<path d="M192.218 113.208C191.677 113.397 191.127 113.58 190.568 113.757C190.001 113.919 189.434 114.072 188.868 114.215C188.312 114.336 187.767 114.444 187.232 114.54C186.728 114.609 186.244 114.663 185.781 114.701C185.367 114.709 184.983 114.7 184.628 114.676C184.34 114.618 184.088 114.543 183.874 114.452C183.739 114.328 183.647 114.188 183.597 114.032C183.636 113.847 183.719 113.648 183.847 113.434C184.066 113.196 184.33 112.947 184.639 112.687C185.035 112.409 185.472 112.124 185.951 111.833C186.507 111.532 187.098 111.228 187.724 110.923C188.412 110.618 189.125 110.316 189.865 110.017C190.645 109.728 191.44 109.448 192.248 109.175C193.074 108.923 193.9 108.685 194.728 108.458C195.545 108.262 196.349 108.083 197.141 107.921C197.895 107.796 198.623 107.692 199.324 107.608C199.961 107.567 200.559 107.548 201.119 107.551C201.591 107.601 202.014 107.673 202.387 107.768C202.655 107.908 202.866 108.071 203.02 108.255C203.056 108.482 203.031 108.728 202.946 108.994C202.738 109.296 202.468 109.614 202.137 109.947C201.688 110.308 201.18 110.679 200.616 111.061C199.944 111.458 199.222 111.861 198.451 112.268C197.591 112.678 196.693 113.087 195.757 113.493C194.759 113.89 193.736 114.277 192.691 114.657C191.613 115.013 190.529 115.354 189.438 115.68C188.349 115.97 187.271 116.24 186.204 116.49C185.176 116.693 184.175 116.871 183.203 117.024C182.304 117.124 181.449 117.195 180.639 117.239C179.933 117.224 179.286 117.18 178.697 117.107C178.238 116.975 177.848 116.814 177.527 116.624C177.353 116.379 177.255 116.107 177.232 115.809C177.365 115.463 177.576 115.094 177.864 114.704C178.306 114.275 178.823 113.831 179.414 113.37C180.147 112.884 180.947 112.389 181.813 111.886C182.799 111.372 183.839 110.858 184.932 110.343C186.116 109.835 187.337 109.334 188.595 108.84C189.906 108.37 191.235 107.915 192.58 107.476C193.938 107.075 195.291 106.698 196.64 106.343C197.958 106.041 199.249 105.767 200.514 105.523C201.705 105.341 202.849 105.192 203.946 105.077C204.929 105.032 205.847 105.022 206.699 105.047C207.404 105.145 208.03 105.279 208.575 105.448C208.949 105.687 209.233 105.959 209.427 106.265C209.435 106.634 209.349 107.032 209.169 107.459C208.8 107.938 208.339 108.439 207.786 108.963C207.053 109.524 206.236 110.1 205.335 110.69C204.275 111.299 203.145 111.914 201.943 112.533C200.616 113.153 199.237 113.768 197.804 114.378C196.288 114.969 194.741 115.545 193.164 116.106" stroke="#351703"/>
<mask id="path-11-inside-2_18_108" fill="white">
<path fill-rule="evenodd" clip-rule="evenodd" d="M210.854 3.56203C213.34 3.31461 215.555 5.12903 215.803 7.61467C216.05 10.1003 214.236 12.3159 211.75 12.5633L211.377 12.6004C214.455 27.0663 224.368 72.4103 229.826 82.7803C244.149 83.776 256.092 94.9715 257.562 109.739L272.817 262.988C273.637 271.232 267.62 278.58 259.376 279.4L193.59 285.949C185.347 286.769 177.999 280.752 177.178 272.508L161.924 119.259C160.445 104.405 170.067 91.0059 184.044 87.2962C187.808 75.927 188.108 29.6202 188.107 14.8929C185.816 14.8858 183.857 13.1463 183.625 10.8177C183.378 8.33204 185.192 6.11646 187.678 5.86904L210.854 3.56203Z"/>
</mask>
<path fill-rule="evenodd" clip-rule="evenodd" d="M210.854 3.56203C213.34 3.31461 215.555 5.12903 215.803 7.61467C216.05 10.1003 214.236 12.3159 211.75 12.5633L211.377 12.6004C214.455 27.0663 224.368 72.4103 229.826 82.7803C244.149 83.776 256.092 94.9715 257.562 109.739L272.817 262.988C273.637 271.232 267.62 278.58 259.376 279.4L193.59 285.949C185.347 286.769 177.999 280.752 177.178 272.508L161.924 119.259C160.445 104.405 170.067 91.0059 184.044 87.2962C187.808 75.927 188.108 29.6202 188.107 14.8929C185.816 14.8858 183.857 13.1463 183.625 10.8177C183.378 8.33204 185.192 6.11646 187.678 5.86904L210.854 3.56203Z" fill="url(#paint1_linear_18_108)" fill-opacity="0.3"/>
<path d="M211.377 12.6004L208.443 13.2248L207.746 9.94711L211.08 9.61519L211.377 12.6004ZM229.826 82.7803L229.618 85.7731L227.95 85.6571L227.172 84.1777L229.826 82.7803ZM184.044 87.2962L186.891 88.2393L186.381 89.7796L184.813 90.1958L184.044 87.2962ZM188.107 14.8929L188.116 11.8929L191.106 11.9021L191.107 14.8925L188.107 14.8929ZM212.818 7.91183C212.734 7.0749 211.988 6.46397 211.151 6.54728L210.557 0.576787C214.691 0.165247 218.377 3.18317 218.788 7.31751L212.818 7.91183ZM211.453 9.57806C212.29 9.49475 212.901 8.74875 212.818 7.91183L218.788 7.31751C219.2 11.4519 216.182 15.137 212.047 15.5486L211.453 9.57806ZM211.08 9.61519L211.453 9.57806L212.047 15.5486L211.674 15.5857L211.08 9.61519ZM227.172 84.1777C225.649 81.2848 223.933 76.2319 222.195 70.3203C220.432 64.3232 218.573 57.182 216.796 49.9416C213.239 35.4563 209.984 20.4687 208.443 13.2248L214.312 11.9761C215.848 19.198 219.088 34.1153 222.622 48.511C224.39 55.7111 226.225 62.7543 227.952 68.6279C229.704 74.5869 231.274 79.0907 232.481 81.3829L227.172 84.1777ZM254.577 110.036C253.254 96.7484 242.506 86.669 229.618 85.7731L230.034 79.7875C245.792 80.8829 258.93 93.1946 260.547 109.442L254.577 110.036ZM269.832 263.285L254.577 110.036L260.547 109.442L275.802 262.691L269.832 263.285ZM259.079 276.415C265.674 275.758 270.488 269.88 269.832 263.285L275.802 262.691C276.787 272.583 269.566 281.401 259.674 282.385L259.079 276.415ZM193.293 282.963L259.079 276.415L259.674 282.385L193.888 288.934L193.293 282.963ZM180.164 272.211C180.82 278.806 186.698 283.62 193.293 282.963L193.888 288.934C183.995 289.919 175.178 282.698 174.193 272.805L180.164 272.211ZM164.909 118.962L180.164 272.211L174.193 272.805L158.938 119.556L164.909 118.962ZM184.813 90.1958C172.236 93.5339 163.578 105.597 164.909 118.962L158.938 119.556C157.312 103.214 167.897 88.4779 183.274 84.3966L184.813 90.1958ZM191.107 14.8925C191.107 22.2695 191.033 37.5707 190.486 52.464C190.212 59.9081 189.819 67.282 189.255 73.5278C188.699 79.6743 187.956 85.0259 186.891 88.2393L181.196 86.3531C182.014 83.882 182.719 79.1817 183.279 72.9878C183.83 66.8933 184.218 59.6383 184.49 52.2436C185.033 37.4594 185.107 22.2435 185.107 14.8932L191.107 14.8925ZM186.611 10.5205C186.689 11.3027 187.348 11.8905 188.116 11.8929L188.097 17.8929C184.285 17.881 181.026 14.9898 180.64 11.1148L186.611 10.5205ZM187.975 8.85428C187.138 8.93759 186.527 9.68359 186.611 10.5205L180.64 11.1148C180.229 6.9805 183.247 3.29533 187.381 2.88379L187.975 8.85428ZM211.151 6.54728L187.975 8.85428L187.381 2.88379L210.557 0.576787L211.151 6.54728Z" fill="black" mask="url(#path-11-inside-2_18_108)"/>
<path d="M300.5 172.5C250.976 176.001 224.286 289.202 150 172.5C100.476 176.001 74.7081 290.766 0.421814 174.064V608H1202V172.5C1152.48 176.185 1124.29 295.344 1050 172.5C1000.48 176.185 974.786 295.344 900.5 172.5C850.976 176.001 825.286 289.202 751 172.5C701.476 176.001 674.786 289.202 600.5 172.5C550.976 176.185 524.286 295.344 450 172.5C400.476 176.185 374.786 295.344 300.5 172.5Z" fill="#0B99A2" fill-opacity="0.7"/>
<defs>
<linearGradient id="paint0_linear_18_108" x1="854.626" y1="74.778" x2="809.422" y2="350.383" gradientUnits="userSpaceOnUse">
<stop stop-color="#66C80F"/>
<stop offset="0.791667" stop-color="#166107"/>
</linearGradient>
<linearGradient id="paint1_linear_18_108" x1="198.819" y1="4.76003" x2="226.483" y2="282.674" gradientUnits="userSpaceOnUse">
<stop stop-color="#66C80F"/>
<stop offset="0.791667" stop-color="#166107"/>
</linearGradient>
</defs>
</svg>
