<svg width="99" height="288" viewBox="0 0 99 288" fill="none" xmlns="http://www.w3.org/2000/svg">
<path d="M84.5709 114.302L46.8919 105.831L38.5902 180.663L38.5719 180.829L38.5176 180.986L13.686 253.058C18.1422 259.724 23.1504 263.647 29.131 265.049C35.1626 266.462 42.4535 265.376 51.5816 261.446L59.9722 185.81L59.9906 185.644L60.0449 185.487L84.5709 114.302Z" fill="#CA9C67" stroke="#5C2806" stroke-width="3"/>
<path d="M60.9491 184.088C60.2975 183.947 59.4867 183.773 58.5607 183.576C56.0914 183.05 52.8063 182.364 49.5378 181.72C46.2635 181.074 43.0277 180.476 40.6483 180.122C39.8042 179.997 39.0919 179.906 38.5351 179.853C38.53 179.889 38.5247 179.925 38.5192 179.959C38.4283 180.539 38.2595 181.118 38.0903 181.609C38.0873 181.618 38.0844 181.626 38.0814 181.635L60.3251 186.226L60.5291 185.206L60.5561 185.071L60.6073 184.943L60.9491 184.088Z" fill="#FE0707" stroke="#FF0303" stroke-width="3"/>
<path d="M46.7787 104.179C46.7657 104.237 46.7334 104.636 47.5158 105.459C48.2523 106.234 49.4727 107.116 51.1585 108.03C54.5113 109.848 59.3971 111.625 65.0138 112.887C70.6305 114.15 75.8065 114.635 79.6146 114.428C81.5294 114.323 83.0102 114.048 84.0073 113.663C85.0666 113.254 85.2082 112.88 85.2213 112.822C85.2343 112.764 85.2666 112.365 84.4842 111.542C83.7477 110.767 82.5273 109.885 80.8415 108.971C77.4887 107.153 72.6029 105.377 66.9862 104.114C61.3695 102.851 56.1935 102.366 52.3854 102.573C50.4706 102.678 48.9898 102.953 47.9927 103.338C46.9334 103.747 46.7918 104.121 46.7787 104.179Z" fill="#D1B798" stroke="#5C2806" stroke-width="3"/>
<path d="M67.3315 110.484C67.9051 110.623 68.4872 110.755 69.0779 110.88C69.6759 110.988 70.2725 111.086 70.8677 111.175C71.4497 111.242 72.0196 111.298 72.5777 111.342C73.1014 111.36 73.6027 111.366 74.0818 111.359C74.5065 111.324 74.8995 111.276 75.2607 111.214C75.5502 111.126 75.8001 111.024 76.0105 110.908C76.1358 110.767 76.216 110.615 76.2513 110.45C76.1932 110.264 76.0875 110.068 75.9341 109.863C75.6853 109.641 75.3894 109.412 75.0464 109.177C74.6123 108.933 74.135 108.686 73.6145 108.435C73.0139 108.184 72.3771 107.933 71.7041 107.684C70.9682 107.442 70.206 107.205 69.4175 106.974C68.5885 106.758 67.7454 106.551 66.8884 106.354C66.017 106.18 65.1456 106.02 64.274 105.872C63.4167 105.755 62.5738 105.653 61.7453 105.568C60.9602 105.517 60.2037 105.484 59.476 105.47C58.8191 105.492 58.204 105.534 57.6305 105.595C57.152 105.693 56.726 105.81 56.3525 105.946C56.0926 106.117 55.893 106.305 55.7536 106.51C55.7398 106.746 55.7904 106.996 55.9052 107.26C56.1496 107.548 56.4582 107.847 56.8311 108.155C57.329 108.478 57.8868 108.807 58.5043 109.141C59.2339 109.479 60.0148 109.818 60.8469 110.157C61.77 110.49 62.7319 110.817 63.7327 111.138C64.7965 111.442 65.8838 111.736 66.9945 112.018C68.1349 112.273 69.2811 112.512 70.4332 112.735C71.5783 112.921 72.7106 113.088 73.8301 113.235C74.9051 113.338 75.9487 113.419 76.9609 113.477C77.8927 113.487 78.7759 113.473 79.6106 113.435C80.3327 113.348 80.9917 113.237 81.5876 113.101C82.0452 112.919 82.4286 112.714 82.738 112.487C82.8914 112.218 82.9643 111.93 82.9566 111.622C82.7851 111.28 82.5315 110.924 82.196 110.554C81.6992 110.159 81.1243 109.756 80.4714 109.344C79.6704 108.921 78.8005 108.496 77.8617 108.068C76.7982 107.642 75.6799 107.221 74.5067 106.805C73.241 106.405 71.9386 106.016 70.5994 105.638C69.207 105.29 67.799 104.959 66.3752 104.646C64.9425 104.374 63.5168 104.125 62.098 103.899C60.7165 103.724 59.3649 103.575 58.0433 103.454C56.804 103.389 55.6164 103.353 54.4806 103.347C53.4682 103.401 52.5265 103.484 51.6556 103.598C50.9424 103.77 50.315 103.97 49.7734 104.199C49.4146 104.482 49.1514 104.791 48.9838 105.124C49.013 105.503 49.1417 105.902 49.37 106.321C49.7966 106.775 50.3203 107.242 50.9412 107.722C51.7491 108.223 52.6453 108.729 53.6298 109.242C54.7776 109.758 55.999 110.273 57.294 110.785C58.7173 111.285 60.1942 111.775 61.7247 112.254C63.3393 112.705 64.9836 113.137 66.6575 113.552" stroke="#351703"/>
<mask id="path-5-inside-1_18_28" fill="white">
<path fill-rule="evenodd" clip-rule="evenodd" d="M37.042 0C34.469 0 32.3832 2.08583 32.3832 4.65882C32.3832 7.23182 34.469 9.31765 37.042 9.31765H37.428C35.756 24.3973 30.2606 71.561 25.734 82.9951C11.186 85.0662 0 97.5738 0 112.694V272.682C0 280.967 6.71573 287.682 15 287.682H84C92.2843 287.682 99 280.967 99 272.682V112.694C99 97.4846 87.6816 84.9187 73.0082 82.9595C68.0084 71.4573 63.0092 24.3305 61.5142 9.29307C63.861 9.05213 65.6916 7.06925 65.6916 4.65882C65.6916 2.08583 63.6058 0 61.0328 0H37.042Z"/>
</mask>
<path fill-rule="evenodd" clip-rule="evenodd" d="M37.042 0C34.469 0 32.3832 2.08583 32.3832 4.65882C32.3832 7.23182 34.469 9.31765 37.042 9.31765H37.428C35.756 24.3973 30.2606 71.561 25.734 82.9951C11.186 85.0662 0 97.5738 0 112.694V272.682C0 280.967 6.71573 287.682 15 287.682H84C92.2843 287.682 99 280.967 99 272.682V112.694C99 97.4846 87.6816 84.9187 73.0082 82.9595C68.0084 71.4573 63.0092 24.3305 61.5142 9.29307C63.861 9.05213 65.6916 7.06925 65.6916 4.65882C65.6916 2.08583 63.6058 0 61.0328 0H37.042Z" fill="url(#paint0_linear_18_28)" fill-opacity="0.3"/>
<path d="M37.428 9.31765L40.4098 9.64827L40.7791 6.31765H37.428V9.31765ZM25.734 82.9951L26.1568 85.9652L27.882 85.7196L28.5234 84.0994L25.734 82.9951ZM73.0082 82.9595L70.2569 84.1555L70.9321 85.709L72.6111 85.9332L73.0082 82.9595ZM61.5142 9.29307L61.2078 6.30876L58.2331 6.61417L58.5289 9.58986L61.5142 9.29307ZM35.3832 4.65882C35.3832 3.74268 36.1259 3 37.042 3V-3C32.8121 -3 29.3832 0.428971 29.3832 4.65882H35.3832ZM37.042 6.31765C36.1259 6.31765 35.3832 5.57497 35.3832 4.65882H29.3832C29.3832 8.88868 32.8121 12.3176 37.042 12.3176V6.31765ZM37.428 6.31765H37.042V12.3176H37.428V6.31765ZM28.5234 84.0994C29.7747 80.9386 31.0098 75.5799 32.1841 69.3341C33.3736 63.0068 34.5443 55.519 35.6216 47.946C37.7767 32.7956 39.5725 17.1993 40.4098 9.64827L34.4463 8.98703C33.6115 16.5157 31.8236 32.0411 29.6814 47.101C28.6099 54.633 27.4535 62.0226 26.2874 68.2255C25.1059 74.51 23.9566 79.3345 22.9446 81.8908L28.5234 84.0994ZM3 112.694C3 99.0884 13.0664 87.8287 26.1568 85.9652L25.3112 80.0251C9.30554 82.3036 -3 96.0592 -3 112.694H3ZM3 272.682V112.694H-3V272.682H3ZM15 284.682C8.37258 284.682 3 279.31 3 272.682H-3C-3 282.623 5.05887 290.682 15 290.682V284.682ZM84 284.682H15V290.682H84V284.682ZM96 272.682C96 279.31 90.6274 284.682 84 284.682V290.682C93.9411 290.682 102 282.623 102 272.682H96ZM96 112.694V272.682H102V112.694H96ZM72.6111 85.9332C85.8143 87.696 96 99.008 96 112.694H102C102 95.9613 89.549 82.1414 73.4052 79.9859L72.6111 85.9332ZM58.5289 9.58986C59.2778 17.1219 60.9055 32.705 62.9745 47.8578C64.0086 55.4318 65.1571 62.929 66.3662 69.2729C67.5579 75.5253 68.8571 80.9354 70.2569 84.1555L75.7595 81.7636C74.6593 79.2326 73.4587 74.4385 72.2601 68.1496C71.079 61.9524 69.9468 54.5713 68.9193 47.0461C66.865 32.0006 65.2457 16.5016 64.4995 8.99628L58.5289 9.58986ZM62.6916 4.65882C62.6916 5.51521 62.0402 6.2233 61.2078 6.30876L61.8206 12.2774C65.6818 11.881 68.6916 8.6233 68.6916 4.65882H62.6916ZM61.0328 3C61.9489 3 62.6916 3.74268 62.6916 4.65882H68.6916C68.6916 0.428968 65.2626 -3 61.0328 -3V3ZM37.042 3H61.0328V-3H37.042V3Z" fill="black" mask="url(#path-5-inside-1_18_28)"/>
<defs>
<linearGradient id="paint0_linear_18_28" x1="49.5" y1="0" x2="49.5" y2="287.682" gradientUnits="userSpaceOnUse">
<stop stop-color="#66C80F"/>
<stop offset="0.791667" stop-color="#166107"/>
</linearGradient>
</defs>
</svg>
