<?xml version="1.0" encoding="UTF-8" standalone="no"?>
<!-- Created with Inkscape (http://www.inkscape.org/) -->

<svg
   width="659.96014mm"
   height="400.52933mm"
   viewBox="0 0 659.96014 400.52933"
   version="1.1"
   id="svg1"
   inkscape:version="1.3.2 (091e20e, 2023-11-25)"
   sodipodi:docname="ParchmentRecolorInkscape.svg"
   xmlns:inkscape="http://www.inkscape.org/namespaces/inkscape"
   xmlns:sodipodi="http://sodipodi.sourceforge.net/DTD/sodipodi-0.dtd"
   xmlns:xlink="http://www.w3.org/1999/xlink"
   xmlns="http://www.w3.org/2000/svg"
   xmlns:svg="http://www.w3.org/2000/svg">
  <sodipodi:namedview
     id="namedview1"
     pagecolor="#ffffff"
     bordercolor="#000000"
     borderopacity="0.25"
     inkscape:showpageshadow="2"
     inkscape:pageopacity="0.0"
     inkscape:pagecheckerboard="0"
     inkscape:deskcolor="#d1d1d1"
     inkscape:document-units="mm"
     inkscape:zoom="0.17304819"
     inkscape:cx="1181.7517"
     inkscape:cy="612.54614"
     inkscape:window-width="1366"
     inkscape:window-height="688"
     inkscape:window-x="0"
     inkscape:window-y="0"
     inkscape:window-maximized="1"
     inkscape:current-layer="layer1"
     showgrid="false" />
  <defs
     id="defs1">
    <linearGradient
       id="linearGradient1"
       inkscape:collect="always">
      <stop
         style="stop-color:#a2602c;stop-opacity:1;"
         offset="0"
         id="stop1" />
      <stop
         style="stop-color:#d5975f;stop-opacity:1;"
         offset="1"
         id="stop2" />
    </linearGradient>
    <linearGradient
       inkscape:collect="always"
       xlink:href="#linearGradient1"
       id="linearGradient2"
       x1="24.872906"
       y1="190.72139"
       x2="774.05029"
       y2="191.75789"
       gradientUnits="userSpaceOnUse"
       gradientTransform="matrix(1.3340313,0,0,1.3340313,-160.36102,-47.216945)" />
  </defs>
  <g
     inkscape:label="Layer 1"
     inkscape:groupmode="layer"
     id="layer1"
     transform="translate(0.26435227,0.26450793)">
    <path
       style="fill:url(#linearGradient2);stroke:#000000;stroke-width:1.5875;stroke-dasharray:none;stroke-opacity:1"
       d="m 22.292586,196.46079 c -0.716732,-3.58367 0.404585,-7.57698 0,-11.2182 C 19.893347,163.64935 35.757309,125.02085 35.757309,125.02085 34.489573,123.99999 21.398142,100.13201 20.252918,90.397585 19.191162,81.372667 18.041543,85.964552 17.193399,79.179348 17.15842,78.900018 40.489787,74.353701 39.909144,73.482762 39.375797,72.682728 15.583724,70.86081 15.15372,70.000803 c -0.916696,-1.833405 0.409488,-5.091411 0,-7.138867 -1.461673,-7.308376 -1.01984,-14.900609 -1.01984,-22.436451 0,-4.549432 0.749313,-9.781948 0,-14.27774 C 12.869063,18.55887 29.911054,14.246101 30.359398,8.7592409 L 67.861454,11.824063 105.3635,6.2352677 147.91347,23.001652 180.36757,3.711297 c 11.68888,-6.9477391 27.20193,-0.4118651 40.79354,0 25.15233,0.7621942 21.73745,10.302355 22.18148,27.918082 0.28927,11.475822 13.99521,-25.878405 20.65173,-25.878405 8.1587,0 16.33235,-0.4935607 24.47611,0 6.82033,0.4133555 13.57169,1.7146744 20.39679,2.0396798 1.59627,0.076009 39.87088,10.1696222 40.84479,10.0958872 19.21329,-1.454659 31.598,-7.790368 49.92083,-7.801252 15.97746,-0.0095 35.77935,7.903749 35.94929,7.648789 5.95793,-8.938574 33.87491,-4.172792 44.61795,-4.844233 5.47081,-0.341925 10.85211,-1.619269 16.31743,-2.039678 6.30206,-0.484774 13.09835,0 19.37691,0 h 41.81339 c 4.75927,0 9.64038,1.070164 14.27774,0 2.71959,-1.0198369 4.8983,13.509794 7.61789,12.489955 0.67988,0 1.9138,-15.4161325 2.58051,-15.5494682 4.88881,-0.9777625 9.08576,-4.7967142 14.27772,-5.0991917 h 12.2381 c 5.43889,-0.4944484 10.78935,-1.6340681 16.31741,-1.0198398 5.36877,0.5965269 7.3807,13.0369797 12.71174,13.0369797 1.88044,0 2.84394,-0.347163 5.02672,-1.32385 7.45869,-3.337418 10.42747,-5.885817 9.82545,5.313065 l 3.03121,15.608638 c 0.54919,9.335672 -8.63235,10.490697 -10.19838,19.88685 -0.17673,1.060385 -21.91276,8.78176 -22.25268,9.801577 -0.67988,2.719587 23.25717,9.160606 22.92964,11.944671 -0.17872,1.519284 -17.40155,1.972024 -17.31525,3.506741 0.087,1.534717 26.49508,11.470565 26.32678,12.990971 -1.25212,11.269425 -7.64354,15.239755 -8.66865,26.515805 -1.00163,11.01797 0,22.58048 0,33.65466 0,13.16795 -7.57192,36.52861 -7.57192,36.52861 0.4603,1.81623 9.4455,17.54593 10.63144,24.66171 2.36757,14.20538 0.80232,28.60357 2.03971,42.83323 1.14222,13.13573 5.76476,25.69989 7.13884,38.75387 1.55748,14.79612 -5.21513,24.02248 -6.85079,38.74325 -0.15014,1.35145 3.10124,9.46348 2.77142,10.78264 0.0867,-0.53764 -4.2626,4.33757 1.01984,8.60491 0.25075,0.20256 0,17.89282 0,26.51578 0,0.52527 -29.27332,-14.06722 -29.92709,-13.41348 -1.1371,1.13715 23.21803,20.13818 21.76841,20.55234 -1.76022,0.50295 -3.28693,1.7808 -5.09921,2.03971 -3.97094,0.56725 -21.42707,0.8481 -26.51578,0 l -5.09922,-2.03971 c -5.14086,-1.28521 -15.03898,-2.7023 -20.39677,-3.0595 -12.96932,-0.86463 -34.16048,-1.14834 -46.91255,2.0397 -10.32055,2.58011 -20.80844,-14.16669 -33.77839,-27.71247 -2.17575,-2.27233 -9.27109,35.59522 -13.13419,35.87116 -18.32353,1.30881 -41.22995,-5.09919 -59.66055,-5.09919 -24.07407,0 -51.65841,11.17883 -52.01178,10.19838 -0.47492,-1.31776 -41.72029,-3.17229 -42.74575,-3.47134 l -37.0566,-10.8064 c 0,0 -26.66105,4.8554 -43.08818,6.11903 -2.39672,0.18437 -8.37101,7.17078 -10.19838,5.60912 -4.88926,-4.17835 -24.896,-4.58927 -38.75386,-4.58927 -4.10144,0 -21.23401,-6.15555 -22.43646,-4.84422 -9.78012,10.66556 -25.99518,5.86403 -40.79355,5.86403 -26.35326,0 -79.252855,-8.08785 -78.78253,-8.15869 l -60.935338,9.17855 c -1.8072991,0.27222 -8.1210308,1.05753 -9.17855652,0 C -0.24147691,393.19202 1.6833125,376.63259 1.8958151,374.93253 4.232256,356.241 7.4579648,336.75231 13.114041,318.84141 c 0.965738,-3.05817 31.239009,12.09627 32.502313,9.14854 2.048449,-4.77972 -25.772192,-27.60474 -24.343596,-32.6048 3.482869,-12.19008 10.224325,-23.79348 11.218213,-36.7142 0.739907,-9.61871 -0.849998,-18.0183 -2.039679,-27.53564 -0.168648,-1.34929 0.329803,-2.76018 0,-4.07936 z"
       id="path1"
       sodipodi:nodetypes="cscsssssssccccsssssssssssssccsccsssccscsssssssssscsssssccssssssscssssscsssssssscc" />
  </g>
</svg>
