<?xml version="1.0" encoding="UTF-8" standalone="no"?>
<!-- Created with Inkscape (http://www.inkscape.org/) -->

<svg
   width="400mm"
   height="800mm"
   viewBox="0 0 400 800"
   version="1.1"
   id="svg1"
   sodipodi:docname="Parchment.svg.2024_01_18_15_53_31.1.svg"
   inkscape:version="1.3.2 (091e20e, 2023-11-25, custom)"
   xmlns:inkscape="http://www.inkscape.org/namespaces/inkscape"
   xmlns:sodipodi="http://sodipodi.sourceforge.net/DTD/sodipodi-0.dtd"
   xmlns:xlink="http://www.w3.org/1999/xlink"
   xmlns="http://www.w3.org/2000/svg"
   xmlns:svg="http://www.w3.org/2000/svg">
  <sodipodi:namedview
     id="namedview1"
     pagecolor="#ffffff"
     bordercolor="#000000"
     borderopacity="0.25"
     inkscape:showpageshadow="2"
     inkscape:pageopacity="0.0"
     inkscape:pagecheckerboard="0"
     inkscape:deskcolor="#d1d1d1"
     inkscape:document-units="mm"
     inkscape:zoom="0.34609638"
     inkscape:cx="892.81489"
     inkscape:cy="1180.3071"
     inkscape:window-width="1920"
     inkscape:window-height="991"
     inkscape:window-x="-9"
     inkscape:window-y="-9"
     inkscape:window-maximized="1"
     inkscape:current-layer="layer1" />
  <defs
     id="defs1">
    <linearGradient
       id="linearGradient2"
       inkscape:collect="always">
      <stop
         style="stop-color:#603a00;stop-opacity:1;"
         offset="0"
         id="stop2" />
      <stop
         style="stop-color:#fb8c00;stop-opacity:0;"
         offset="1"
         id="stop3" />
    </linearGradient>
    <linearGradient
       inkscape:collect="always"
       xlink:href="#linearGradient2"
       id="linearGradient3"
       x1="65.111916"
       y1="268.25513"
       x2="659.92279"
       y2="162.75702"
       gradientUnits="userSpaceOnUse" />
  </defs>
  <g
     inkscape:label="Layer 1"
     inkscape:groupmode="layer"
     id="layer1">
    <g
       id="g2"
       inkscape:label="Parchment"
       transform="translate(-21.405405,50.455599)">
      <path
         id="path8"
         style="fill:url(#linearGradient3);fill-opacity:1;stroke:#000000;stroke-width:0.52916667;stroke-dasharray:none;stroke-opacity:1"
         d="m 58.761283,61.554112 c -2.202078,0.51465 -4.337672,1.18165 -6.40691,2.00102 -1.901058,1.11536 -3.701602,2.37197 -5.40151,3.76974 -1.468389,1.66179 -2.807621,3.44415 -4.01759,5.34703 -0.928249,2.11676 -1.706371,4.32504 -2.33411,6.62481 -0.31275,2.448288 -0.46343,4.952138 -0.45185,7.511698 0.34027,2.63122 0.844421,5.27755 1.51248,7.93911 0.989659,2.64964 2.134361,5.2719 3.43406,7.86679 1.593168,2.49787 3.322172,4.92638 5.18708,7.28564 73.619177,88.73352 48.407261,176.16874 109.549677,250.25857 l -24.65591,-0.005 c -1.87758,0.1407 -3.71901,0.40753 -5.52458,0.80049 -1.70291,0.64352 -3.33985,1.40927 -4.91072,2.29735 -1.41094,1.12257 -2.7289,2.35532 -3.9542,3.69842 -1.01632,1.54562 -1.91824,3.18184 -2.7056,4.90845 -0.54177,1.88295 -0.95426,3.83006 -1.23732,5.84141 -0.0154,2.10939 0.10539,4.25138 0.36238,6.42623 0.52981,2.20635 1.19388,4.41071 1.99247,6.61333 1.05887,2.16303 2.24147,4.28875 3.54774,6.37679 1.53653,1.97816 3.17768,3.88449 4.9234,5.71889 1.93012,1.65878 3.93823,3.215 6.02434,4.66866 2.21104,1.22179 4.46764,2.31599 6.76983,3.28271 2.3576,0.69184 4.72436,1.23874 7.10016,1.64062 2.35608,0.10087 4.68312,0.0482 6.98112,-0.15815 l 226.57711,-10e-5 c 2.20208,-0.51465 4.33767,-1.18165 6.40691,-2.00102 1.90106,-1.11536 3.7016,-2.37197 5.40151,-3.76974 1.46839,-1.66179 2.80762,-3.44415 4.01759,-5.34703 0.92825,-2.11676 1.70637,-4.32504 2.33411,-6.62481 0.31275,-2.44829 0.46345,-4.95214 0.45185,-7.5117 -0.34027,-2.63122 -0.84443,-5.27755 -1.51248,-7.93911 -0.98966,-2.64964 -2.13436,-5.2719 -3.43406,-7.86679 -1.59317,-2.49787 -3.32217,-4.92638 -5.18708,-7.28564 C 325.31351,290.10253 350.96701,202.67106 279.96503,113.71441 l 24.74237,-0.045 c 1.87757,-0.1407 3.71902,-0.40753 5.52457,-0.80049 1.70292,-0.64352 3.33986,-1.40927 4.91073,-2.29735 1.41094,-1.12257 2.7289,-2.35532 3.9542,-3.69842 1.01632,-1.54562 1.91825,-3.18184 2.7056,-4.90845 0.54177,-1.88295 0.95426,-3.83006 1.23732,-5.84141 0.0154,-2.10939 -0.10539,-4.25138 -0.36237,-6.42623 -0.52981,-2.20635 -1.19388,-4.41071 -1.99248,-6.61333 -1.05887,-2.16303 -2.24146,-4.288748 -3.54773,-6.376788 -1.53654,-1.97816 -3.17768,-3.88449 -4.9234,-5.71889 -1.93012,-1.65878 -3.93825,-3.215 -6.02434,-4.66866 -2.21105,-1.22179 -4.46765,-2.31599 -6.76984,-3.28271 -2.35759,-0.69184 -4.72436,-1.23874 -7.10015,-1.64062 H 65.7424 c -2.356078,-0.10087 -4.683119,-0.0482 -6.981117,0.15805 z"
         sodipodi:nodetypes="ccccccccccccccccccccccccccccccccccccccccccccccccc"
         inkscape:label="Body" />
      <g
         id="g25"
         inkscape:label="TopLeft"
         transform="translate(9.03546,40.24356)"
         style="fill:none;fill-opacity:1">
        <path
           id="path7"
           style="fill:none;fill-opacity:1;stroke:#000000;stroke-width:0.529167;stroke-dasharray:none;stroke-opacity:1"
           d="M 69.09484,73.425851 H 270.89358" />
        <path
           d="M 75.792162,56.507231 H 55.055639 c 0.65177,0.79466 1.349972,1.56162 2.094471,2.30068 0.827649,0.66869 1.691271,1.29481 2.59076,1.87844 0.958179,0.48557 1.938401,0.91614 2.94088,1.29159 1.030809,0.25493 2.067391,0.44545 3.10981,0.57139 1.036449,-0.01 2.060921,-0.0892 3.07341,-0.23887 0.970389,-0.29168 1.910911,-0.65416 2.82123,-1.08752 0.832858,-0.57209 1.61875,-1.21096 2.357469,-1.9165 0.629179,-0.83126 1.196561,-1.72009 1.70222,-2.66655 0.36975,-1.04939 0.66647,-2.14267 0.88999,-3.28016 0.0694,-1.20895 0.0589,-2.44441 -0.0315,-3.70666 -0.25319,-1.29573 -0.58799,-2.5977 -1.00439,-3.90618 -0.577079,-1.2995 -1.231941,-2.58368 -1.96436,-3.85236 -0.879899,-1.21588 -1.82806,-2.394369 -2.844569,-3.535699 -1.139649,-1.04576 -2.333101,-2.03364 -3.58027,-2.96396 -1.336709,-0.79642 -2.708041,-1.51756 -4.11426,-2.1634 -1.454109,-0.48095 -2.920771,-0.87349 -4.39986,-1.17742 -1.480329,-0.1176 -2.949031,-0.1388 -4.40588,-0.0636 -1.409056,0.27125 -2.781938,0.64076 -4.118647,1.10826 -1.240629,0.66067 -2.421881,1.41476 -3.54375,2.26201 -0.981979,1.02437 -1.884361,2.13075 -2.70714,3.31914 -0.646569,1.33656 -1.19764,2.737969 -1.65342,4.204089 -0.25337,1.57439 -0.4012,3.19117 -0.44365,4.85028 0.17369,1.7185 0.45635,3.45325 0.84785,5.20429 0.607409,1.75539 1.320201,3.49876 2.1381,5.23014 1.019399,1.67847 2.133211,3.31615 3.34148,4.91313 1.381029,1.48784 2.839102,2.90791 4.37393,4.26021 1.666685,1.19196 3.386889,2.29247 5.160767,3.30157 1.854208,0.80629 3.734212,1.50257 5.64012,2.08907 1.927478,0.35286 3.850272,0.58398 5.76841,0.69321 1.877568,-0.1407 3.719011,-0.40753 5.524569,-0.80049 1.702918,-0.64352 3.339862,-1.40927 4.91073,-2.29735 1.410939,-1.12257 2.728901,-2.35532 3.9542,-3.69842 1.016319,-1.54562 1.918241,-3.18184 2.7056,-4.90845 0.541769,-1.88295 0.954257,-3.83006 1.237317,-5.84141 0.0154,-2.10939 -0.10539,-4.25138 -0.36238,-6.42623 -0.529806,-2.20635 -1.193878,-4.41071 -1.992467,-6.61333 -1.058869,-2.16303 -2.241471,-4.288749 -3.54774,-6.376789 -1.536528,-1.97816 -3.177682,-3.88449 -4.9234,-5.71889 -1.930118,-1.65878 -3.938242,-3.215 -6.024339,-4.66866 -2.211038,-1.22179 -4.467642,-2.31599 -6.76984,-3.28271 -2.357588,-0.69184 -7.10015,-1.64062 -7.10015,-1.64062"
           style="fill:none;fill-opacity:1;stroke:#000000;stroke-width:0.529167;stroke-dasharray:none;stroke-opacity:1"
           id="path1-1" />
        <path
           style="fill:none;fill-opacity:1;stroke:#000000;stroke-width:0.529167;stroke-dasharray:none;stroke-opacity:1"
           d="M 58.890378,121.94986 H 78.89894"
           id="path25"
           transform="translate(6.90118,-59.400529)" />
        <path
           style="fill:none;fill-opacity:1;stroke:#000000;stroke-width:0.529167;stroke-dasharray:none;stroke-opacity:1"
           d="M 58.69667,32.054052 H 77.818666"
           id="path4" />
      </g>
      <g
         id="g24"
         inkscape:label="BottomLeft"
         style="fill:none;fill-opacity:1"
         transform="translate(15.97263,-19.11197)">
        <path
           id="path6"
           style="fill:none;fill-opacity:1;stroke:#000000;stroke-width:0.529167;stroke-dasharray:none;stroke-opacity:1"
           d="m 143.85998,379.27049 c 1.03723,1.25688 2.09932,2.50993 3.18716,3.75907 1.86491,2.35926 3.59391,4.78777 5.18708,7.28564 1.2997,2.59489 2.4444,5.21715 3.43406,7.86679 0.66806,2.66156 1.17221,5.30789 1.51248,7.93911 0.0116,2.55956 -0.1391,5.06341 -0.45185,7.5117 -0.62774,2.29977 -1.40586,4.50805 -2.33411,6.62481 -1.20997,1.90288 -2.5492,3.68524 -4.01759,5.34703 -1.69991,1.39777 -3.50045,2.65438 -5.40151,3.76974 -2.06924,0.81937 -4.20483,1.48637 -6.40691,2.00102"
           sodipodi:nodetypes="cccccccccc" />
        <path
           d="m 119.19977,379.2601 c 1.91814,0.10923 3.84093,0.34035 5.76841,0.69321 1.90591,0.5865 3.78591,1.28278 5.64012,2.08907 1.77388,1.0091 3.49408,2.10961 5.16077,3.30157 1.53483,1.3523 2.9929,2.77237 4.37393,4.26021 1.20827,1.59698 2.32208,3.23466 3.34148,4.91313 0.8179,1.73138 1.53069,3.47475 2.1381,5.23014 0.3915,1.75104 0.67416,3.48579 0.84785,5.20429 -0.0425,1.65911 -0.19028,3.27589 -0.44365,4.85028 -0.45578,1.46612 -1.00685,2.86753 -1.65342,4.20409 -0.82278,1.18839 -1.72516,2.29477 -2.70714,3.31914 -1.12187,0.84725 -2.30312,1.60134 -3.54375,2.26201 -1.33671,0.4675 -2.70959,0.83701 -4.11865,1.10826 -1.45685,0.0752 -2.92555,0.0539 -4.40588,-0.0636 -1.47909,-0.30393 -2.94575,-0.69647 -4.39986,-1.17742 -1.40622,-0.64584 -2.77755,-1.36698 -4.11426,-2.1634 -1.24717,-0.93032 -2.44062,-1.9182 -3.58027,-2.96396 -1.01651,-1.14133 -1.96467,-2.31982 -2.84457,-3.5357 -0.73242,-1.26868 -1.38728,-2.55286 -1.96436,-3.85236 -0.4164,-1.30848 -0.7512,-2.61045 -1.00439,-3.90618 -0.0904,-1.26225 -0.1009,-2.49771 -0.0315,-3.70666 0.22352,-1.13749 0.52024,-2.23077 0.88999,-3.28016 0.50566,-0.94646 1.07304,-1.83529 1.70222,-2.66655 0.73872,-0.70554 1.52461,-1.34441 2.35747,-1.9165 0.91032,-0.43336 1.85084,-0.79584 2.82123,-1.08752 1.01249,-0.14967 2.03696,-0.22887 3.07341,-0.23887 1.04242,0.12594 2.079,0.31646 3.10981,0.57139 1.00248,0.37545 1.9827,0.80602 2.94088,1.29159 0.89949,0.58363 1.76311,1.20975 2.59076,1.87844 0.7445,0.73906 1.4427,1.50602 2.09447,2.30068 h 10.99651"
           style="fill:none;fill-opacity:1;stroke:#000000;stroke-width:0.529167;stroke-dasharray:none;stroke-opacity:1"
           id="path1-6"
           sodipodi:nodetypes="ccccccccccccccccccccccccccccccc" />
        <path
           style="fill:none;fill-opacity:1;stroke:#000000;stroke-width:0.529167;stroke-dasharray:none;stroke-opacity:1"
           d="m 122.50305,390.13662 h 18.03819"
           id="path1" />
        <path
           style="fill:none;fill-opacity:1;stroke:#000000;stroke-width:0.529167;stroke-dasharray:none;stroke-opacity:1"
           d="m 140.905,361.29496 h 20.10887"
           id="path26"
           transform="translate(-6.90118,59.40053)" />
      </g>
    </g>
  </g>
</svg>
