<?xml version="1.0" encoding="UTF-8" standalone="no"?>
<!-- Created with Inkscape (http://www.inkscape.org/) -->

<svg
   width="400mm"
   height="800mm"
   viewBox="0 0 400 800"
   version="1.1"
   id="svg1"
   sodipodi:docname="Parchment.svg"
   inkscape:version="1.3.2 (091e20e, 2023-11-25, custom)"
   xmlns:inkscape="http://www.inkscape.org/namespaces/inkscape"
   xmlns:sodipodi="http://sodipodi.sourceforge.net/DTD/sodipodi-0.dtd"
   xmlns="http://www.w3.org/2000/svg"
   xmlns:svg="http://www.w3.org/2000/svg">
  <sodipodi:namedview
     id="namedview1"
     pagecolor="#ffffff"
     bordercolor="#000000"
     borderopacity="0.25"
     inkscape:showpageshadow="2"
     inkscape:pageopacity="0.0"
     inkscape:pagecheckerboard="0"
     inkscape:deskcolor="#d1d1d1"
     inkscape:document-units="mm"
     inkscape:zoom="0.48945419"
     inkscape:cx="814.1722"
     inkscape:cy="1340.2684"
     inkscape:window-width="1920"
     inkscape:window-height="991"
     inkscape:window-x="-9"
     inkscape:window-y="-9"
     inkscape:window-maximized="1"
     inkscape:current-layer="layer1"
     inkscape:rotation="-90" />
  <defs
     id="defs1" />
  <g
     inkscape:label="Layer 1"
     inkscape:groupmode="layer"
     id="layer1">
    <path
       id="path18-5"
       style="fill:none;stroke:#000000;stroke-width:0.79375;stroke-dasharray:none"
       d="m 348.60228,450.27937 -3.82241,8.31218 v 0 l 3.82243,11.976 V 606.23164 H 233.27712 l 10.59141,-16.05435 v 0 l -16.57765,16.05426 -160.781229,9e-5 v 0 0 0 l 6.1e-5,-74.7614 22.934497,-13.15373 -22.934577,-4.66466 -4e-5,-189.83424 8.02688,-0.82515 -8.026891,-1.12774 -4.2e-5,-168.32242 6.467114,2.41136 2.702841,-11.02675 7.297671,2.64794 0.794982,-13.02659 99.601573,-1e-5 -0.22248,1.97898 v 0 l 1.2679,-1.97898 h 1.34927 l 1.13302,2.89119 1.20379,-2.89118 H 299.0963 l 2.47313,7.5198 1.23312,-7.5198 h 45.79975 l -1e-5,74.74065 -28.19031,2.85385 17.77412,8.60038 -7.35811,1.4334 17.77422,4.69951 z"
       sodipodi:nodetypes="ccccccccccccccccccccccccccccccccccccccccc" />
  </g>
</svg>
