<?xml version="1.0" encoding="UTF-8" standalone="no"?>
<!-- Created with Inkscape (http://www.inkscape.org/) -->

<svg
   width="800mm"
   height="400mm"
   viewBox="0 0 800 400"
   version="1.1"
   id="svg1"
   inkscape:version="1.3.2 (091e20e, 2023-11-25, custom)"
   sodipodi:docname="ParchmentOpen.svg"
   xmlns:inkscape="http://www.inkscape.org/namespaces/inkscape"
   xmlns:sodipodi="http://sodipodi.sourceforge.net/DTD/sodipodi-0.dtd"
   xmlns:xlink="http://www.w3.org/1999/xlink"
   xmlns="http://www.w3.org/2000/svg"
   xmlns:svg="http://www.w3.org/2000/svg">
  <sodipodi:namedview
     id="namedview1"
     pagecolor="#ffffff"
     bordercolor="#000000"
     borderopacity="0.25"
     inkscape:showpageshadow="2"
     inkscape:pageopacity="0.0"
     inkscape:pagecheckerboard="0"
     inkscape:deskcolor="#d1d1d1"
     inkscape:document-units="mm"
     inkscape:zoom="0.4894542"
     inkscape:cx="1454.6816"
     inkscape:cy="789.6551"
     inkscape:window-width="1920"
     inkscape:window-height="991"
     inkscape:window-x="-9"
     inkscape:window-y="-9"
     inkscape:window-maximized="1"
     inkscape:current-layer="layer1" />
  <defs
     id="defs1">
    <linearGradient
       id="linearGradient76"
       inkscape:collect="always">
      <stop
         style="stop-color:#ffe487;stop-opacity:1;"
         offset="0"
         id="stop76" />
      <stop
         style="stop-color:#a9530f;stop-opacity:1;"
         offset="1"
         id="stop77" />
    </linearGradient>
    <radialGradient
       inkscape:collect="always"
       xlink:href="#linearGradient76"
       id="radialGradient77"
       cx="376.38312"
       cy="183.2955"
       fx="376.38312"
       fy="183.2955"
       r="247.02527"
       gradientTransform="matrix(1.0568982,-9.697934e-4,6.0658967e-4,0.66107752,-22.435909,63.426973)"
       gradientUnits="userSpaceOnUse" />
  </defs>
  <g
     inkscape:label="Layer 1"
     inkscape:groupmode="layer"
     id="layer1">
    <path
       style="fill:url(#radialGradient77);stroke:#000000;stroke-width:0.529167;stroke-dasharray:none;stroke-opacity:1;fill-opacity:1"
       d="m 142.96548,41.960175 28.11182,2.297414 28.11182,-4.189403 31.89579,12.568209 24.32784,-14.460197 c 8.76207,-5.208078 20.39077,-0.308737 30.57914,0 18.85439,0.571347 16.29456,7.722724 16.62741,20.927607 0.21684,8.602364 10.49092,-19.398649 15.4807,-19.398649 6.11582,0 12.24285,-0.369977 18.34748,0 5.11257,0.309854 10.17344,1.285333 15.28958,1.528959 1.19658,0.05698 29.88752,7.623227 30.61757,7.567954 14.40243,-1.090424 23.6861,-5.839719 37.42104,-5.847878 11.97682,-0.0071 26.82048,5.924711 26.94786,5.733591 4.46611,-6.700423 25.39289,-3.127957 33.44596,-3.631274 4.10096,-0.25631 8.13482,-1.213816 12.23166,-1.528958 4.72408,-0.36339 9.81863,0 14.52509,0 h 31.34363 c 3.56759,0 7.22651,0.802203 10.70271,0 2.03862,-0.764477 3.6718,10.127044 5.71042,9.362565 0.50964,0 1.4346,-11.55605 1.93437,-11.656 3.66469,-0.732938 7.00188,-3.452313 10.70269,-3.822393 12.23166,-1.223166 -0.43683,0.873688 9.17377,0 4.07704,-0.370642 8.08778,-1.22491 12.23166,-0.764479 4.02447,0.447161 5.53263,9.772619 9.52882,9.772619 1.40959,0 2.13184,-0.260236 3.76806,-0.992368 5.5911,-2.501754 7.81651,-4.412054 7.36524,3.982714 1.97747,16.808508 1.40868,-2.980132 2.27222,11.700354 0.41167,6.998091 -6.47088,7.863907 -7.64478,14.907334 -0.13248,0.79487 -16.42597,6.58287 -16.68079,7.34734 -0.50964,2.03862 17.43376,6.86686 17.18824,8.95381 -0.13398,1.13887 -13.04434,1.47825 -12.97964,2.62868 0.0652,1.15044 19.8609,8.598424 19.73475,9.738134 -0.9386,8.44765 -5.72965,11.42383 -6.49808,19.87645 -0.75083,8.25915 0,16.9265 0,25.22779 0,9.8708 -5.67597,27.38212 -5.67597,27.38212 0.34504,1.36146 7.08041,13.15257 7.96941,18.48661 1.77474,10.64846 0.60142,21.44145 1.52897,32.10811 0.85622,9.84665 4.32131,19.26484 5.35133,29.05019 1.1675,11.09129 -3.9093,18.00745 -5.1354,29.04224 -0.11255,1.01307 2.32471,7.0939 2.07748,8.08275 0.0649,-0.40302 -3.19528,3.25148 0.76448,6.45031 0.18796,0.15184 0,13.4126 0,19.87643 0,0.39375 -21.94351,-10.5449 -22.43358,-10.05484 -0.85238,0.85241 17.40441,15.09573 16.31777,15.40619 -1.31948,0.37701 -2.46391,1.3349 -3.82241,1.52898 -2.97664,0.42521 -16.0619,0.63574 -19.87643,0 -6.71073,-1.11848 1.16856,-0.28123 -3.82241,-1.52898 -3.85363,-0.9634 -11.27334,-2.02567 -15.28958,-2.29343 -9.7219,-0.64813 -25.60696,-0.8608 -35.16601,1.52897 -7.73636,1.93408 -15.59816,-10.61945 -25.32053,-20.77347 -1.63096,-1.70336 -6.94969,26.68244 -9.8455,26.88929 -13.73545,0.9811 -30.90627,-3.82239 -44.722,-3.82239 -18.04611,0 -38.72354,8.37973 -38.98842,7.64478 -0.35601,-0.98779 -31.27385,-2.37797 -32.04254,-2.60214 l -27.77792,-8.10056 c 0,0 -19.98532,3.63964 -32.29922,4.58687 -1.7966,0.1382 -6.27498,5.37528 -7.64479,4.20464 -3.66502,-3.13212 -18.66223,-3.44015 -29.05019,-3.44015 -3.07446,0 -15.91717,-4.61425 -16.81854,-3.63127 -7.33125,7.99499 -19.48618,4.39573 -30.57915,4.39573 -19.75461,0 -59.40855,-6.06271 -59.05599,-6.11582 l -45.6776,6.88031 c -1.35476,0.20406 -6.08758,0.79274 -6.88031,0 -0.83765,-0.83765 0.60518,-13.25073 0.76448,-14.5251 1.75141,-14.01132 4.16943,-28.62019 8.40926,-42.04634 0.72393,-2.29243 23.417,9.06746 24.36399,6.85782 1.53553,-3.58291 -19.31904,-20.69272 -18.24815,-24.44082 2.61079,-9.13777 7.66423,-17.83576 8.40926,-27.52124 0.55464,-7.21026 -0.63717,-13.50666 -1.52896,-20.64092 -0.12642,-1.01144 0.24722,-2.06905 0,-3.05792 -7.79889,-31.19558 2.38641,19.57683 -6.11583,-22.93436 -0.53727,-2.68636 0.30328,-5.67977 0,-8.40926 -1.79849,-16.18645 10.09326,-45.14267 10.09326,-45.14267 -0.9503,-0.76524 -10.76374,-18.65686 -11.62221,-25.95386 -0.7959,-6.765144 -1.65766,-3.323034 -2.29344,-8.409274 -0.0262,-0.20939 17.46315,-3.61734 17.0279,-4.27021 -0.3998,-0.59971 -18.23452,-1.96543 -18.55686,-2.6101 -0.68716,-1.37433 0.30696,-3.81656 0,-5.35135 -1.09568,-5.47841 -0.76448,-11.169607 -0.76448,-16.818532 0,-3.410289 0.56169,-7.332623 0,-10.702703 -0.94811,-5.688679 11.82669,-8.921563 12.16278,-13.034556 z"
       id="path1"
       sodipodi:nodetypes="ccccsssssssssssssccsssssscsscsssssssssscsssssssssssssscssssscsssssssscsscsssssssc" />
  </g>
</svg>
