<svg width="2495" height="1514" viewBox="0 0 2495 1514" fill="none" xmlns="http://www.w3.org/2000/svg">
<path id="parchment" d="M85.2555 743.529C82.5466 729.984 86.7846 714.891 85.2555 701.129C76.1875 619.517 136.146 473.52 136.146 473.52C131.354 469.661 81.8749 379.452 77.5465 342.66C73.5335 308.55 69.1885 325.905 65.9829 300.26C65.8507 299.205 154.032 282.022 151.838 278.73C149.822 275.706 59.8991 268.82 58.2739 265.57C54.8092 258.64 59.8216 246.327 58.2739 238.588C52.7495 210.966 54.4194 182.271 54.4194 153.789C54.4194 136.594 57.2515 116.818 54.4194 99.826C49.639 71.1437 114.05 54.8435 115.744 34.1057L257.484 45.6893L399.224 24.5663L560.043 87.9353L682.704 15.0269C726.883 -11.2323 785.515 13.4702 836.885 15.0269C931.948 17.9076 919.042 53.9649 920.72 120.544C921.813 163.917 973.615 22.7359 998.774 22.7359C1029.61 22.7359 1060.5 20.8705 1091.28 22.7359C1117.06 24.2982 1142.58 29.2165 1168.37 30.4449C1174.41 30.7322 1319.07 68.8813 1322.75 68.6026C1395.36 63.1047 1442.17 39.1587 1511.42 39.1175C1571.81 39.0816 1646.65 68.99 1647.29 68.0264C1669.81 34.2428 1775.33 52.2552 1815.93 49.7174C1836.61 48.4251 1856.95 43.5974 1877.6 42.0084C1901.42 40.1762 1927.11 42.0084 1950.84 42.0084H2108.87C2126.86 42.0084 2145.31 46.0531 2162.84 42.0084C2173.11 38.1539 2181.35 93.0691 2191.63 89.2146C2194.2 89.2146 2198.86 30.9489 2201.38 30.4449C2219.86 26.7494 2235.72 12.3156 2255.34 11.1724H2301.6C2322.15 9.30359 2342.38 4.99637 2363.27 7.31786C2383.56 9.57245 2391.17 56.5915 2411.31 56.5915C2418.42 56.5915 2422.06 55.2794 2430.31 51.588C2458.5 38.9741 2469.72 29.3424 2467.45 71.6688L2478.9 130.662C2480.98 165.947 2446.28 170.312 2440.36 205.825C2439.69 209.833 2357.54 239.016 2356.26 242.87C2353.69 253.149 2444.16 277.493 2442.92 288.016C2442.24 293.758 2377.15 295.469 2377.47 301.269C2377.8 307.07 2477.61 344.623 2476.98 350.369C2472.25 392.962 2448.09 407.968 2444.21 450.586C2440.43 492.229 2444.21 535.93 2444.21 577.785C2444.21 627.554 2415.6 715.846 2415.6 715.846C2417.34 722.71 2451.3 782.161 2455.78 809.056C2464.73 862.745 2458.81 917.164 2463.49 970.945C2467.8 1020.59 2485.27 1068.08 2490.47 1117.42C2496.35 1173.34 2470.76 1208.21 2464.58 1263.85C2464.01 1268.96 2476.3 1299.61 2475.05 1304.6C2475.38 1302.57 2458.94 1320.99 2478.9 1337.12C2479.85 1337.89 2478.9 1404.75 2478.9 1437.34C2478.9 1439.33 2368.27 1384.17 2365.79 1386.64C2361.5 1390.94 2453.55 1462.76 2448.07 1464.32C2441.42 1466.22 2435.65 1471.05 2428.8 1472.03C2413.79 1474.17 2347.81 1475.24 2328.58 1472.03L2309.31 1464.32C2289.88 1459.46 2252.47 1454.11 2232.22 1452.76C2183.2 1449.49 2103.11 1448.42 2054.91 1460.47C2015.9 1470.22 1976.26 1406.92 1927.24 1355.73C1919.02 1347.14 1892.2 1490.26 1877.6 1491.3C1808.35 1496.25 1721.77 1472.03 1652.11 1472.03C1561.12 1472.03 1456.87 1514.28 1455.53 1510.58C1453.74 1505.6 1297.85 1498.59 1293.97 1497.46L1153.92 1456.61C1153.92 1456.61 1053.15 1474.96 991.065 1479.74C982.006 1480.44 959.426 1506.84 952.52 1500.94C934.041 1485.15 858.425 1483.59 806.048 1483.59C790.547 1483.59 725.794 1460.33 721.249 1465.29C684.285 1505.6 623 1487.45 567.069 1487.45C467.466 1487.45 267.531 1456.88 269.308 1456.61L39.0014 1491.3C32.1707 1492.33 8.30774 1495.3 4.31079 1491.3C0.0873474 1487.08 7.36214 1424.49 8.1653 1418.07C16.9959 1347.42 29.1876 1273.76 50.5649 1206.07C54.2149 1194.51 168.634 1251.79 173.408 1240.65C181.15 1222.58 76.0016 1136.31 81.401 1117.42C94.5646 1071.34 120.044 1027.49 123.801 978.654C126.597 942.3 120.588 910.553 116.092 874.582C115.454 869.483 117.338 864.15 116.092 859.164L85.2555 743.529Z" fill="url(#paint0_linear_66_4)" stroke="black" stroke-width="6"/>
<defs>
<linearGradient id="paint0_linear_66_4" x1="-479.679" y1="784.161" x2="3297.68" y2="789.387" gradientUnits="userSpaceOnUse">
<stop stop-color="#A5640D"/>
<stop offset="1" stop-color="#DE9C0D"/>
</linearGradient>
</defs>
</svg>
