<?xml version="1.0" encoding="UTF-8"?>
<!-- Created with Inkscape (http://www.inkscape.org/) -->
<svg width="659.96mm" height="400.53mm" version="1.1" viewBox="0 0 659.96 400.53" xmlns="http://www.w3.org/2000/svg" xmlns:xlink="http://www.w3.org/1999/xlink">
 <defs>
  <linearGradient id="linearGradient2" x1="24.873" x2="774.05" y1="190.72" y2="191.76" gradientTransform="matrix(1.334 0 0 1.334 -160.36 -47.217)" gradientUnits="userSpaceOnUse">
   <stop stop-color="#a2602c" offset="0"/>
   <stop stop-color="#d5975f" offset="1"/>
  </linearGradient>
 </defs>
 <g transform="translate(.26435 .26451)">
  <path d="m22.293 196.46c-0.71673-3.5837 0.40458-7.577 0-11.218-2.3992-21.593 13.465-60.222 13.465-60.222-1.2677-1.0209-14.359-24.889-15.504-34.623-1.0618-9.0249-2.2114-4.433-3.0595-11.218-0.034979-0.27933 23.296-4.8256 22.716-5.6966-0.53335-0.80003-24.325-2.622-24.755-3.482-0.9167-1.8334 0.40949-5.0914 0-7.1389-1.4617-7.3084-1.0198-14.901-1.0198-22.436 0-4.5494 0.74931-9.7819 0-14.278-1.2648-7.5889 15.777-11.902 16.226-17.389l37.502 3.0648 37.502-5.5888 42.55 16.766 32.454-19.29c11.689-6.9477 27.202-0.41187 40.794 0 25.152 0.76219 21.737 10.302 22.181 27.918 0.28927 11.476 13.995-25.878 20.652-25.878 8.1587 0 16.332-0.49356 24.476 0 6.8203 0.41336 13.572 1.7147 20.397 2.0397 1.5963 0.076009 39.871 10.17 40.845 10.096 19.213-1.4547 31.598-7.7904 49.921-7.8013 15.977-0.0095 35.779 7.9037 35.949 7.6488 5.9579-8.9386 33.875-4.1728 44.618-4.8442 5.4708-0.34192 10.852-1.6193 16.317-2.0397 6.3021-0.48477 13.098 0 19.377 0h41.813c4.7593 0 9.6404 1.0702 14.278 0 2.7196-1.0198 4.8983 13.51 7.6179 12.49 0.67988 0 1.9138-15.416 2.5805-15.549 4.8888-0.97776 9.0858-4.7967 14.278-5.0992h12.238c5.4389-0.49445 10.789-1.6341 16.317-1.0198 5.3688 0.59653 7.3807 13.037 12.712 13.037 1.8804 0 2.8439-0.34716 5.0267-1.3238 7.4587-3.3374 10.427-5.8858 9.8254 5.3131l3.0312 15.609c0.54919 9.3357-8.6324 10.491-10.198 19.887-0.17673 1.0604-21.913 8.7818-22.253 9.8016-0.67988 2.7196 23.257 9.1606 22.93 11.945-0.17872 1.5193-17.402 1.972-17.315 3.5067 0.087 1.5347 26.495 11.471 26.327 12.991-1.2521 11.269-7.6435 15.24-8.6686 26.516-1.0016 11.018 0 22.58 0 33.655 0 13.168-7.5719 36.529-7.5719 36.529 0.4603 1.8162 9.4455 17.546 10.631 24.662 2.3676 14.205 0.80232 28.604 2.0397 42.833 1.1422 13.136 5.7648 25.7 7.1388 38.754 1.5575 14.796-5.2151 24.022-6.8508 38.743-0.15014 1.3514 3.1012 9.4635 2.7714 10.783 0.0867-0.53764-4.2626 4.3376 1.0198 8.6049 0.25075 0.20256 0 17.893 0 26.516 0 0.52527-29.273-14.067-29.927-13.413-1.1371 1.1372 23.218 20.138 21.768 20.552-1.7602 0.50295-3.2869 1.7808-5.0992 2.0397-3.9709 0.56725-21.427 0.8481-26.516 0l-5.0992-2.0397c-5.1409-1.2852-15.039-2.7023-20.397-3.0595-12.969-0.86463-34.16-1.1483-46.913 2.0397-10.321 2.5801-20.808-14.167-33.778-27.712-2.1758-2.2723-9.2711 35.595-13.134 35.871-18.324 1.3088-41.23-5.0992-59.661-5.0992-24.074 0-51.658 11.179-52.012 10.198-0.47492-1.3178-41.72-3.1723-42.746-3.4713l-37.057-10.806s-26.661 4.8554-43.088 6.119c-2.3967 0.18437-8.371 7.1708-10.198 5.6091-4.8893-4.1784-24.896-4.5893-38.754-4.5893-4.1014 0-21.234-6.1556-22.436-4.8442-9.7801 10.666-25.995 5.864-40.794 5.864-26.353 0-79.253-8.0878-78.783-8.1587l-60.935 9.1786c-1.8073 0.27222-8.121 1.0575-9.1786 0-1.1175-1.1175 0.80734-17.677 1.0198-19.377 2.3364-18.692 5.5621-38.18 11.218-56.091 0.96574-3.0582 31.239 12.096 32.502 9.1485 2.0484-4.7797-25.772-27.605-24.344-32.605 3.4829-12.19 10.224-23.793 11.218-36.714 0.73991-9.6187-0.85-18.018-2.0397-27.536-0.16865-1.3493 0.3298-2.7602 0-4.0794z" fill="url(#linearGradient2)" stroke="#000" stroke-width="1.5875"/>
 </g>
</svg>
