<svg width="465" height="465" viewBox="0 0 465 465" fill="none" xmlns="http://www.w3.org/2000/svg">
<g id="layer1">
<g id="g13">
<path id="path12" d="M232.738 1.50781C171.508 1.50788 112.786 25.8316 69.4892 69.1279C26.1929 112.424 1.86921 171.147 1.86914 232.377C1.8692 293.607 26.1929 352.33 69.4892 395.626C112.786 438.922 171.508 463.246 232.738 463.246C293.969 463.246 352.691 438.922 395.987 395.626C439.284 352.33 463.607 293.607 463.607 232.377C463.607 171.147 439.284 112.424 395.987 69.1279C352.691 25.8315 293.969 1.50788 232.738 1.50781ZM232.738 10.9238C261.82 10.9237 290.617 16.6516 317.485 27.7807C344.353 38.9097 368.766 55.2218 389.33 75.7856C409.894 96.3495 426.206 120.762 437.335 147.63C448.464 174.498 454.192 203.295 454.191 232.377C454.191 261.458 448.463 290.255 437.334 317.123C426.205 343.991 409.893 368.403 389.329 388.967C368.765 409.531 344.352 425.843 317.484 436.971C290.617 448.1 261.82 453.828 232.738 453.828C174.006 453.828 117.679 430.496 76.1489 388.966C34.6188 347.436 11.2873 291.109 11.2871 232.377C11.287 203.295 17.0149 174.499 28.1438 147.631C39.2726 120.763 55.5846 96.3501 76.1482 75.7863C96.7119 55.2225 121.124 38.9104 147.992 27.7812C174.86 16.6521 203.657 10.924 232.738 10.9238Z" stroke="black" stroke-width="1.99937"/>
<path id="path1" d="M384.967 265.158C384.967 265.841 384.898 266.319 384.762 266.593C376.02 303.198 357.717 332.872 329.853 355.614C301.989 378.357 269.344 389.728 231.918 389.728C211.976 389.728 192.683 385.971 174.039 378.459C155.394 370.947 138.765 360.224 124.15 346.292L97.7198 372.722C95.1246 375.317 92.0513 376.615 88.5 376.615C84.9487 376.615 81.8754 375.317 79.2802 372.722C76.6851 370.127 75.3875 367.054 75.3875 363.502V271.715C75.3875 268.163 76.6851 265.09 79.2802 262.495C81.8754 259.9 84.9487 258.602 88.5 258.602H180.288C183.839 258.602 186.912 259.9 189.508 262.495C192.103 265.09 193.4 268.163 193.4 271.715C193.4 275.266 192.103 278.339 189.508 280.934L161.439 309.003C171.136 318.018 182.132 324.984 194.425 329.902C206.718 334.819 219.489 337.277 232.738 337.277C251.041 337.277 268.115 332.838 283.959 323.96C299.803 315.082 312.506 302.857 322.067 287.286C323.57 284.964 327.189 276.973 332.926 263.314C334.019 260.173 336.068 258.602 339.073 258.602H378.41C380.186 258.602 381.722 259.251 383.02 260.548C384.318 261.846 384.967 263.383 384.967 265.158ZM390.089 101.251V193.039C390.089 196.591 388.791 199.664 386.196 202.259C383.601 204.854 380.527 206.152 376.976 206.152H285.188C281.637 206.152 278.564 204.854 275.969 202.259C273.373 199.664 272.076 196.591 272.076 193.039C272.076 189.488 273.373 186.415 275.969 183.82L304.242 155.546C284.027 136.833 260.193 127.477 232.738 127.477C214.435 127.477 197.362 131.916 181.517 140.794C165.673 149.672 152.97 161.897 143.409 177.468C141.907 179.79 138.287 187.781 132.55 201.439C131.457 204.581 129.409 206.152 126.404 206.152H85.6319C83.8563 206.152 82.3196 205.503 81.0221 204.205C79.7245 202.908 79.0757 201.371 79.0757 199.596V198.161C87.9539 161.555 106.393 131.882 134.394 109.139C162.395 86.3974 195.176 75.0264 232.738 75.0264C252.68 75.0264 272.076 78.8167 290.925 86.3974C309.775 93.9781 326.507 104.666 341.122 118.462L367.757 92.0317C370.352 89.4365 373.425 88.1389 376.976 88.1389C380.528 88.1389 383.601 89.4365 386.196 92.0317C388.791 94.6269 390.089 97.7001 390.089 101.251Z" stroke="black" stroke-width="1.89412"/>
</g>
</g>
</svg>
