<?xml version="1.0" encoding="UTF-8" standalone="no"?>
<!-- Created with Inkscape (http://www.inkscape.org/) -->

<svg
   width="210mm"
   height="297mm"
   viewBox="0 0 210 297"
   version="1.1"
   id="svg1"
   xml:space="preserve"
   inkscape:version="1.3.2 (091e20e, 2023-11-25, custom)"
   sodipodi:docname="refresh.svg"
   xmlns:inkscape="http://www.inkscape.org/namespaces/inkscape"
   xmlns:sodipodi="http://sodipodi.sourceforge.net/DTD/sodipodi-0.dtd"
   xmlns="http://www.w3.org/2000/svg"
   xmlns:svg="http://www.w3.org/2000/svg"><sodipodi:namedview
     id="namedview1"
     pagecolor="#ffffff"
     bordercolor="#000000"
     borderopacity="0.25"
     inkscape:showpageshadow="2"
     inkscape:pageopacity="0.0"
     inkscape:pagecheckerboard="0"
     inkscape:deskcolor="#d1d1d1"
     inkscape:document-units="mm"
     showguides="true"
     inkscape:zoom="0.69219276"
     inkscape:cx="515.75229"
     inkscape:cy="611.82379"
     inkscape:window-width="1920"
     inkscape:window-height="991"
     inkscape:window-x="-9"
     inkscape:window-y="-9"
     inkscape:window-maximized="1"
     inkscape:current-layer="layer1" /><defs
     id="defs1"><inkscape:path-effect
       effect="fillet_chamfer"
       id="path-effect12"
       is_visible="true"
       lpeversion="1"
       nodesatellites_param=""
       radius="0"
       unit="px"
       method="auto"
       mode="F"
       chamfer_steps="1"
       flexible="false"
       use_knot_distance="true"
       apply_no_radius="true"
       apply_with_radius="true"
       only_selected="false"
       hide_knots="false" /><inkscape:path-effect
       effect="fillet_chamfer"
       id="path-effect11"
       is_visible="true"
       lpeversion="1"
       nodesatellites_param=""
       radius="0"
       unit="px"
       method="auto"
       mode="F"
       chamfer_steps="1"
       flexible="false"
       use_knot_distance="true"
       apply_no_radius="true"
       apply_with_radius="true"
       only_selected="false"
       hide_knots="false" /><inkscape:perspective
       sodipodi:type="inkscape:persp3d"
       inkscape:vp_x="171.89189 : 204.61109 : 1"
       inkscape:vp_y="0 : -1000 : 0"
       inkscape:vp_z="-38.108108 : 204.61109 : 1"
       inkscape:persp3d-origin="66.891887 : 254.11109 : 1"
       id="perspective6" /><inkscape:path-effect
       effect="fillet_chamfer"
       id="path-effect1"
       is_visible="true"
       lpeversion="1"
       nodesatellites_param="F,0,0,1,0,0,0,1 @ F,0,0,1,0,0,0,1 @ F,0,0,1,0,0,0,1 @ F,0,0,1,0,0,0,1"
       radius="0"
       unit="px"
       method="auto"
       mode="F"
       chamfer_steps="1"
       flexible="false"
       use_knot_distance="true"
       apply_no_radius="true"
       apply_with_radius="true"
       only_selected="false"
       hide_knots="false" /></defs><g
     inkscape:label="Layer 1"
     inkscape:groupmode="layer"
     id="layer1"><g
       id="g13"
       inkscape:label="Refresh"
       style="fill:none;fill-opacity:1"><path
         id="path12"
         style="fill:none;stroke:#000000;stroke-width:0.529;fill-opacity:1"
         d="M 122.16825 81.626025 A 61.084194 61.084194 0 0 0 61.084127 142.71015 A 61.084194 61.084194 0 0 0 122.16825 203.79428 A 61.084194 61.084194 0 0 0 183.25238 142.71015 A 61.084194 61.084194 0 0 0 122.16825 81.626025 z M 122.16825 84.117346 A 58.59251 58.59251 0 0 1 180.76106 142.71015 A 58.59251 58.59251 0 0 1 122.16825 201.30244 A 58.59251 58.59251 0 0 1 63.575964 142.71015 A 58.59251 58.59251 0 0 1 122.16825 84.117346 z " /><path
         fill="currentColor"
         d="m 162.44542,151.38354 q 0,0.27105 -0.0543,0.37947 -3.46936,14.52796 -14.52794,23.55371 -11.05861,9.02577 -25.91181,9.02577 -7.91447,0 -15.31398,-2.98148 -7.39949,-2.98149 -13.199828,-8.51079 l -6.992932,6.99294 q -1.029967,1.02997 -2.439396,1.02997 -1.409428,0 -2.439395,-1.02997 -1.029967,-1.02997 -1.029967,-2.43939 v -24.28554 q 0,-1.40943 1.029967,-2.4394 1.029967,-1.02996 2.439395,-1.02996 h 24.285526 q 1.40943,0 2.43939,1.02996 1.02998,1.02997 1.02998,2.4394 0,1.40943 -1.02998,2.43939 l -7.4266,7.4266 q 3.84882,3.57779 8.72762,5.5293 4.87879,1.95152 10.13704,1.95152 7.26397,0 13.55219,-3.52357 6.28822,-3.52357 10.08284,-9.70337 0.5963,-0.92155 2.87307,-6.34244 0.43366,-1.24679 1.62626,-1.24679 h 10.40809 q 0.7047,0 1.21969,0.51498 0.51499,0.51498 0.51499,1.21969 m 1.35521,-43.36701 v 24.28553 q 0,1.40943 -1.02996,2.43939 -1.02997,1.02997 -2.4394,1.02997 h -24.28552 q -1.40944,0 -2.4394,-1.02997 -1.02997,-1.02996 -1.02997,-2.43939 0,-1.40944 1.02997,-2.43939 l 7.48081,-7.48082 q -8.02285,-7.4266 -18.91882,-7.4266 -7.26397,0 -13.55219,3.52357 -6.28821,3.52357 -10.082831,9.70338 -0.596298,0.92154 -2.873066,6.34242 -0.433671,1.2468 -1.626264,1.2468 H 83.246393 q -0.704715,0 -1.219698,-0.51498 -0.514983,-0.51499 -0.514983,-1.2197 v -0.37947 q 3.52357,-14.52795 14.636372,-23.55371 11.112786,-9.02575 26.020206,-9.02575 7.91449,0 15.3953,3.00858 7.48081,3.00859 13.28114,8.48367 l 7.04715,-6.99293 q 1.02997,-1.02997 2.4394,-1.02997 1.40942,0 2.43939,1.02997 1.02996,1.02997 1.02996,2.4394"
         id="path1"
         style="fill:none;fill-opacity:1;stroke:#000000;stroke-width:0.501153;stroke-dasharray:none;stroke-opacity:1" /></g></g></svg>
