<?xml version="1.0" encoding="UTF-8" standalone="no"?>
<svg
   width="56"
   height="56"
   viewBox="0 0 56 56"
   fill="none"
   version="1.1"
   id="svg1"
   sodipodi:docname="RefreshMozilla.svg"
   inkscape:version="1.3.2 (091e20e, 2023-11-25)"
   xmlns:inkscape="http://www.inkscape.org/namespaces/inkscape"
   xmlns:sodipodi="http://sodipodi.sourceforge.net/DTD/sodipodi-0.dtd"
   xmlns="http://www.w3.org/2000/svg"
   xmlns:svg="http://www.w3.org/2000/svg">
  <sodipodi:namedview
     id="namedview1"
     pagecolor="#ffffff"
     bordercolor="#000000"
     borderopacity="0.25"
     inkscape:showpageshadow="2"
     inkscape:pageopacity="0.0"
     inkscape:pagecheckerboard="0"
     inkscape:deskcolor="#d1d1d1"
     inkscape:zoom="6.1619305"
     inkscape:cx="33.512225"
     inkscape:cy="30.185345"
     inkscape:window-width="1366"
     inkscape:window-height="688"
     inkscape:window-x="0"
     inkscape:window-y="0"
     inkscape:window-maximized="1"
     inkscape:current-layer="refresh 2" />
  <g
     id="refresh 2"
     clip-path="url(#clip0_65_2)">
    <path
       id="Vector"
       d="M55.0885 33.8333C55.0885 33.9549 55.0764 34.0399 55.0521 34.0885C53.4965 40.6024 50.2396 45.8828 45.2812 49.9297C40.3229 53.9766 34.5139 56 27.8542 56C24.3056 56 20.8724 55.3316 17.5547 53.9948C14.237 52.658 11.2778 50.75 8.67708 48.2708L3.97396 52.974C3.51215 53.4358 2.96528 53.6667 2.33333 53.6667C1.70139 53.6667 1.15451 53.4358 0.692708 52.974C0.230903 52.5122 0 51.9653 0 51.3333V35C0 34.3681 0.230903 33.8212 0.692708 33.3594C1.15451 32.8976 1.70139 32.6667 2.33333 32.6667H18.6667C19.2986 32.6667 19.8455 32.8976 20.3073 33.3594C20.7691 33.8212 21 34.3681 21 35C21 35.6319 20.7691 36.1788 20.3073 36.6406L15.3125 41.6354C17.0382 43.2396 18.9948 44.4792 21.1823 45.3542C23.3698 46.2292 25.6424 46.6667 28 46.6667C31.2569 46.6667 34.2951 45.8767 37.1146 44.2969C39.934 42.717 42.1944 40.5417 43.8958 37.7708C44.1632 37.3576 44.8073 35.9358 45.8281 33.5052C46.0226 32.9462 46.3872 32.6667 46.9219 32.6667H53.9219C54.2378 32.6667 54.5113 32.7821 54.7422 33.013C54.9731 33.2439 55.0885 33.5174 55.0885 33.8333ZM56 4.66667V21C56 21.6319 55.7691 22.1788 55.3073 22.6406C54.8455 23.1024 54.2986 23.3333 53.6667 23.3333H37.3333C36.7014 23.3333 36.1545 23.1024 35.6927 22.6406C35.2309 22.1788 35 21.6319 35 21C35 20.3681 35.2309 19.8212 35.6927 19.3594L40.724 14.3281C37.1267 10.9983 32.8854 9.33333 28 9.33333C24.7431 9.33333 21.7049 10.1233 18.8854 11.7031C16.066 13.283 13.8056 15.4583 12.1042 18.2292C11.8368 18.6424 11.1927 20.0642 10.1719 22.4948C9.97743 23.0538 9.61285 23.3333 9.07812 23.3333H1.82292C1.50694 23.3333 1.23351 23.2179 1.0026 22.987C0.771701 22.7561 0.65625 22.4826 0.65625 22.1667V21.9115C2.23611 15.3976 5.51736 10.1172 10.5 6.07031C15.4826 2.02344 21.316 0 28 0C31.5486 0 35 0.674479 38.3542 2.02344C41.7083 3.3724 44.6858 5.27431 47.2865 7.72917L52.026 3.02604C52.4878 2.56424 53.0347 2.33333 53.6667 2.33333C54.2986 2.33333 54.8455 2.56424 55.3073 3.02604C55.7691 3.48785 56 4.03472 56 4.66667Z"
       fill="#174D50" />
    <circle
       style="fill:#000000;fill-opacity:0;stroke:none;stroke-width:0.199597;stroke-dasharray:none;stroke-opacity:1"
       id="path2"
       cx="28"
       cy="27.95661"
       r="27.943592" />
  </g>
  <defs
     id="defs1">
    <clipPath
       id="clip0_65_2">
      <rect
         width="56"
         height="56"
         fill="white"
         id="rect1" />
    </clipPath>
  </defs>
</svg>
