<svg width="1202" height="608" viewBox="0 0 1202 608" fill="none" xmlns="http://www.w3.org/2000/svg">
<g id="Sea">
<g id="UpperWave">
<g id="MessageInaBottle">
<g id="Message">
<path id="Polygon 2" d="M803.118 178.812L840.449 176.623L836.646 249.569L836.638 249.735L836.666 249.9L849.126 322.826C843.819 328.497 838.419 331.455 832.489 331.857C826.507 332.262 819.709 330.085 811.596 324.898L815.441 251.144L815.449 250.978L815.421 250.813L803.118 178.812Z" fill="#CA9C67" stroke="#5C2806" stroke-width="3"/>
<path id="Rectangle 3" d="M814.785 249.38C815.423 249.348 816.209 249.309 817.102 249.267C819.55 249.152 822.805 249.01 826.037 248.907C829.275 248.803 832.469 248.738 834.803 248.773C835.61 248.785 836.291 248.809 836.825 248.845C836.825 248.866 836.825 248.887 836.825 248.908C836.821 249.472 836.89 250.047 836.973 250.54L815.036 251.44L815.002 250.474L814.997 250.337L814.967 250.202L814.785 249.38Z" fill="#FE0707" stroke="#FF0303" stroke-width="3"/>
<g id="Group 2">
<path id="Ellipse 2" d="M840.82 175.014C840.822 175.049 840.805 175.424 839.93 176.087C839.108 176.709 837.804 177.361 836.048 177.971C832.555 179.184 827.599 180.118 822.023 180.445C816.446 180.772 811.416 180.424 807.805 179.627C805.989 179.227 804.619 178.732 803.73 178.21C802.783 177.654 802.722 177.283 802.72 177.248C802.718 177.213 802.735 176.838 803.61 176.175C804.432 175.553 805.735 174.901 807.492 174.291C810.985 173.078 815.94 172.144 821.517 171.817C827.093 171.49 832.124 171.838 835.735 172.635C837.551 173.035 838.921 173.53 839.81 174.052C840.757 174.608 840.818 174.979 840.82 175.014Z" fill="#D1B798" stroke="#5C2806" stroke-width="3"/>
<path id="Vector" d="M820.183 177.822C819.611 177.865 819.033 177.9 818.447 177.926C817.857 177.936 817.27 177.936 816.686 177.928C816.118 177.901 815.563 177.865 815.022 177.819C814.517 177.755 814.036 177.681 813.578 177.599C813.177 177.499 812.808 177.392 812.471 177.276C812.208 177.145 811.985 177.008 811.801 176.864C811.703 176.71 811.651 176.551 811.643 176.388C811.728 176.219 811.86 176.047 812.039 175.875C812.312 175.701 812.631 175.529 812.997 175.358C813.451 175.192 813.947 175.03 814.485 174.872C815.1 174.725 815.75 174.585 816.433 174.452C817.177 174.336 817.944 174.229 818.736 174.131C819.564 174.054 820.404 173.989 821.256 173.935C822.118 173.905 822.978 173.888 823.836 173.884C824.676 173.906 825.5 173.941 826.307 173.99C827.067 174.064 827.797 174.152 828.496 174.252C829.122 174.377 829.705 174.514 830.245 174.662C830.688 174.832 831.077 175.011 831.414 175.2C831.636 175.404 831.798 175.616 831.899 175.834C831.875 176.063 831.787 176.294 831.636 176.529C831.356 176.767 831.014 177.004 830.608 177.24C830.08 177.472 829.494 177.699 828.85 177.922C828.098 178.132 827.297 178.334 826.446 178.527C825.51 178.701 824.537 178.863 823.528 179.014C822.461 179.138 821.373 179.249 820.264 179.344C819.132 179.409 817.996 179.458 816.858 179.491C815.731 179.49 814.62 179.471 813.525 179.436C812.479 179.366 811.466 179.279 810.487 179.176C809.593 179.039 808.749 178.887 807.955 178.719C807.277 178.522 806.663 178.312 806.114 178.089C805.704 177.843 805.369 177.586 805.108 177.32C805.003 177.038 804.979 176.75 805.035 176.457C805.253 176.157 805.551 175.855 805.931 175.553C806.469 175.253 807.083 174.957 807.773 174.665C808.607 174.386 809.508 174.115 810.474 173.852C811.56 173.612 812.697 173.384 813.887 173.17C815.162 172.985 816.471 172.817 817.813 172.666C819.202 172.551 820.603 172.456 822.016 172.379C823.431 172.344 824.836 172.33 826.231 172.336C827.582 172.385 828.9 172.455 830.186 172.546C831.383 172.679 832.526 172.831 833.615 173.004C834.577 173.214 835.466 173.442 836.282 173.688C836.939 173.965 837.508 174.255 837.991 174.56C838.29 174.888 838.494 175.224 838.602 175.57C838.515 175.928 838.329 176.291 838.044 176.656C837.564 177.024 836.989 177.389 836.319 177.751C835.466 178.104 834.528 178.448 833.504 178.785C832.323 179.099 831.073 179.4 829.751 179.688C828.309 179.943 826.817 180.18 825.276 180.399C823.658 180.577 822.015 180.733 820.346 180.867" stroke="#351703"/>
</g>
</g>
<g id="Union">
<mask id="path-5-inside-1_31_17" fill="white">
<path fill-rule="evenodd" clip-rule="evenodd" d="M866.561 76.7355C869.026 77.1398 870.697 79.4659 870.292 81.9308C869.888 84.3958 867.562 86.0663 865.097 85.662L864.727 85.6014C863.956 100.371 861.796 146.735 864.385 158.165C877.962 162.833 886.601 176.738 884.199 191.383L859.272 343.359C857.931 351.534 850.217 357.074 842.042 355.734L776.802 345.033C768.627 343.692 763.087 335.978 764.428 327.803L789.355 175.827C791.771 161.097 804.532 150.644 818.993 150.678C825.572 140.671 837.846 96.0191 841.656 81.7931C839.446 81.1935 838.003 79.0063 838.382 76.697C838.787 74.232 841.113 72.5615 843.578 72.9658L866.561 76.7355Z"/>
</mask>
<path fill-rule="evenodd" clip-rule="evenodd" d="M866.561 76.7355C869.026 77.1398 870.697 79.4659 870.292 81.9308C869.888 84.3958 867.562 86.0663 865.097 85.662L864.727 85.6014C863.956 100.371 861.796 146.735 864.385 158.165C877.962 162.833 886.601 176.738 884.199 191.383L859.272 343.359C857.931 351.534 850.217 357.074 842.042 355.734L776.802 345.033C768.627 343.692 763.087 335.978 764.428 327.803L789.355 175.827C791.771 161.097 804.532 150.644 818.993 150.678C825.572 140.671 837.846 96.0191 841.656 81.7931C839.446 81.1935 838.003 79.0063 838.382 76.697C838.787 74.232 841.113 72.5615 843.578 72.9658L866.561 76.7355Z" fill="url(#paint0_linear_31_17)" fill-opacity="0.3"/>
<path d="M865.097 85.662L865.583 82.7016L865.097 85.662ZM864.727 85.6014L861.731 85.445L861.906 82.0986L865.213 82.6409L864.727 85.6014ZM864.385 158.165L863.409 161.002L861.828 160.458L861.459 158.828L864.385 158.165ZM842.042 355.734L842.527 352.773L842.042 355.734ZM776.802 345.033L776.317 347.994L776.802 345.033ZM818.993 150.678L821.5 152.326L820.608 153.682L818.986 153.678L818.993 150.678ZM841.656 81.7931L842.441 78.8978L845.327 79.6806L844.554 82.5692L841.656 81.7931ZM843.578 72.9658L843.092 75.9263L843.578 72.9658ZM867.332 81.4453C867.468 80.6153 866.906 79.8321 866.076 79.696L867.047 73.7751C871.147 74.4476 873.925 78.3164 873.253 82.4164L867.332 81.4453ZM865.583 82.7016C866.413 82.8377 867.196 82.2753 867.332 81.4453L873.253 82.4164C872.58 86.5164 868.711 89.295 864.611 88.6225L865.583 82.7016ZM865.213 82.6409L865.583 82.7016L864.611 88.6225L864.242 88.5618L865.213 82.6409ZM861.459 158.828C860.737 155.639 860.387 150.314 860.238 144.154C860.087 137.905 860.14 130.526 860.297 123.073C860.611 108.16 861.345 92.841 861.731 85.445L867.723 85.7577C867.338 93.1313 866.607 108.379 866.295 123.199C866.139 130.611 866.089 137.889 866.237 144.009C866.387 150.219 866.738 154.976 867.311 157.502L861.459 158.828ZM881.238 190.897C883.399 177.72 875.626 165.203 863.409 161.002L865.36 155.328C880.297 160.464 889.802 175.757 887.159 191.869L881.238 190.897ZM856.311 342.874L881.238 190.897L887.159 191.869L862.232 343.845L856.311 342.874ZM842.527 352.773C849.067 353.846 855.239 349.414 856.311 342.874L862.232 343.845C860.623 353.655 851.366 360.303 841.556 358.694L842.527 352.773ZM777.288 342.073L842.527 352.773L841.556 358.694L776.317 347.994L777.288 342.073ZM767.388 328.289C766.316 334.829 770.748 341 777.288 342.073L776.317 347.994C766.507 346.385 759.858 337.128 761.467 327.318L767.388 328.289ZM792.315 176.313L767.388 328.289L761.467 327.318L786.394 175.341L792.315 176.313ZM818.986 153.678C805.974 153.648 794.489 163.058 792.315 176.313L786.394 175.341C789.052 159.136 803.091 147.641 819 147.678L818.986 153.678ZM844.554 82.5692C842.646 89.6951 838.614 104.456 834.23 118.7C832.039 125.82 829.752 132.841 827.59 138.727C825.463 144.521 823.359 149.498 821.5 152.326L816.486 149.03C817.916 146.855 819.814 142.497 821.958 136.659C824.067 130.915 826.319 124.008 828.496 116.935C832.847 102.795 836.857 88.1171 838.758 81.0171L844.554 82.5692ZM841.343 77.1826C841.215 77.9583 841.7 78.6967 842.441 78.8978L840.871 84.6885C837.191 83.6903 834.791 80.0542 835.422 76.2115L841.343 77.1826ZM843.092 75.9263C842.262 75.7901 841.479 76.3526 841.343 77.1826L835.422 76.2115C836.094 72.1115 839.963 69.3329 844.063 70.0054L843.092 75.9263ZM866.076 79.696L843.092 75.9263L844.063 70.0054L867.047 73.7751L866.076 79.696Z" fill="black" mask="url(#path-5-inside-1_31_17)"/>
</g>
</g>
<g id="MessageInaBottle_2">
<g id="Message_2">
<path id="Polygon 2_2" d="M175.991 118.58L211.483 106.804L226.689 178.249L226.723 178.412L226.793 178.563L257.703 245.781C254.045 252.631 249.594 256.887 243.97 258.809C238.297 260.749 231.167 260.405 221.987 257.495L206.613 185.259L206.579 185.096L206.509 184.944L175.991 118.58Z" fill="#CA9C67" stroke="#5C2806" stroke-width="3"/>
<path id="Rectangle 3_2" d="M205.524 183.725C206.131 183.529 206.88 183.288 207.733 183.016C210.067 182.271 213.175 181.292 216.27 180.355C219.371 179.417 222.439 178.528 224.702 177.958C225.485 177.76 226.149 177.607 226.675 177.503C226.68 177.524 226.685 177.544 226.69 177.564C226.832 178.11 227.048 178.648 227.256 179.103L206.299 185.649L206.016 184.725L205.976 184.593L205.913 184.471L205.524 183.725Z" fill="#FE0707" stroke="#FF0303" stroke-width="3"/>
<g id="Group 2_2">
<path id="Ellipse 2_2" d="M211.425 105.154C211.436 105.188 211.517 105.554 210.843 106.421C210.21 107.235 209.12 108.202 207.581 109.246C204.521 111.321 199.976 113.506 194.674 115.265C189.372 117.024 184.423 117.989 180.729 118.155C178.871 118.238 177.419 118.114 176.425 117.84C175.367 117.548 175.213 117.206 175.202 117.173C175.191 117.139 175.11 116.772 175.784 115.906C176.417 115.092 177.507 114.125 179.045 113.081C182.105 111.006 186.651 108.821 191.952 107.062C197.254 105.303 202.204 104.337 205.898 104.172C207.755 104.089 209.207 104.212 210.201 104.487C211.259 104.778 211.414 105.121 211.425 105.154Z" fill="#D1B798" stroke="#5C2806" stroke-width="3"/>
<path id="Vector_2" d="M192.218 113.208C191.677 113.397 191.127 113.58 190.569 113.758C190.001 113.919 189.434 114.072 188.868 114.215C188.312 114.336 187.767 114.444 187.232 114.54C186.728 114.609 186.244 114.663 185.781 114.702C185.367 114.709 184.983 114.7 184.628 114.676C184.34 114.618 184.088 114.543 183.874 114.452C183.74 114.328 183.647 114.188 183.597 114.033C183.636 113.847 183.719 113.648 183.847 113.434C184.066 113.196 184.33 112.947 184.639 112.687C185.035 112.409 185.472 112.124 185.951 111.833C186.507 111.532 187.098 111.229 187.724 110.923C188.412 110.618 189.125 110.316 189.865 110.017C190.645 109.728 191.44 109.448 192.249 109.175C193.074 108.924 193.9 108.685 194.728 108.458C195.545 108.262 196.349 108.083 197.141 107.921C197.895 107.796 198.623 107.692 199.324 107.608C199.961 107.567 200.559 107.548 201.119 107.551C201.591 107.601 202.014 107.673 202.388 107.768C202.655 107.908 202.866 108.071 203.02 108.255C203.056 108.482 203.032 108.728 202.946 108.994C202.738 109.296 202.468 109.614 202.138 109.947C201.688 110.308 201.18 110.679 200.616 111.061C199.944 111.458 199.222 111.861 198.451 112.268C197.591 112.678 196.693 113.087 195.757 113.493C194.759 113.89 193.737 114.278 192.691 114.657C191.614 115.013 190.529 115.354 189.438 115.68C188.349 115.97 187.272 116.24 186.204 116.49C185.176 116.693 184.175 116.871 183.203 117.024C182.304 117.124 181.449 117.195 180.639 117.239C179.933 117.224 179.286 117.18 178.697 117.107C178.238 116.975 177.848 116.814 177.527 116.624C177.353 116.379 177.255 116.107 177.232 115.809C177.365 115.463 177.576 115.094 177.864 114.704C178.307 114.275 178.823 113.831 179.414 113.37C180.147 112.884 180.947 112.389 181.813 111.886C182.799 111.372 183.839 110.858 184.932 110.343C186.116 109.835 187.337 109.334 188.595 108.84C189.906 108.37 191.235 107.915 192.58 107.476C193.938 107.075 195.291 106.698 196.64 106.343C197.958 106.041 199.249 105.767 200.514 105.523C201.705 105.341 202.849 105.192 203.946 105.077C204.929 105.032 205.847 105.022 206.699 105.047C207.405 105.145 208.03 105.279 208.575 105.448C208.949 105.687 209.233 105.959 209.427 106.265C209.435 106.634 209.349 107.032 209.169 107.459C208.8 107.938 208.339 108.439 207.786 108.963C207.054 109.524 206.236 110.1 205.335 110.69C204.275 111.299 203.145 111.914 201.943 112.533C200.616 113.153 199.237 113.768 197.804 114.378C196.288 114.969 194.741 115.545 193.164 116.106" stroke="#351703"/>
</g>
</g>
<g id="Union_2">
<mask id="path-11-inside-2_31_17" fill="white">
<path fill-rule="evenodd" clip-rule="evenodd" d="M210.854 3.56204C213.34 3.31461 215.556 5.12904 215.803 7.61467C216.05 10.1003 214.236 12.3159 211.75 12.5633L211.377 12.6004C214.455 27.0663 224.368 72.4103 229.826 82.7803C244.149 83.776 256.092 94.9715 257.562 109.739L272.817 262.988C273.638 271.232 267.62 278.58 259.377 279.4L193.59 285.949C185.347 286.769 177.999 280.752 177.178 272.508L161.924 119.259C160.445 104.405 170.067 91.0059 184.044 87.2962C187.809 75.927 188.108 29.6202 188.107 14.8929C185.816 14.8858 183.857 13.1463 183.626 10.8177C183.378 8.33205 185.193 6.11647 187.678 5.86904L210.854 3.56204Z"/>
</mask>
<path fill-rule="evenodd" clip-rule="evenodd" d="M210.854 3.56204C213.34 3.31461 215.556 5.12904 215.803 7.61467C216.05 10.1003 214.236 12.3159 211.75 12.5633L211.377 12.6004C214.455 27.0663 224.368 72.4103 229.826 82.7803C244.149 83.776 256.092 94.9715 257.562 109.739L272.817 262.988C273.638 271.232 267.62 278.58 259.377 279.4L193.59 285.949C185.347 286.769 177.999 280.752 177.178 272.508L161.924 119.259C160.445 104.405 170.067 91.0059 184.044 87.2962C187.809 75.927 188.108 29.6202 188.107 14.8929C185.816 14.8858 183.857 13.1463 183.626 10.8177C183.378 8.33205 185.193 6.11647 187.678 5.86904L210.854 3.56204Z" fill="url(#paint1_linear_31_17)" fill-opacity="0.3"/>
<path d="M211.377 12.6004L208.443 13.2248L207.746 9.94712L211.08 9.61519L211.377 12.6004ZM229.826 82.7803L229.618 85.7731L227.95 85.6571L227.172 84.1777L229.826 82.7803ZM184.044 87.2962L186.892 88.2393L186.381 89.7796L184.813 90.1958L184.044 87.2962ZM188.107 14.8929L188.116 11.8929L191.106 11.9022L191.107 14.8925L188.107 14.8929ZM212.818 7.91183C212.734 7.0749 211.988 6.46397 211.152 6.54728L210.557 0.576791C214.692 0.165251 218.377 3.18317 218.788 7.31752L212.818 7.91183ZM211.453 9.57807C212.29 9.49476 212.901 8.74876 212.818 7.91183L218.788 7.31752C219.2 11.4519 216.182 15.137 212.048 15.5486L211.453 9.57807ZM211.08 9.61519L211.453 9.57807L212.048 15.5486L211.675 15.5857L211.08 9.61519ZM227.172 84.1777C225.649 81.2848 223.933 76.2319 222.195 70.3203C220.432 64.3232 218.573 57.182 216.796 49.9416C213.239 35.4563 209.984 20.4687 208.443 13.2248L214.312 11.9761C215.848 19.198 219.088 34.1153 222.623 48.511C224.39 55.7111 226.225 62.7543 227.952 68.6279C229.704 74.587 231.274 79.0907 232.481 81.3829L227.172 84.1777ZM254.577 110.036C253.254 96.7484 242.507 86.669 229.618 85.7731L230.034 79.7875C245.792 80.8829 258.93 93.1946 260.547 109.442L254.577 110.036ZM269.832 263.285L254.577 110.036L260.547 109.442L275.802 262.691L269.832 263.285ZM259.079 276.415C265.674 275.758 270.488 269.88 269.832 263.285L275.802 262.691C276.787 272.583 269.566 281.401 259.674 282.385L259.079 276.415ZM193.293 282.963L259.079 276.415L259.674 282.385L193.888 288.934L193.293 282.963ZM180.164 272.211C180.82 278.806 186.698 283.62 193.293 282.963L193.888 288.934C183.995 289.919 175.178 282.698 174.193 272.805L180.164 272.211ZM164.909 118.962L180.164 272.211L174.193 272.805L158.938 119.556L164.909 118.962ZM184.813 90.1958C172.236 93.5339 163.579 105.597 164.909 118.962L158.938 119.556C157.312 103.214 167.897 88.4779 183.274 84.3966L184.813 90.1958ZM191.107 14.8925C191.108 22.2695 191.033 37.5707 190.486 52.464C190.212 59.9081 189.819 67.282 189.255 73.5278C188.699 79.6743 187.956 85.0259 186.892 88.2393L181.196 86.3532C182.014 83.882 182.72 79.1817 183.279 72.9878C183.83 66.8933 184.218 59.6383 184.49 52.2436C185.033 37.4594 185.108 22.2435 185.107 14.8932L191.107 14.8925ZM186.611 10.5205C186.689 11.3027 187.348 11.8905 188.116 11.8929L188.097 17.8929C184.285 17.8811 181.026 14.9898 180.64 11.1148L186.611 10.5205ZM187.975 8.85429C187.138 8.9376 186.527 9.6836 186.611 10.5205L180.64 11.1148C180.229 6.9805 183.247 3.29534 187.381 2.8838L187.975 8.85429ZM211.152 6.54728L187.975 8.85429L187.381 2.8838L210.557 0.576791L211.152 6.54728Z" fill="black" mask="url(#path-11-inside-2_31_17)"/>
</g>
</g>
<path id="Higher Wave" d="M300.5 172.5C250.976 176.001 224.286 289.202 150 172.5C100.476 176.001 74.7081 290.766 0.421875 174.064V608H1202V172.5C1152.48 176.185 1124.29 295.344 1050 172.5C1000.48 176.185 974.786 295.344 900.5 172.5C850.976 176.001 825.286 289.202 751 172.5C701.476 176.001 674.786 289.202 600.5 172.5C550.976 176.185 524.286 295.344 450 172.5C400.476 176.185 374.786 295.344 300.5 172.5Z" fill="#0B99A2" fill-opacity="0.7"/>
</g>
<g id="LowerWave">
<g id="MessageInaBottle_3">
<g id="Message_3">
<path id="Polygon 2_3" d="M469.571 333.302L431.892 324.831L423.59 399.663L423.572 399.829L423.518 399.986L398.686 472.059C403.142 478.725 408.15 482.648 414.131 484.049C420.163 485.462 427.453 484.376 436.582 480.446L444.972 404.81L444.991 404.644L445.045 404.487L469.571 333.302Z" fill="#CA9C67" stroke="#5C2806" stroke-width="3"/>
<path id="Rectangle 3_3" d="M445.949 403.088C445.297 402.947 444.487 402.773 443.561 402.576C441.091 402.05 437.806 401.364 434.538 400.72C431.264 400.074 428.028 399.476 425.648 399.122C424.804 398.997 424.092 398.906 423.535 398.853C423.53 398.889 423.525 398.925 423.519 398.959C423.428 399.539 423.26 400.118 423.09 400.609C423.087 400.618 423.084 400.626 423.081 400.635L445.325 405.226L445.529 404.206L445.556 404.071L445.607 403.943L445.949 403.088Z" fill="#FE0707" stroke="#FF0303" stroke-width="3"/>
<path id="Ellipse 2_3" d="M431.779 323.179C431.766 323.237 431.733 323.637 432.516 324.459C433.252 325.234 434.473 326.116 436.159 327.03C439.511 328.848 444.397 330.625 450.014 331.887C455.63 333.15 460.806 333.636 464.615 333.428C466.529 333.323 468.01 333.048 469.007 332.663C470.067 332.255 470.208 331.88 470.221 331.822C470.234 331.764 470.267 331.365 469.484 330.542C468.748 329.768 467.527 328.885 465.841 327.971C462.489 326.153 457.603 324.377 451.986 323.114C446.37 321.851 441.194 321.366 437.385 321.573C435.471 321.678 433.99 321.953 432.993 322.338C431.933 322.747 431.792 323.121 431.779 323.179Z" fill="#D1B798" stroke="#5C2806" stroke-width="3"/>
<path id="Vector_3" d="M452.331 329.484C452.905 329.623 453.487 329.755 454.078 329.88C454.676 329.988 455.273 330.086 455.868 330.175C456.45 330.242 457.02 330.298 457.578 330.342C458.101 330.36 458.603 330.366 459.082 330.359C459.507 330.324 459.899 330.276 460.261 330.214C460.55 330.126 460.8 330.024 461.011 329.908C461.136 329.767 461.216 329.615 461.251 329.45C461.193 329.264 461.087 329.068 460.934 328.863C460.685 328.641 460.389 328.412 460.046 328.177C459.612 327.933 459.135 327.686 458.615 327.435C458.014 327.184 457.377 326.933 456.704 326.684C455.968 326.442 455.206 326.205 454.418 325.974C453.588 325.758 452.745 325.551 451.888 325.354C451.017 325.18 450.146 325.02 449.274 324.872C448.417 324.755 447.574 324.653 446.745 324.568C445.96 324.517 445.204 324.484 444.476 324.47C443.819 324.492 443.204 324.534 442.631 324.595C442.152 324.693 441.726 324.81 441.352 324.946C441.093 325.117 440.893 325.305 440.754 325.51C440.74 325.746 440.79 325.996 440.905 326.26C441.15 326.548 441.458 326.847 441.831 327.155C442.329 327.478 442.887 327.807 443.504 328.141C444.234 328.479 445.015 328.818 445.847 329.157C446.77 329.49 447.732 329.817 448.733 330.138C449.797 330.442 450.884 330.736 451.995 331.018C453.135 331.273 454.281 331.512 455.433 331.735C456.578 331.921 457.711 332.088 458.83 332.235C459.905 332.338 460.949 332.419 461.961 332.477C462.893 332.487 463.776 332.473 464.611 332.435C465.333 332.348 465.992 332.237 466.588 332.101C467.045 331.919 467.429 331.714 467.738 331.487C467.891 331.218 467.964 330.93 467.957 330.622C467.785 330.28 467.532 329.924 467.196 329.554C466.699 329.159 466.124 328.756 465.471 328.344C464.67 327.921 463.8 327.496 462.862 327.068C461.798 326.642 460.68 326.221 459.507 325.805C458.241 325.405 456.939 325.016 455.599 324.638C454.207 324.29 452.799 323.959 451.375 323.646C449.942 323.374 448.517 323.125 447.098 322.899C445.716 322.724 444.365 322.575 443.043 322.454C441.804 322.389 440.616 322.353 439.481 322.347C438.468 322.401 437.526 322.484 436.656 322.598C435.942 322.77 435.315 322.97 434.773 323.199C434.415 323.482 434.151 323.791 433.984 324.124C434.013 324.503 434.142 324.902 434.37 325.321C434.797 325.775 435.32 326.242 435.941 326.722C436.749 327.223 437.645 327.729 438.63 328.242C439.778 328.758 440.999 329.273 442.294 329.785C443.717 330.285 445.194 330.775 446.725 331.254C448.339 331.705 449.984 332.137 451.658 332.552" stroke="#351703"/>
</g>
<g id="Union_3">
<mask id="path-18-inside-3_31_17" fill="white">
<path fill-rule="evenodd" clip-rule="evenodd" d="M422.042 219C419.469 219 417.383 221.086 417.383 223.659C417.383 226.232 419.469 228.318 422.042 228.318H422.428C420.756 243.397 415.261 290.561 410.734 301.995C396.186 304.066 385 316.574 385 331.694V491.682C385 499.967 391.716 506.682 400 506.682H469C477.284 506.682 484 499.967 484 491.682V331.694C484 316.485 472.682 303.919 458.008 301.96C453.008 290.457 448.009 243.33 446.514 228.293C448.861 228.052 450.692 226.069 450.692 223.659C450.692 221.086 448.606 219 446.033 219H422.042Z"/>
</mask>
<path fill-rule="evenodd" clip-rule="evenodd" d="M422.042 219C419.469 219 417.383 221.086 417.383 223.659C417.383 226.232 419.469 228.318 422.042 228.318H422.428C420.756 243.397 415.261 290.561 410.734 301.995C396.186 304.066 385 316.574 385 331.694V491.682C385 499.967 391.716 506.682 400 506.682H469C477.284 506.682 484 499.967 484 491.682V331.694C484 316.485 472.682 303.919 458.008 301.96C453.008 290.457 448.009 243.33 446.514 228.293C448.861 228.052 450.692 226.069 450.692 223.659C450.692 221.086 448.606 219 446.033 219H422.042Z" fill="url(#paint2_linear_31_17)" fill-opacity="0.3"/>
<path d="M422.428 228.318L425.41 228.648L425.779 225.318H422.428V228.318ZM410.734 301.995L411.157 304.965L412.882 304.72L413.523 303.099L410.734 301.995ZM458.008 301.96L455.257 303.155L455.932 304.709L457.611 304.933L458.008 301.96ZM446.514 228.293L446.208 225.309L443.233 225.614L443.529 228.59L446.514 228.293ZM420.383 223.659C420.383 222.743 421.126 222 422.042 222V216C417.812 216 414.383 219.429 414.383 223.659H420.383ZM422.042 225.318C421.126 225.318 420.383 224.575 420.383 223.659H414.383C414.383 227.889 417.812 231.318 422.042 231.318V225.318ZM422.428 225.318H422.042V231.318H422.428V225.318ZM413.523 303.099C414.775 299.939 416.01 294.58 417.184 288.334C418.374 282.007 419.544 274.519 420.622 266.946C422.777 251.796 424.572 236.199 425.41 228.648L419.446 227.987C418.612 235.516 416.824 251.041 414.681 266.101C413.61 273.633 412.454 281.023 411.287 287.225C410.106 293.51 408.957 298.335 407.945 300.891L413.523 303.099ZM388 331.694C388 318.088 398.066 306.829 411.157 304.965L410.311 299.025C394.306 301.304 382 315.059 382 331.694H388ZM388 491.682V331.694H382V491.682H388ZM400 503.682C393.373 503.682 388 498.31 388 491.682H382C382 501.623 390.059 509.682 400 509.682V503.682ZM469 503.682H400V509.682H469V503.682ZM481 491.682C481 498.31 475.627 503.682 469 503.682V509.682C478.941 509.682 487 501.623 487 491.682H481ZM481 331.694V491.682H487V331.694H481ZM457.611 304.933C470.814 306.696 481 318.008 481 331.694H487C487 314.961 474.549 301.141 458.405 298.986L457.611 304.933ZM443.529 228.59C444.278 236.122 445.906 251.705 447.974 266.858C449.009 274.432 450.157 281.929 451.366 288.273C452.558 294.525 453.857 299.935 455.257 303.155L460.759 300.764C459.659 298.233 458.459 293.438 457.26 287.15C456.079 280.952 454.947 273.571 453.919 266.046C451.865 251.001 450.246 235.502 449.5 227.996L443.529 228.59ZM447.692 223.659C447.692 224.515 447.04 225.223 446.208 225.309L446.821 231.277C450.682 230.881 453.692 227.623 453.692 223.659H447.692ZM446.033 222C446.949 222 447.692 222.743 447.692 223.659H453.692C453.692 219.429 450.263 216 446.033 216V222ZM422.042 222H446.033V216H422.042V222Z" fill="black" mask="url(#path-18-inside-3_31_17)"/>
</g>
</g>
<g id="MessageInaBottle_4">
<g id="Message_4">
<path id="Polygon 2_4" d="M1119.08 321.845L1080.47 321.227L1087.58 396.181L1087.6 396.347L1087.58 396.512L1077.95 472.131C1083.67 477.75 1089.37 480.57 1095.51 480.724C1101.71 480.879 1108.62 478.331 1116.76 472.623L1109.57 396.864L1109.55 396.698L1109.57 396.533L1119.08 321.845Z" fill="#CA9C67" stroke="#5C2806" stroke-width="3"/>
<path id="Rectangle 3_4" d="M1110.17 394.98C1109.5 394.974 1108.68 394.969 1107.73 394.964C1105.2 394.953 1101.85 394.95 1098.52 394.985C1095.18 395.02 1091.89 395.094 1089.49 395.232C1088.64 395.281 1087.92 395.337 1087.36 395.399C1087.37 395.436 1087.37 395.471 1087.37 395.506C1087.4 396.092 1087.35 396.694 1087.29 397.209C1087.29 397.218 1087.28 397.227 1087.28 397.236L1110 397.199L1109.99 396.159L1109.99 396.021L1110.01 395.886L1110.17 394.98Z" fill="#FE0707" stroke="#FF0303" stroke-width="3"/>
<g id="Group 2_3">
<path id="Ellipse 2_4" d="M1080.02 319.633C1080.02 319.692 1080.07 320.09 1081 320.736C1081.88 321.344 1083.26 321.96 1085.09 322.511C1088.75 323.608 1093.89 324.352 1099.65 324.444C1105.4 324.536 1110.57 323.957 1114.26 322.978C1116.11 322.485 1117.5 321.914 1118.4 321.334C1119.35 320.718 1119.42 320.323 1119.42 320.263C1119.42 320.204 1119.37 319.806 1118.43 319.16C1117.56 318.552 1116.18 317.936 1114.34 317.385C1110.69 316.289 1105.55 315.544 1099.79 315.452C1094.03 315.36 1088.87 315.939 1085.18 316.918C1083.33 317.411 1081.93 317.982 1081.04 318.562C1080.08 319.178 1080.02 319.573 1080.02 319.633Z" fill="#D1B798" stroke="#5C2806" stroke-width="3"/>
<path id="Vector_4" d="M1101.43 321.619C1102.02 321.638 1102.61 321.648 1103.22 321.65C1103.82 321.634 1104.43 321.609 1105.03 321.575C1105.61 321.522 1106.18 321.46 1106.74 321.389C1107.25 321.301 1107.75 321.205 1108.21 321.1C1108.62 320.98 1109 320.852 1109.34 320.718C1109.6 320.572 1109.83 320.422 1110.01 320.266C1110.1 320.103 1110.15 319.937 1110.15 319.768C1110.06 319.598 1109.91 319.428 1109.72 319.258C1109.43 319.091 1109.1 318.928 1108.71 318.768C1108.24 318.617 1107.72 318.472 1107.16 318.333C1106.52 318.209 1105.85 318.093 1105.14 317.987C1104.37 317.899 1103.57 317.823 1102.75 317.757C1101.9 317.714 1101.03 317.684 1100.15 317.666C1099.26 317.673 1098.38 317.693 1097.49 317.726C1096.63 317.786 1095.78 317.858 1094.96 317.943C1094.18 318.053 1093.43 318.176 1092.71 318.31C1092.08 318.466 1091.48 318.632 1090.93 318.808C1090.48 319.002 1090.09 319.203 1089.75 319.412C1089.53 319.633 1089.38 319.858 1089.28 320.087C1089.32 320.321 1089.42 320.555 1089.58 320.79C1089.88 321.022 1090.24 321.251 1090.67 321.477C1091.22 321.692 1091.84 321.9 1092.51 322.101C1093.29 322.285 1094.13 322.457 1095.01 322.619C1095.98 322.757 1096.99 322.881 1098.04 322.992C1099.14 323.073 1100.26 323.139 1101.41 323.189C1102.58 323.206 1103.75 323.207 1104.92 323.19C1106.08 323.14 1107.22 323.072 1108.35 322.988C1109.42 322.87 1110.46 322.736 1111.46 322.587C1112.38 322.407 1113.24 322.214 1114.05 322.006C1114.74 321.774 1115.36 321.531 1115.92 321.277C1116.33 321.005 1116.66 320.727 1116.92 320.441C1117.01 320.146 1117.03 319.849 1116.96 319.55C1116.72 319.25 1116.4 318.953 1115.99 318.659C1115.43 318.374 1114.78 318.096 1114.06 317.826C1113.19 317.575 1112.25 317.335 1111.24 317.108C1110.12 316.908 1108.93 316.724 1107.7 316.555C1106.38 316.421 1105.03 316.305 1103.64 316.209C1102.2 316.151 1100.76 316.114 1099.3 316.098C1097.84 316.124 1096.4 316.17 1094.96 316.238C1093.57 316.348 1092.22 316.477 1090.9 316.628C1089.67 316.817 1088.5 317.024 1087.39 317.249C1086.41 317.508 1085.51 317.782 1084.68 318.07C1084.01 318.384 1083.44 318.708 1082.96 319.042C1082.66 319.393 1082.47 319.748 1082.37 320.109C1082.48 320.474 1082.68 320.838 1082.99 321.202C1083.5 321.559 1084.11 321.91 1084.82 322.254C1085.71 322.579 1086.69 322.892 1087.76 323.193C1088.99 323.465 1090.29 323.72 1091.66 323.958C1093.16 324.158 1094.7 324.336 1096.3 324.494C1097.97 324.606 1099.67 324.695 1101.39 324.759" stroke="#351703"/>
</g>
</g>
<g id="Union_4">
<mask id="path-24-inside-4_31_17" fill="white">
<path fill-rule="evenodd" clip-rule="evenodd" d="M1049.27 219.621C1046.75 220.146 1045.13 222.612 1045.65 225.132C1046.18 227.651 1048.64 229.268 1051.16 228.744L1051.54 228.665C1052.98 243.769 1057.2 291.063 1055.1 303.18C1041.28 308.171 1032.88 322.695 1035.96 337.498L1068.55 494.132C1070.24 502.242 1078.18 507.449 1086.29 505.762L1153.84 491.706C1161.95 490.018 1167.16 482.075 1165.47 473.965L1132.88 317.331C1129.78 302.441 1116.14 292.444 1101.38 293.515C1094.14 283.272 1079.64 238.152 1075.12 223.734C1077.37 223.02 1078.75 220.706 1078.26 218.346C1077.74 215.827 1075.27 214.21 1072.75 214.734L1049.27 219.621Z"/>
</mask>
<path fill-rule="evenodd" clip-rule="evenodd" d="M1049.27 219.621C1046.75 220.146 1045.13 222.612 1045.65 225.132C1046.18 227.651 1048.64 229.268 1051.16 228.744L1051.54 228.665C1052.98 243.769 1057.2 291.063 1055.1 303.18C1041.28 308.171 1032.88 322.695 1035.96 337.498L1068.55 494.132C1070.24 502.242 1078.18 507.449 1086.29 505.762L1153.84 491.706C1161.95 490.018 1167.16 482.075 1165.47 473.965L1132.88 317.331C1129.78 302.441 1116.14 292.444 1101.38 293.515C1094.14 283.272 1079.64 238.152 1075.12 223.734C1077.37 223.02 1078.75 220.706 1078.26 218.346C1077.74 215.827 1075.27 214.21 1072.75 214.734L1049.27 219.621Z" fill="url(#paint3_linear_31_17)" fill-opacity="0.3"/>
<path d="M1049.27 219.621L1049.88 222.558L1049.27 219.621ZM1051.16 228.744L1050.55 225.807L1051.16 228.744ZM1051.54 228.665L1054.53 228.381L1054.21 225.045L1050.93 225.728L1051.54 228.665ZM1055.1 303.18L1056.12 306.001L1057.76 305.41L1058.06 303.693L1055.1 303.18ZM1165.47 473.965L1162.53 474.576L1165.47 473.965ZM1132.88 317.331L1135.82 316.72L1132.88 317.331ZM1101.38 293.515L1098.93 295.246L1099.9 296.629L1101.59 296.507L1101.38 293.515ZM1075.12 223.734L1074.21 220.875L1071.36 221.78L1072.26 224.633L1075.12 223.734ZM1072.75 214.734L1072.14 211.797L1072.75 214.734ZM1048.59 224.52C1048.4 223.623 1048.98 222.745 1049.88 222.558L1048.65 216.684C1044.51 217.546 1041.85 221.602 1042.72 225.743L1048.59 224.52ZM1050.55 225.807C1049.66 225.993 1048.78 225.417 1048.59 224.52L1042.72 225.743C1043.58 229.884 1047.63 232.542 1051.77 231.681L1050.55 225.807ZM1050.93 225.728L1050.55 225.807L1051.77 231.681L1052.15 231.602L1050.93 225.728ZM1058.06 303.693C1058.64 300.343 1058.76 294.845 1058.63 288.491C1058.51 282.054 1058.13 274.485 1057.64 266.851C1056.67 251.58 1055.25 235.945 1054.53 228.381L1048.55 228.949C1049.27 236.49 1050.68 252.054 1051.65 267.234C1052.14 274.827 1052.51 282.297 1052.63 288.607C1052.76 295 1052.62 299.958 1052.15 302.667L1058.06 303.693ZM1038.89 336.887C1036.12 323.567 1043.68 310.493 1056.12 306.001L1054.08 300.358C1038.88 305.849 1029.63 321.823 1033.02 338.109L1038.89 336.887ZM1071.48 493.521L1038.89 336.887L1033.02 338.109L1065.61 494.743L1071.48 493.521ZM1085.68 502.825C1079.19 504.175 1072.83 500.009 1071.48 493.521L1065.61 494.743C1067.64 504.476 1077.17 510.724 1086.9 508.699L1085.68 502.825ZM1153.23 488.769L1085.68 502.825L1086.9 508.699L1154.45 494.643L1153.23 488.769ZM1162.53 474.576C1163.88 481.064 1159.72 487.419 1153.23 488.769L1154.45 494.643C1164.19 492.618 1170.43 483.086 1168.41 473.354L1162.53 474.576ZM1129.94 317.942L1162.53 474.576L1168.41 473.354L1135.82 316.72L1129.94 317.942ZM1101.59 296.507C1114.88 295.543 1127.16 304.543 1129.94 317.942L1135.82 316.72C1132.41 300.338 1117.4 289.344 1101.16 290.523L1101.59 296.507ZM1072.26 224.633C1074.52 231.855 1079.29 246.779 1084.4 261.193C1086.96 268.398 1089.61 275.504 1092.09 281.468C1094.53 287.347 1096.9 292.379 1098.93 295.246L1103.83 291.783C1102.23 289.53 1100.08 285.081 1097.63 279.168C1095.21 273.341 1092.6 266.345 1090.06 259.187C1084.98 244.876 1080.24 230.032 1077.98 222.836L1072.26 224.633ZM1075.33 218.957C1075.5 219.796 1075.01 220.622 1074.21 220.875L1076.03 226.594C1079.72 225.419 1082.01 221.617 1081.2 217.735L1075.33 218.957ZM1073.36 217.671C1074.26 217.485 1075.14 218.061 1075.33 218.957L1081.2 217.735C1080.34 213.594 1076.28 210.936 1072.14 211.797L1073.36 217.671ZM1049.88 222.558L1073.36 217.671L1072.14 211.797L1048.65 216.684L1049.88 222.558Z" fill="black" mask="url(#path-24-inside-4_31_17)"/>
</g>
</g>
<path id="Lower Wave" d="M300.184 320C250.642 323.501 223.943 436.702 149.631 320C100.089 323.501 74.3123 438.266 0 321.564V608H1202V320C1152.46 323.685 1124.26 442.844 1049.95 320C1000.41 323.685 974.707 442.844 900.394 320C850.853 323.501 825.154 436.702 750.842 320C701.3 323.501 674.601 436.702 600.289 320C550.747 323.685 524.048 442.844 449.736 320C400.194 323.685 374.496 442.844 300.184 320Z" fill="#248186" fill-opacity="0.7"/>
<g id="refresh 1" clip-path="url(#clip0_31_17)">
<path id="Vector_5" d="M628.089 556.833C628.089 556.955 628.076 557.04 628.052 557.089C626.497 563.602 623.24 568.883 618.281 572.93C613.323 576.977 607.514 579 600.854 579C597.306 579 593.872 578.332 590.555 576.995C587.237 575.658 584.278 573.75 581.677 571.271L576.974 575.974C576.512 576.436 575.965 576.667 575.333 576.667C574.701 576.667 574.155 576.436 573.693 575.974C573.231 575.512 573 574.965 573 574.333V558C573 557.368 573.231 556.821 573.693 556.359C574.155 555.898 574.701 555.667 575.333 555.667H591.667C592.299 555.667 592.845 555.898 593.307 556.359C593.769 556.821 594 557.368 594 558C594 558.632 593.769 559.179 593.307 559.641L588.312 564.635C590.038 566.24 591.995 567.479 594.182 568.354C596.37 569.229 598.642 569.667 601 569.667C604.257 569.667 607.295 568.877 610.115 567.297C612.934 565.717 615.194 563.542 616.896 560.771C617.163 560.358 617.807 558.936 618.828 556.505C619.023 555.946 619.387 555.667 619.922 555.667H626.922C627.238 555.667 627.511 555.782 627.742 556.013C627.973 556.244 628.089 556.517 628.089 556.833ZM629 527.667V544C629 544.632 628.769 545.179 628.307 545.641C627.845 546.102 627.299 546.333 626.667 546.333H610.333C609.701 546.333 609.155 546.102 608.693 545.641C608.231 545.179 608 544.632 608 544C608 543.368 608.231 542.821 608.693 542.359L613.724 537.328C610.127 533.998 605.885 532.333 601 532.333C597.743 532.333 594.705 533.123 591.885 534.703C589.066 536.283 586.806 538.458 585.104 541.229C584.837 541.642 584.193 543.064 583.172 545.495C582.977 546.054 582.613 546.333 582.078 546.333H574.823C574.507 546.333 574.234 546.218 574.003 545.987C573.772 545.756 573.656 545.483 573.656 545.167V544.911C575.236 538.398 578.517 533.117 583.5 529.07C588.483 525.023 594.316 523 601 523C604.549 523 608 523.674 611.354 525.023C614.708 526.372 617.686 528.274 620.286 530.729L625.026 526.026C625.488 525.564 626.035 525.333 626.667 525.333C627.299 525.333 627.845 525.564 628.307 526.026C628.769 526.488 629 527.035 629 527.667Z" fill="#174D50"/>
</g>
</g>
</g>
<defs>
<linearGradient id="paint0_linear_31_17" x1="854.626" y1="74.778" x2="809.422" y2="350.383" gradientUnits="userSpaceOnUse">
<stop stop-color="#66C80F"/>
<stop offset="0.791667" stop-color="#166107"/>
</linearGradient>
<linearGradient id="paint1_linear_31_17" x1="198.819" y1="4.76003" x2="226.483" y2="282.674" gradientUnits="userSpaceOnUse">
<stop stop-color="#66C80F"/>
<stop offset="0.791667" stop-color="#166107"/>
</linearGradient>
<linearGradient id="paint2_linear_31_17" x1="434.5" y1="219" x2="434.5" y2="506.682" gradientUnits="userSpaceOnUse">
<stop stop-color="#66C80F"/>
<stop offset="0.791667" stop-color="#166107"/>
</linearGradient>
<linearGradient id="paint3_linear_31_17" x1="1061.46" y1="217.084" x2="1120.07" y2="498.734" gradientUnits="userSpaceOnUse">
<stop stop-color="#66C80F"/>
<stop offset="0.791667" stop-color="#166107"/>
</linearGradient>
<clipPath id="clip0_31_17">
<rect width="56" height="56" fill="white" transform="translate(573 523)"/>
</clipPath>
</defs>
</svg>
