<svg width="195" height="92" viewBox="0 0 195 92" fill="none" xmlns="http://www.w3.org/2000/svg">
<g id="Turtles">
<g id="turtle 1" clip-path="url(#clip0_220_34)">
<g id="path1">
<path fill-rule="evenodd" clip-rule="evenodd" d="M160.064 43.9388C164.985 42.1048 168.788 37.8179 177.029 37.8179C187.469 37.8179 194.309 34.2694 194.309 28.3685C194.309 14.7728 187.029 5.52279 176.149 5.52279C166.748 5.52279 161.027 11.1846 158.668 20.1952C156.987 26.1358 154.89 28.586 152.089 30.3406C154.05 33.1312 156.784 39.1543 160.064 43.9388ZM172.022 18.8504C172.022 20.8441 173.662 22.4388 175.662 22.4388C177.622 22.4388 179.223 20.8441 179.223 18.8504C179.223 16.8969 177.622 15.2623 175.662 15.2623C173.662 15.2623 172.022 16.8969 172.022 18.8504Z" fill="#5BA055"/>
<path d="M149.245 58.5718C154.726 58.5718 158.886 56.2992 158.886 52.1127C158.886 48.8434 155.765 46.252 152.365 45.9728C151.426 45.9275 150.562 45.8936 149.714 45.8604C148.686 45.8201 147.682 45.7808 146.597 45.7232C144.359 45.8982 142.397 46.2229 140.378 46.6686C139.58 46.9324 138.784 47.2379 137.997 47.5746C137.585 47.7857 137.163 48.0049 136.73 48.2298C135.615 48.8083 134.43 49.4239 133.176 50.0332C132.722 50.2985 132.278 50.5673 131.844 50.8371C135.204 55.5416 142.324 58.5718 149.245 58.5718Z" fill="#5BA055"/>
<path d="M85.0578 58.514C92.0182 58.514 99.0987 55.4439 102.499 50.7792C99.7707 48.9938 96.5678 47.2842 93.3089 46.3281C91.886 46.069 90.3186 45.9104 88.6253 45.8199C88.4955 45.8129 88.3649 45.8064 88.2336 45.8002C88.1203 45.7949 88.0064 45.7899 87.892 45.7852C86.9647 45.9709 86.0103 46.1009 85.0317 46.2342C84.0377 46.3696 83.0187 46.5084 81.9778 46.7124C78.5376 47.3504 75.4173 48.7457 75.4173 52.0549C75.4173 56.2414 79.5776 58.514 85.0578 58.514Z" fill="#5BA055"/>
<path d="M90.6831 15.4331C88.8032 18.3437 86.843 21.4936 85.0428 25.002C81.6552 31.7551 77.8694 35.2019 75.1355 37.6911C74.8673 37.9353 74.6089 38.1705 74.3623 38.3985C73.3223 39.3952 73.1477 40.6742 73.1477 42.2291C73.1477 44.5416 75.1224 45.6947 79.4826 45.6947H84.2827C85.5766 45.6947 86.7077 45.736 87.892 45.7852C88.0428 45.755 88.1414 45.7756 88.2336 45.8002C88.3649 45.8064 88.4955 45.8129 88.6253 45.8199C88.6295 45.8201 88.6337 45.8203 88.6379 45.8206C88.8146 45.8281 88.9954 45.8349 89.1796 45.8418C90.5129 45.8921 92.0158 45.9487 93.3089 46.3281L93.3523 46.336C94.1445 46.4802 94.9954 46.6351 95.6914 46.8479L95.7179 46.8225L95.7102 46.8194C97.4104 45.136 99.0031 43.2557 100.43 41.2608C103.533 36.8301 105.89 31.6984 106.863 27.1686C107.018 26.3728 107.13 25.5857 107.198 24.8136C106.528 24.564 105.828 24.295 105.108 24.0059C103.671 23.4744 102.218 22.8421 100.76 22.107C96.936 20.2857 93.127 18.0197 90.6831 15.4331Z" fill="#8C5728"/>
<path d="M127.399 24.7338C125.862 25.1584 124.317 25.4803 122.759 25.7037C120.919 26.0084 119.085 26.1438 117.239 26.1268C114.893 26.2189 112.391 25.9811 109.798 25.4006C108.923 25.2321 108.056 25.0354 107.198 24.8136L107.245 24.832C107.163 25.5873 107.034 26.3686 106.863 27.1686C105.955 31.8337 103.6 36.8303 100.43 41.2608C98.9976 43.307 97.4058 45.2036 95.7179 46.8225C97.1272 47.3785 98.6742 48.1929 100.365 49.0832C104.865 51.4521 110.383 54.3575 117.038 54.3575C123.217 54.3575 128.643 52.2359 133.176 50.0332C134.702 49.1404 136.33 48.2875 137.997 47.5746C138.398 47.3686 138.789 47.1704 139.169 46.9822L139.14 46.9545L139.073 46.9706C138.614 46.5073 138.163 46.0293 137.72 45.5386C132.274 39.8245 127.987 31.9584 127.399 24.7338Z" fill="#8C5728"/>
<path d="M150.634 45.5751C154.473 45.5751 158.194 44.977 160.034 43.9404C157.46 40.6361 153.745 33.5955 150.274 27.0175C147.755 22.2453 145.365 17.7166 143.633 15.0345L143.629 15.0387L143.638 15.0497C143.603 15.0785 143.568 15.1072 143.534 15.1358C139.355 19.358 131.979 22.949 127.455 24.729C128.085 31.3709 132.223 39.4422 137.72 45.5386C138.185 46.0268 138.659 46.4994 139.14 46.9545C139.557 46.8543 139.969 46.759 140.378 46.6686C142.065 46.1113 143.51 45.9466 145.154 45.8604C145.565 45.8864 146.212 45.7027 146.597 45.7232C147.839 45.6261 149.165 45.5751 150.634 45.5751Z" fill="#8C5728"/>
<path fill-rule="evenodd" clip-rule="evenodd" d="M137.72 45.5386C138.163 46.0293 138.614 46.5073 139.073 46.9706L139.14 46.9545C138.659 46.4994 138.185 46.0268 137.72 45.5386ZM146.597 45.7232C144.359 45.8982 142.397 46.2229 140.378 46.6686C142.065 46.1113 143.51 45.9466 145.154 45.8604C145.565 45.8864 146.212 45.7027 146.597 45.7232ZM143.638 15.0497C143.603 15.0785 143.568 15.1072 143.534 15.1358C143.566 15.1035 143.534 15.1358 143.629 15.0387L143.638 15.0497ZM100.76 22.107C102.218 22.8421 103.671 23.4744 105.108 24.0059C103.708 23.4436 102.233 22.8083 100.76 22.107ZM109.798 25.4006C112.391 25.9811 114.893 26.2189 117.239 26.1268C119.085 26.1438 120.919 26.0084 122.759 25.7037C120.951 25.963 119.126 26.0895 117.278 26.0895C114.72 26.1188 112.226 25.8681 109.798 25.4006ZM137.997 47.5746C136.33 48.2875 134.702 49.1404 133.176 50.0332C134.43 49.4239 135.615 48.8083 136.73 48.2298C137.163 48.0049 137.585 47.7857 137.997 47.5746ZM95.7179 46.8225C97.4058 45.2036 98.9976 43.307 100.43 41.2608C99.0031 43.2557 97.4104 45.136 95.7102 46.8194L95.7179 46.8225ZM106.863 27.1686C107.034 26.3686 107.163 25.5873 107.245 24.832L107.198 24.8136C107.13 25.5857 107.018 26.3728 106.863 27.1686ZM87.892 45.7852C88.0064 45.7899 88.1203 45.7949 88.2336 45.8002C88.1414 45.7756 88.0428 45.755 87.892 45.7852ZM93.3089 46.3281C91.886 46.069 90.3186 45.9104 88.6253 45.8199L88.6379 45.8206C88.8146 45.8281 88.9954 45.8349 89.1796 45.8418C90.5129 45.8921 92.0158 45.9487 93.3089 46.3281Z" fill="#628D33"/>
<path d="M117.239 0.753906C105.318 0.714019 98.4925 5.25168 90.732 15.3785C94.0235 18.1812 97.4065 20.416 100.76 22.107C102.233 22.8083 103.708 23.4436 105.108 24.0059C106.694 24.5928 108.262 25.0568 109.798 25.4006C112.226 25.8681 114.72 26.1188 117.278 26.0895C119.126 26.0895 120.951 25.963 122.759 25.7037C129.35 24.6123 136.011 21.3484 143.534 15.1358C143.566 15.1035 143.534 15.1358 143.629 15.0387C136.272 5.7157 129.195 0.793777 117.239 0.753906Z" fill="#8C5728"/>
<path d="M175.662 22.4388C173.662 22.4388 172.022 20.8441 172.022 18.8504C172.022 16.8969 173.662 15.2623 175.662 15.2623C177.622 15.2623 179.223 16.8969 179.223 18.8504C179.223 20.8441 177.622 22.4388 175.662 22.4388Z" fill="black"/>
<path d="M143.638 15.0497C143.635 15.046 143.632 15.0424 143.629 15.0387M143.638 15.0497C143.603 15.0785 143.568 15.1072 143.534 15.1358M143.638 15.0497L143.629 15.0387M139.073 46.9706C139.095 46.9652 139.118 46.9598 139.14 46.9545M139.073 46.9706C138.614 46.5073 138.163 46.0293 137.72 45.5386M139.073 46.9706L139.14 46.9545M95.6914 46.8479C95.7002 46.8394 95.7091 46.8309 95.7179 46.8225M95.6914 46.8479L95.7179 46.8225M95.6914 46.8479C94.9954 46.6351 94.1445 46.4802 93.3523 46.336M107.245 24.832C107.163 25.5873 107.034 26.3686 106.863 27.1686M107.245 24.832C107.229 24.8262 107.213 24.8195 107.198 24.8136M107.245 24.832L107.198 24.8136M139.169 46.9822C139.16 46.973 139.15 46.9637 139.14 46.9545M139.169 46.9822C138.789 47.1704 138.398 47.3686 137.997 47.5746M139.169 46.9822L139.14 46.9545M107.198 24.8136C108.056 25.0354 108.923 25.2321 109.798 25.4006M107.198 24.8136C106.528 24.564 105.828 24.295 105.108 24.0059M107.198 24.8136C107.13 25.5857 107.018 26.3728 106.863 27.1686M88.6379 45.8206C88.8146 45.8281 88.9954 45.8349 89.1796 45.8418C90.5129 45.8921 92.0158 45.9487 93.3089 46.3281M88.6379 45.8206C88.6337 45.8203 88.6295 45.8201 88.6253 45.8199M88.6379 45.8206C88.4537 45.8681 88.3487 45.831 88.2336 45.8002M88.6379 45.8206L88.6253 45.8199M122.759 25.7037C124.317 25.4803 125.862 25.1584 127.399 24.7338C127.987 31.9584 132.274 39.8245 137.72 45.5386M122.759 25.7037C129.35 24.6123 136.011 21.3484 143.534 15.1358M122.759 25.7037C120.951 25.963 119.126 26.0895 117.278 26.0895C114.72 26.1188 112.226 25.8681 109.798 25.4006M122.759 25.7037C120.919 26.0084 119.085 26.1438 117.239 26.1268C114.893 26.2189 112.391 25.9811 109.798 25.4006M137.72 45.5386C132.223 39.4422 128.085 31.3709 127.455 24.729C131.979 22.949 139.355 19.358 143.534 15.1358M137.72 45.5386C138.185 46.0268 138.659 46.4994 139.14 46.9545M143.534 15.1358C143.566 15.1035 143.534 15.1358 143.629 15.0387M143.629 15.0387C136.272 5.7157 129.195 0.793777 117.239 0.753906C105.318 0.714019 98.4925 5.25168 90.732 15.3785C94.0235 18.1812 97.4065 20.416 100.76 22.107M143.629 15.0387L143.633 15.0345C145.365 17.7166 147.755 22.2453 150.274 27.0175C153.745 33.5955 157.46 40.6361 160.034 43.9404C158.194 44.977 154.473 45.5751 150.634 45.5751C149.165 45.5751 147.839 45.6261 146.597 45.7232M100.76 22.107C96.936 20.2857 93.127 18.0197 90.6831 15.4331C88.8032 18.3437 86.843 21.4936 85.0428 25.002C81.6552 31.7551 77.8694 35.2019 75.1355 37.6911C74.8673 37.9353 74.6089 38.1705 74.3623 38.3985C73.3223 39.3952 73.1477 40.6742 73.1477 42.2291C73.1477 44.5416 75.1224 45.6947 79.4826 45.6947H84.2827C85.5766 45.6947 86.7077 45.736 87.892 45.7852M100.76 22.107C102.233 22.8083 103.708 23.4436 105.108 24.0059M100.76 22.107C102.218 22.8421 103.671 23.4744 105.108 24.0059M87.892 45.7852C86.9647 45.9709 86.0103 46.1009 85.0317 46.2342C84.0377 46.3696 83.0187 46.5084 81.9778 46.7124C78.5376 47.3504 75.4173 48.7457 75.4173 52.0549C75.4173 56.2414 79.5776 58.514 85.0578 58.514C92.0182 58.514 99.0987 55.4439 102.499 50.7792C99.7707 48.9938 96.5678 47.2842 93.3089 46.3281M87.892 45.7852C88.0064 45.7899 88.1203 45.7949 88.2336 45.8002M87.892 45.7852C88.0428 45.755 88.1414 45.7756 88.2336 45.8002M93.3089 46.3281C91.886 46.069 90.3186 45.9104 88.6253 45.8199M93.3089 46.3281L93.3523 46.336M93.3089 46.3281C93.3233 46.3307 93.3378 46.3334 93.3523 46.336M95.7179 46.8225C97.1272 47.3785 98.6742 48.1929 100.365 49.0832C104.865 51.4521 110.383 54.3575 117.038 54.3575C123.217 54.3575 128.643 52.2359 133.176 50.0332M95.7179 46.8225L95.7102 46.8194C97.4104 45.136 99.0031 43.2557 100.43 41.2608M95.7179 46.8225C97.4058 45.2036 98.9976 43.307 100.43 41.2608M133.176 50.0332C132.722 50.2985 132.278 50.5673 131.844 50.8371C135.204 55.5416 142.324 58.5718 149.245 58.5718C154.726 58.5718 158.886 56.2992 158.886 52.1127C158.886 48.8434 155.765 46.252 152.365 45.9728C151.426 45.9275 150.562 45.8936 149.714 45.8604C148.686 45.8201 147.682 45.7808 146.597 45.7232M133.176 50.0332C134.702 49.1404 136.33 48.2875 137.997 47.5746M133.176 50.0332C134.43 49.4239 135.615 48.8083 136.73 48.2298C137.163 48.0049 137.585 47.7857 137.997 47.5746M146.597 45.7232C144.359 45.8982 142.397 46.2229 140.378 46.6686M146.597 45.7232C146.212 45.7027 145.565 45.8864 145.154 45.8604C143.51 45.9466 142.065 46.1113 140.378 46.6686M140.378 46.6686C139.969 46.759 139.557 46.8543 139.14 46.9545M140.378 46.6686C139.58 46.9324 138.784 47.2379 137.997 47.5746M106.863 27.1686C105.955 31.8337 103.6 36.8303 100.43 41.2608M106.863 27.1686C105.89 31.6984 103.533 36.8301 100.43 41.2608M109.798 25.4006C108.262 25.0568 106.694 24.5928 105.108 24.0059M88.2336 45.8002C88.3649 45.8064 88.4955 45.8129 88.6253 45.8199M160.064 43.9388C164.985 42.1048 168.788 37.8179 177.029 37.8179C187.469 37.8179 194.309 34.2694 194.309 28.3685C194.309 14.7728 187.029 5.52279 176.149 5.52279C166.748 5.52279 161.027 11.1846 158.668 20.1952C156.987 26.1358 154.89 28.586 152.089 30.3406C154.05 33.1312 156.784 39.1543 160.064 43.9388ZM175.662 22.4388C173.662 22.4388 172.022 20.8441 172.022 18.8504C172.022 16.8969 173.662 15.2623 175.662 15.2623C177.622 15.2623 179.223 16.8969 179.223 18.8504C179.223 20.8441 177.622 22.4388 175.662 22.4388Z" stroke="black" stroke-linejoin="round"/>
</g>
</g>
<g id="turtle 2">
<g id="path1_2">
<path fill-rule="evenodd" clip-rule="evenodd" d="M69.8208 82.098C72.5543 81.0634 74.6671 78.6452 79.2453 78.6452C85.0455 78.6452 88.8455 76.6435 88.8455 73.3148C88.8455 65.6454 84.8011 60.4274 78.7564 60.4274C73.5338 60.4274 70.3556 63.6213 69.0448 68.7042C68.1113 72.0553 66.9459 73.4375 65.3902 74.4272C66.4793 76.0014 67.9983 79.3991 69.8208 82.098ZM76.4641 67.9456C76.4641 69.0702 77.3748 69.9698 78.4862 69.9698C79.575 69.9698 80.4643 69.0702 80.4643 67.9456C80.4643 66.8436 79.575 65.9215 78.4862 65.9215C77.3748 65.9215 76.4641 66.8436 76.4641 67.9456Z" fill="#5BA055"/>
<path d="M63.8098 90.3525C66.8547 90.3525 69.1659 89.0705 69.1659 86.709C69.1659 84.8647 67.4322 83.4029 65.5434 83.2454C65.0218 83.2198 64.5417 83.2007 64.0705 83.182C63.4996 83.1593 62.9417 83.1371 62.3391 83.1046C61.0957 83.2033 60.0057 83.3865 58.8841 83.6379C58.4406 83.7867 57.9983 83.959 57.5609 84.149C57.3324 84.2681 57.0978 84.3917 56.8572 84.5186C56.238 84.8449 55.5793 85.1922 54.8826 85.5359C54.6307 85.6856 54.3838 85.8372 54.1428 85.9893C56.0095 88.6432 59.9652 90.3525 63.8098 90.3525Z" fill="#5BA055"/>
<path d="M28.1504 90.3199C32.0173 90.3199 35.9509 88.5881 37.8399 85.9567C36.3242 84.9496 34.5449 83.9852 32.7343 83.4458C31.9438 83.2997 31.0731 83.2102 30.1324 83.1591C30.0602 83.1552 29.9877 83.1515 29.9147 83.1481C29.8518 83.1451 29.7885 83.1422 29.725 83.1396C29.2098 83.2443 28.6796 83.3177 28.1359 83.3928C27.5837 83.4692 27.0176 83.5475 26.4393 83.6626C24.5281 84.0225 22.7946 84.8096 22.7946 86.6763C22.7946 89.0379 25.1059 90.3199 28.1504 90.3199Z" fill="#5BA055"/>
<path d="M31.2756 66.0179C30.2312 67.6597 29.1422 69.4366 28.1421 71.4157C26.2601 75.2251 24.1569 77.1695 22.638 78.5737C22.489 78.7114 22.3455 78.8441 22.2085 78.9727C21.6307 79.535 21.5337 80.2565 21.5337 81.1336C21.5337 82.4381 22.6308 83.0885 25.0531 83.0885H27.7198C28.4387 83.0885 29.067 83.1118 29.725 83.1396C29.8087 83.1225 29.8635 83.1341 29.9147 83.1481C29.9877 83.1515 30.0602 83.1552 30.1324 83.1591C30.1347 83.1593 30.137 83.1594 30.1394 83.1595C30.2375 83.1638 30.338 83.1676 30.4403 83.1715C31.181 83.1999 32.016 83.2318 32.7343 83.4458L32.7585 83.4503C33.1986 83.5316 33.6713 83.619 34.058 83.739L34.0727 83.7247L34.0684 83.723C35.013 82.7733 35.8978 81.7127 36.6908 80.5873C38.4145 78.088 39.724 75.1932 40.2642 72.6379C40.3502 72.189 40.4129 71.745 40.4503 71.3095C40.0782 71.1687 39.6892 71.0169 39.2892 70.8538C38.4909 70.554 37.684 70.1973 36.8741 69.7826C34.7494 68.7553 32.6333 67.477 31.2756 66.0179Z" fill="#8C5728"/>
<path d="M51.6731 71.2645C50.8193 71.5039 49.9608 71.6855 49.0954 71.8116C48.0733 71.9834 47.0543 72.0598 46.0288 72.0502C44.7255 72.1022 43.3357 71.9681 41.8949 71.6406C41.4087 71.5455 40.9272 71.4346 40.4503 71.3095L40.4765 71.3198C40.4311 71.7459 40.3597 72.1866 40.2642 72.6379C39.7601 75.2695 38.4519 78.0881 36.6908 80.5873C35.8947 81.7416 35.0104 82.8115 34.0727 83.7247C34.8556 84.0384 35.7151 84.4978 36.6544 85C39.1542 86.3363 42.22 87.9752 45.9172 87.9752C49.3499 87.9752 52.3642 86.7784 54.8826 85.5359C55.7304 85.0322 56.6347 84.5512 57.5609 84.149C57.7839 84.0328 58.0011 83.921 58.2124 83.8148L58.1961 83.7992L58.1587 83.8083C57.9037 83.5469 57.653 83.2773 57.4072 83.0005C54.3814 79.7771 52.0002 75.3398 51.6731 71.2645Z" fill="#8C5728"/>
<path d="M64.5815 83.021C66.7146 83.021 68.7815 82.6837 69.8036 82.0989C68.374 80.235 66.3099 76.2633 64.3814 72.5526C62.9823 69.8607 61.6546 67.306 60.6923 65.793L60.69 65.7954L60.6948 65.8016C60.6756 65.8178 60.6563 65.834 60.637 65.8502C58.3155 68.2319 54.2179 70.2576 51.7045 71.2617C52.0542 75.0085 54.3535 79.5615 57.4072 83.0005C57.6658 83.2759 57.929 83.5424 58.1961 83.7992C58.4278 83.7427 58.6566 83.6889 58.8841 83.6379C59.8209 83.3235 60.6238 83.2306 61.5373 83.182C61.7655 83.1966 62.1248 83.093 62.3391 83.1046C63.0288 83.0498 63.7658 83.021 64.5815 83.021Z" fill="#8C5728"/>
<path fill-rule="evenodd" clip-rule="evenodd" d="M57.4072 83.0005C57.653 83.2773 57.9037 83.5469 58.1587 83.8083L58.1961 83.7992C57.929 83.5424 57.6658 83.2759 57.4072 83.0005ZM62.3391 83.1046C61.0957 83.2033 60.0057 83.3865 58.8841 83.6379C59.8209 83.3235 60.6238 83.2306 61.5373 83.182C61.7655 83.1966 62.1248 83.093 62.3391 83.1046ZM60.6948 65.8016C60.6756 65.8178 60.6563 65.834 60.637 65.8502C60.6548 65.8319 60.637 65.8502 60.69 65.7954L60.6948 65.8016ZM36.8741 69.7826C37.684 70.1973 38.4909 70.554 39.2892 70.8538C38.5114 70.5366 37.6921 70.1782 36.8741 69.7826ZM41.8949 71.6406C43.3357 71.9681 44.7255 72.1022 46.0288 72.0502C47.0543 72.0598 48.0733 71.9834 49.0954 71.8116C48.091 71.9578 47.0772 72.0292 46.0506 72.0292C44.6293 72.0457 43.2441 71.9043 41.8949 71.6406ZM57.5609 84.149C56.6347 84.5512 55.7304 85.0322 54.8826 85.5359C55.5793 85.1922 56.238 84.8449 56.8572 84.5186C57.0978 84.3917 57.3324 84.2681 57.5609 84.149ZM34.0727 83.7247C35.0104 82.8115 35.8947 81.7416 36.6908 80.5873C35.8978 81.7127 35.013 82.7733 34.0684 83.723L34.0727 83.7247ZM40.2642 72.6379C40.3597 72.1866 40.4311 71.7459 40.4765 71.3198L40.4503 71.3095C40.4129 71.745 40.3502 72.189 40.2642 72.6379ZM29.725 83.1396C29.7885 83.1422 29.8518 83.1451 29.9147 83.1481C29.8635 83.1341 29.8087 83.1225 29.725 83.1396ZM32.7343 83.4458C31.9438 83.2997 31.0731 83.2102 30.1324 83.1591L30.1394 83.1595C30.2375 83.1638 30.338 83.1676 30.4403 83.1715C31.181 83.1999 32.016 83.2318 32.7343 83.4458Z" fill="#628D33"/>
<path d="M46.0288 57.7373C39.4062 57.7148 35.6142 60.2745 31.3027 65.987C33.1314 67.5681 35.0108 68.8288 36.8741 69.7826C37.6921 70.1782 38.5114 70.5366 39.2892 70.8538C40.1707 71.1849 41.0417 71.4466 41.8949 71.6406C43.2441 71.9043 44.6293 72.0457 46.0506 72.0292C47.0772 72.0292 48.091 71.9578 49.0954 71.8116C52.7573 71.1959 56.4578 69.3547 60.637 65.8502C60.6548 65.8319 60.637 65.8502 60.69 65.7954C56.6025 60.5363 52.671 57.7598 46.0288 57.7373Z" fill="#8C5728"/>
<path d="M78.4862 69.9698C77.3748 69.9698 76.4641 69.0702 76.4641 67.9456C76.4641 66.8436 77.3748 65.9215 78.4862 65.9215C79.575 65.9215 80.4643 66.8436 80.4643 67.9456C80.4643 69.0702 79.575 69.9698 78.4862 69.9698Z" fill="black"/>
<path d="M60.6948 65.8016C60.6932 65.7995 60.6916 65.7975 60.69 65.7954M60.6948 65.8016C60.6756 65.8178 60.6563 65.834 60.637 65.8502M60.6948 65.8016L60.69 65.7954M58.1587 83.8083C58.1712 83.8052 58.1836 83.8022 58.1961 83.7992M58.1587 83.8083C57.9037 83.5469 57.653 83.2773 57.4072 83.0005M58.1587 83.8083L58.1961 83.7992M34.058 83.739C34.0629 83.7343 34.0678 83.7295 34.0727 83.7247M34.058 83.739L34.0727 83.7247M34.058 83.739C33.6713 83.619 33.1986 83.5316 32.7585 83.4503M40.4765 71.3198C40.4311 71.7459 40.3597 72.1866 40.2642 72.6379M40.4765 71.3198C40.4678 71.3165 40.4591 71.3128 40.4503 71.3095M40.4765 71.3198L40.4503 71.3095M58.2124 83.8148C58.207 83.8096 58.2015 83.8044 58.1961 83.7992M58.2124 83.8148C58.0011 83.921 57.7839 84.0328 57.5609 84.149M58.2124 83.8148L58.1961 83.7992M40.4503 71.3095C40.9272 71.4346 41.4087 71.5455 41.8949 71.6406M40.4503 71.3095C40.0782 71.1687 39.6892 71.0169 39.2892 70.8538M40.4503 71.3095C40.4129 71.745 40.3502 72.189 40.2642 72.6379M30.1394 83.1595C30.2375 83.1638 30.338 83.1676 30.4403 83.1715C31.181 83.1999 32.016 83.2318 32.7343 83.4458M30.1394 83.1595C30.137 83.1594 30.1347 83.1593 30.1324 83.1591M30.1394 83.1595C30.037 83.1864 29.9787 83.1654 29.9147 83.1481M30.1394 83.1595L30.1324 83.1591M49.0954 71.8116C49.9608 71.6855 50.8193 71.5039 51.6731 71.2645C52.0002 75.3398 54.3814 79.7771 57.4072 83.0005M49.0954 71.8116C52.7573 71.1959 56.4578 69.3547 60.637 65.8502M49.0954 71.8116C48.091 71.9578 47.0772 72.0292 46.0506 72.0292C44.6293 72.0457 43.2441 71.9043 41.8949 71.6406M49.0954 71.8116C48.0733 71.9834 47.0543 72.0598 46.0288 72.0502C44.7255 72.1022 43.3357 71.9681 41.8949 71.6406M57.4072 83.0005C54.3535 79.5615 52.0542 75.0085 51.7045 71.2617C54.2179 70.2576 58.3155 68.2319 60.637 65.8502M57.4072 83.0005C57.6658 83.2759 57.929 83.5424 58.1961 83.7992M60.637 65.8502C60.6548 65.8319 60.637 65.8502 60.69 65.7954M60.69 65.7954C56.6025 60.5363 52.671 57.7598 46.0288 57.7373C39.4062 57.7148 35.6142 60.2745 31.3027 65.987C33.1314 67.5681 35.0108 68.8288 36.8741 69.7826M60.69 65.7954L60.6923 65.793C61.6546 67.306 62.9823 69.8607 64.3814 72.5526C66.3099 76.2633 68.374 80.235 69.8036 82.0989C68.7815 82.6837 66.7146 83.021 64.5815 83.021C63.7658 83.021 63.0288 83.0498 62.3391 83.1046M36.8741 69.7826C34.7494 68.7553 32.6333 67.477 31.2756 66.0179C30.2312 67.6597 29.1422 69.4366 28.1421 71.4157C26.2601 75.2251 24.1569 77.1695 22.638 78.5737C22.489 78.7114 22.3455 78.8441 22.2085 78.9727C21.6307 79.535 21.5337 80.2565 21.5337 81.1336C21.5337 82.4381 22.6308 83.0885 25.0531 83.0885H27.7198C28.4387 83.0885 29.067 83.1118 29.725 83.1396M36.8741 69.7826C37.6921 70.1782 38.5114 70.5366 39.2892 70.8538M36.8741 69.7826C37.684 70.1973 38.4909 70.554 39.2892 70.8538M29.725 83.1396C29.2098 83.2443 28.6796 83.3177 28.1359 83.3928C27.5837 83.4692 27.0176 83.5475 26.4393 83.6626C24.5281 84.0225 22.7946 84.8096 22.7946 86.6763C22.7946 89.0379 25.1059 90.3199 28.1504 90.3199C32.0173 90.3199 35.9509 88.5881 37.8399 85.9567C36.3242 84.9496 34.5449 83.9852 32.7343 83.4458M29.725 83.1396C29.7885 83.1422 29.8518 83.1451 29.9147 83.1481M29.725 83.1396C29.8087 83.1225 29.8635 83.1341 29.9147 83.1481M32.7343 83.4458C31.9438 83.2997 31.0731 83.2102 30.1324 83.1591M32.7343 83.4458L32.7585 83.4503M32.7343 83.4458C32.7424 83.4473 32.7504 83.4488 32.7585 83.4503M34.0727 83.7247C34.8556 84.0384 35.7151 84.4978 36.6544 85C39.1542 86.3363 42.22 87.9752 45.9172 87.9752C49.3499 87.9752 52.3642 86.7784 54.8826 85.5359M34.0727 83.7247L34.0684 83.723C35.013 82.7733 35.8978 81.7127 36.6908 80.5873M34.0727 83.7247C35.0104 82.8115 35.8947 81.7416 36.6908 80.5873M54.8826 85.5359C54.6307 85.6856 54.3838 85.8372 54.1428 85.9893C56.0095 88.6432 59.9652 90.3525 63.8098 90.3525C66.8547 90.3525 69.1659 89.0705 69.1659 86.709C69.1659 84.8647 67.4322 83.4029 65.5434 83.2454C65.0218 83.2198 64.5417 83.2007 64.0705 83.182C63.4996 83.1593 62.9417 83.1371 62.3391 83.1046M54.8826 85.5359C55.7304 85.0322 56.6347 84.5512 57.5609 84.149M54.8826 85.5359C55.5793 85.1922 56.238 84.8449 56.8572 84.5186C57.0978 84.3917 57.3324 84.2681 57.5609 84.149M62.3391 83.1046C61.0957 83.2033 60.0057 83.3865 58.8841 83.6379M62.3391 83.1046C62.1248 83.093 61.7655 83.1966 61.5373 83.182C60.6238 83.2306 59.8209 83.3235 58.8841 83.6379M58.8841 83.6379C58.6566 83.6889 58.4278 83.7427 58.1961 83.7992M58.8841 83.6379C58.4406 83.7867 57.9983 83.959 57.5609 84.149M40.2642 72.6379C39.7601 75.2695 38.4519 78.0881 36.6908 80.5873M40.2642 72.6379C39.724 75.1932 38.4145 78.088 36.6908 80.5873M41.8949 71.6406C41.0417 71.4466 40.1707 71.1849 39.2892 70.8538M29.9147 83.1481C29.9877 83.1515 30.0602 83.1552 30.1324 83.1591M69.8208 82.098C72.5543 81.0634 74.6671 78.6452 79.2453 78.6452C85.0455 78.6452 88.8455 76.6435 88.8455 73.3148C88.8455 65.6454 84.8011 60.4274 78.7564 60.4274C73.5338 60.4274 70.3556 63.6213 69.0448 68.7042C68.1113 72.0553 66.9459 73.4375 65.3902 74.4272C66.4793 76.0014 67.9983 79.3991 69.8208 82.098ZM78.4862 69.9698C77.3748 69.9698 76.4641 69.0702 76.4641 67.9456C76.4641 66.8436 77.3748 65.9215 78.4862 65.9215C79.575 65.9215 80.4643 66.8436 80.4643 67.9456C80.4643 69.0702 79.575 69.9698 78.4862 69.9698Z" stroke="black" stroke-linejoin="round"/>
</g>
</g>
<g id="turtle 3">
<g id="path1_3">
<path fill-rule="evenodd" clip-rule="evenodd" d="M51.7224 45.901C54.4559 44.8664 56.5687 42.4482 61.1469 42.4482C66.9471 42.4482 70.7471 40.4465 70.7471 37.1177C70.7471 29.4484 66.7027 24.2304 60.658 24.2304C55.4355 24.2304 52.2572 27.4243 50.9464 32.5072C50.0129 35.8583 48.8475 37.2405 47.2918 38.2302C48.3809 39.8044 49.9 43.2021 51.7224 45.901ZM58.3657 31.7486C58.3657 32.8732 59.2765 33.7728 60.3878 33.7728C61.4766 33.7728 62.3659 32.8732 62.3659 31.7486C62.3659 30.6466 61.4766 29.7245 60.3878 29.7245C59.2765 29.7245 58.3657 30.6466 58.3657 31.7486Z" fill="#5BA055"/>
<path d="M45.7114 54.1555C48.7563 54.1555 51.0675 52.8735 51.0675 50.5119C51.0675 48.6677 49.3338 47.2059 47.445 47.0484C46.9234 47.0228 46.4433 47.0037 45.9721 46.985C45.4012 46.9623 44.8433 46.9401 44.2407 46.9076C42.9973 47.0063 41.9073 47.1895 40.7857 47.4409C40.3422 47.5897 39.8999 47.762 39.4625 47.9519C39.234 48.071 38.9994 48.1947 38.7588 48.3215C38.1396 48.6479 37.4809 48.9951 36.7842 49.3389C36.5323 49.4885 36.2854 49.6402 36.0444 49.7923C37.9111 52.4462 41.8668 54.1555 45.7114 54.1555Z" fill="#5BA055"/>
<path d="M10.052 54.1229C13.9189 54.1229 17.8525 52.391 19.7415 49.7597C18.2259 48.7525 16.4465 47.7881 14.636 47.2488C13.8454 47.1026 12.9747 47.0132 12.034 46.9621C11.9618 46.9582 11.8893 46.9545 11.8164 46.951C11.7534 46.948 11.6901 46.9452 11.6266 46.9425C11.1114 47.0473 10.5812 47.1206 10.0375 47.1958C9.48527 47.2722 8.91916 47.3505 8.3409 47.4656C6.42968 47.8255 4.69619 48.6126 4.69619 50.4793C4.69619 52.8409 7.00746 54.1229 10.052 54.1229Z" fill="#5BA055"/>
<path d="M13.1772 29.8209C12.1328 31.4627 11.0438 33.2396 10.0437 35.2187C8.16171 39.0281 6.05847 40.9725 4.53964 42.3766C4.39061 42.5144 4.2471 42.6471 4.11009 42.7757C3.5323 43.3379 3.4353 44.0594 3.4353 44.9365C3.4353 46.241 4.53238 46.8915 6.95469 46.8915H9.62142C10.3403 46.8915 10.9686 46.9148 11.6266 46.9425C11.7104 46.9255 11.7651 46.9371 11.8164 46.951C11.8893 46.9545 11.9618 46.9582 12.034 46.9621C12.0363 46.9622 12.0386 46.9624 12.041 46.9625C12.1391 46.9667 12.2396 46.9706 12.3419 46.9745C13.0826 47.0028 13.9176 47.0348 14.636 47.2488L14.6601 47.2533C15.1002 47.3346 15.5729 47.422 15.9596 47.542L15.9743 47.5277L15.97 47.526C16.9146 46.5763 17.7994 45.5157 18.5924 44.3903C20.3161 41.8909 21.6256 38.9961 22.1659 36.4409C22.2519 35.992 22.3145 35.548 22.3519 35.1124C21.9798 34.9716 21.5908 34.8199 21.1908 34.6568C20.3925 34.3569 19.5856 34.0003 18.7757 33.5856C16.651 32.5582 14.5349 31.28 13.1772 29.8209Z" fill="#8C5728"/>
<path d="M33.5747 35.0674C32.721 35.3069 31.8625 35.4885 30.997 35.6145C29.975 35.7864 28.9559 35.8628 27.9304 35.8532C26.6271 35.9052 25.2373 35.771 23.7965 35.4435C23.3103 35.3485 22.8288 35.2376 22.3519 35.1124L22.3781 35.1228C22.3327 35.5489 22.2613 35.9896 22.1659 36.4409C21.6618 39.0725 20.3535 41.8911 18.5924 44.3903C17.7963 45.5446 16.912 46.6145 15.9743 47.5277C16.7573 47.8413 17.6167 48.3008 18.5561 48.8029C21.0558 50.1393 24.1216 51.7782 27.8188 51.7782C31.2515 51.7782 34.2658 50.5814 36.7842 49.3389C37.632 48.8352 38.5363 48.3541 39.4625 47.9519C39.6855 47.8358 39.9027 47.7239 40.114 47.6178L40.0977 47.6021L40.0603 47.6113C39.8054 47.3499 39.5547 47.0803 39.3088 46.8034C36.283 43.5801 33.9018 39.1428 33.5747 35.0674Z" fill="#8C5728"/>
<path d="M46.4831 46.824C48.6162 46.824 50.6831 46.4866 51.7052 45.9019C50.2756 44.0379 48.2115 40.0663 46.283 36.3556C44.8839 33.6637 43.5562 31.109 42.5939 29.596L42.5916 29.5984L42.5965 29.6046C42.5772 29.6208 42.5579 29.637 42.5386 29.6532C40.2171 32.0349 36.1195 34.0606 33.6061 35.0647C33.9558 38.8114 36.2551 43.3645 39.3088 46.8034C39.5674 47.0789 39.8306 47.3454 40.0977 47.6021C40.3294 47.5457 40.5582 47.4919 40.7857 47.4409C41.7225 47.1265 42.5255 47.0336 43.4389 46.985C43.6671 46.9996 44.0264 46.896 44.2407 46.9076C44.9304 46.8528 45.6674 46.824 46.4831 46.824Z" fill="#8C5728"/>
<path fill-rule="evenodd" clip-rule="evenodd" d="M39.3088 46.8034C39.5547 47.0803 39.8054 47.3499 40.0603 47.6113L40.0977 47.6021C39.8306 47.3454 39.5674 47.0789 39.3088 46.8034ZM44.2407 46.9076C42.9973 47.0063 41.9073 47.1895 40.7857 47.4409C41.7225 47.1265 42.5255 47.0336 43.4389 46.985C43.6671 46.9996 44.0264 46.896 44.2407 46.9076ZM42.5965 29.6046C42.5772 29.6208 42.5579 29.637 42.5386 29.6532C42.5564 29.6349 42.5386 29.6532 42.5916 29.5984L42.5965 29.6046ZM18.7757 33.5856C19.5856 34.0003 20.3925 34.3569 21.1908 34.6568C20.413 34.3396 19.5937 33.9812 18.7757 33.5856ZM23.7965 35.4435C25.2373 35.771 26.6271 35.9052 27.9304 35.8532C28.9559 35.8628 29.975 35.7864 30.997 35.6145C29.9926 35.7608 28.9788 35.8322 27.9522 35.8322C26.5309 35.8487 25.1457 35.7073 23.7965 35.4435ZM39.4625 47.9519C38.5363 48.3541 37.632 48.8352 36.7842 49.3389C37.4809 48.9951 38.1396 48.6479 38.7588 48.3215C38.9994 48.1947 39.234 48.071 39.4625 47.9519ZM15.9743 47.5277C16.912 46.6145 17.7963 45.5446 18.5924 44.3903C17.7994 45.5157 16.9146 46.5763 15.97 47.526L15.9743 47.5277ZM22.1659 36.4409C22.2613 35.9896 22.3327 35.5489 22.3781 35.1228L22.3519 35.1124C22.3145 35.548 22.2519 35.992 22.1659 36.4409ZM11.6266 46.9425C11.6901 46.9452 11.7534 46.948 11.8164 46.951C11.7651 46.9371 11.7104 46.9255 11.6266 46.9425ZM14.636 47.2488C13.8454 47.1026 12.9747 47.0132 12.034 46.9621L12.041 46.9625C12.1391 46.9667 12.2396 46.9706 12.3419 46.9745C13.0826 47.0028 13.9176 47.0348 14.636 47.2488Z" fill="#628D33"/>
<path d="M27.9304 21.5403C21.3078 21.5178 17.5158 24.0775 13.2043 29.79C15.033 31.3711 16.9124 32.6317 18.7757 33.5856C19.5937 33.9812 20.413 34.3396 21.1908 34.6568C22.0723 34.9878 22.9433 35.2496 23.7965 35.4435C25.1457 35.7073 26.5309 35.8487 27.9522 35.8322C28.9788 35.8322 29.9926 35.7608 30.997 35.6145C34.6589 34.9988 38.3594 33.1577 42.5386 29.6532C42.5564 29.6349 42.5386 29.6532 42.5916 29.5984C38.5041 24.3392 34.5726 21.5628 27.9304 21.5403Z" fill="#8C5728"/>
<path d="M60.3878 33.7728C59.2765 33.7728 58.3657 32.8732 58.3657 31.7486C58.3657 30.6466 59.2765 29.7245 60.3878 29.7245C61.4766 29.7245 62.3659 30.6466 62.3659 31.7486C62.3659 32.8732 61.4766 33.7728 60.3878 33.7728Z" fill="black"/>
<path d="M42.5965 29.6046C42.5948 29.6025 42.5932 29.6004 42.5916 29.5984M42.5965 29.6046C42.5772 29.6208 42.5579 29.637 42.5386 29.6532M42.5965 29.6046L42.5916 29.5984M40.0603 47.6113C40.0728 47.6082 40.0853 47.6052 40.0977 47.6021M40.0603 47.6113C39.8054 47.3499 39.5547 47.0803 39.3088 46.8034M40.0603 47.6113L40.0977 47.6021M15.9596 47.542C15.9645 47.5372 15.9694 47.5325 15.9743 47.5277M15.9596 47.542L15.9743 47.5277M15.9596 47.542C15.5729 47.422 15.1002 47.3346 14.6601 47.2533M22.3781 35.1228C22.3327 35.5489 22.2613 35.9896 22.1659 36.4409M22.3781 35.1228C22.3694 35.1195 22.3607 35.1157 22.3519 35.1124M22.3781 35.1228L22.3519 35.1124M40.114 47.6178C40.1086 47.6126 40.1031 47.6074 40.0977 47.6021M40.114 47.6178C39.9027 47.7239 39.6855 47.8358 39.4625 47.9519M40.114 47.6178L40.0977 47.6021M22.3519 35.1124C22.8288 35.2376 23.3103 35.3485 23.7965 35.4435M22.3519 35.1124C21.9798 34.9716 21.5908 34.8199 21.1908 34.6568M22.3519 35.1124C22.3145 35.548 22.2519 35.992 22.1659 36.4409M12.041 46.9625C12.1391 46.9667 12.2396 46.9706 12.3419 46.9745C13.0826 47.0028 13.9176 47.0348 14.636 47.2488M12.041 46.9625C12.0386 46.9624 12.0363 46.9622 12.034 46.9621M12.041 46.9625C11.9387 46.9893 11.8803 46.9684 11.8164 46.951M12.041 46.9625L12.034 46.9621M30.997 35.6145C31.8625 35.4885 32.721 35.3069 33.5747 35.0674C33.9018 39.1428 36.283 43.5801 39.3088 46.8034M30.997 35.6145C34.6589 34.9988 38.3594 33.1577 42.5386 29.6532M30.997 35.6145C29.9926 35.7608 28.9788 35.8322 27.9522 35.8322C26.5309 35.8487 25.1457 35.7073 23.7965 35.4435M30.997 35.6145C29.975 35.7864 28.9559 35.8628 27.9304 35.8532C26.6271 35.9052 25.2373 35.771 23.7965 35.4435M39.3088 46.8034C36.2551 43.3645 33.9558 38.8114 33.6061 35.0647C36.1195 34.0606 40.2171 32.0349 42.5386 29.6532M39.3088 46.8034C39.5674 47.0789 39.8306 47.3454 40.0977 47.6021M42.5386 29.6532C42.5564 29.6349 42.5386 29.6532 42.5916 29.5984M42.5916 29.5984C38.5041 24.3392 34.5726 21.5628 27.9304 21.5403C21.3078 21.5178 17.5158 24.0775 13.2043 29.79C15.033 31.3711 16.9124 32.6317 18.7757 33.5856M42.5916 29.5984L42.5939 29.596C43.5562 31.109 44.8839 33.6637 46.283 36.3556C48.2115 40.0663 50.2756 44.0379 51.7052 45.9019C50.6831 46.4866 48.6162 46.824 46.4831 46.824C45.6674 46.824 44.9304 46.8528 44.2407 46.9076M18.7757 33.5856C16.651 32.5582 14.5349 31.28 13.1772 29.8209C12.1328 31.4627 11.0438 33.2396 10.0437 35.2187C8.16171 39.0281 6.05847 40.9725 4.53964 42.3766C4.39061 42.5144 4.2471 42.6471 4.11009 42.7757C3.5323 43.3379 3.4353 44.0594 3.4353 44.9365C3.4353 46.241 4.53238 46.8915 6.95469 46.8915H9.62142C10.3403 46.8915 10.9686 46.9148 11.6266 46.9425M18.7757 33.5856C19.5937 33.9812 20.413 34.3396 21.1908 34.6568M18.7757 33.5856C19.5856 34.0003 20.3925 34.3569 21.1908 34.6568M11.6266 46.9425C11.1114 47.0473 10.5812 47.1206 10.0375 47.1958C9.48527 47.2722 8.91916 47.3505 8.3409 47.4656C6.42968 47.8255 4.69619 48.6126 4.69619 50.4793C4.69619 52.8409 7.00746 54.1229 10.052 54.1229C13.9189 54.1229 17.8525 52.391 19.7415 49.7597C18.2259 48.7525 16.4465 47.7881 14.636 47.2488M11.6266 46.9425C11.6901 46.9452 11.7534 46.948 11.8164 46.951M11.6266 46.9425C11.7104 46.9255 11.7651 46.9371 11.8164 46.951M14.636 47.2488C13.8454 47.1026 12.9747 47.0132 12.034 46.9621M14.636 47.2488L14.6601 47.2533M14.636 47.2488C14.644 47.2503 14.652 47.2518 14.6601 47.2533M15.9743 47.5277C16.7573 47.8413 17.6167 48.3008 18.5561 48.8029C21.0558 50.1393 24.1216 51.7782 27.8188 51.7782C31.2515 51.7782 34.2658 50.5814 36.7842 49.3389M15.9743 47.5277L15.97 47.526C16.9146 46.5763 17.7994 45.5157 18.5924 44.3903M15.9743 47.5277C16.912 46.6145 17.7963 45.5446 18.5924 44.3903M36.7842 49.3389C36.5323 49.4885 36.2854 49.6402 36.0444 49.7923C37.9111 52.4462 41.8668 54.1555 45.7114 54.1555C48.7563 54.1555 51.0675 52.8735 51.0675 50.5119C51.0675 48.6677 49.3338 47.2059 47.445 47.0484C46.9234 47.0228 46.4433 47.0037 45.9721 46.985C45.4012 46.9623 44.8433 46.9401 44.2407 46.9076M36.7842 49.3389C37.632 48.8352 38.5363 48.3541 39.4625 47.9519M36.7842 49.3389C37.4809 48.9951 38.1396 48.6479 38.7588 48.3215C38.9994 48.1947 39.234 48.071 39.4625 47.9519M44.2407 46.9076C42.9973 47.0063 41.9073 47.1895 40.7857 47.4409M44.2407 46.9076C44.0264 46.896 43.6671 46.9996 43.4389 46.985C42.5255 47.0336 41.7225 47.1265 40.7857 47.4409M40.7857 47.4409C40.5582 47.4919 40.3294 47.5457 40.0977 47.6021M40.7857 47.4409C40.3422 47.5897 39.8999 47.762 39.4625 47.9519M22.1659 36.4409C21.6618 39.0725 20.3535 41.8911 18.5924 44.3903M22.1659 36.4409C21.6256 38.9961 20.3161 41.8909 18.5924 44.3903M23.7965 35.4435C22.9433 35.2496 22.0723 34.9878 21.1908 34.6568M11.8164 46.951C11.8893 46.9545 11.9618 46.9582 12.034 46.9621M51.7224 45.901C54.4559 44.8664 56.5687 42.4482 61.1469 42.4482C66.9471 42.4482 70.7471 40.4465 70.7471 37.1177C70.7471 29.4484 66.7027 24.2304 60.658 24.2304C55.4355 24.2304 52.2572 27.4243 50.9464 32.5072C50.0129 35.8583 48.8475 37.2405 47.2918 38.2302C48.3809 39.8044 49.9 43.2021 51.7224 45.901ZM60.3878 33.7728C59.2765 33.7728 58.3657 32.8732 58.3657 31.7486C58.3657 30.6466 59.2765 29.7245 60.3878 29.7245C61.4766 29.7245 62.3659 30.6466 62.3659 31.7486C62.3659 32.8732 61.4766 33.7728 60.3878 33.7728Z" stroke="black" stroke-linejoin="round"/>
</g>
</g>
</g>
<defs>
<clipPath id="clip0_220_34">
<rect width="122.164" height="58.8197" fill="white" transform="translate(72.3936)"/>
</clipPath>
</defs>
</svg>
