<svg width="1202" height="401" viewBox="0 0 1202 401" fill="none" xmlns="http://www.w3.org/2000/svg">
<path d="M469.571 126.302L431.892 117.831L423.59 192.663L423.572 192.829L423.518 192.986L398.686 265.058C403.142 271.724 408.15 275.647 414.131 277.049C420.163 278.462 427.453 277.376 436.582 273.446L444.972 197.81L444.991 197.644L445.045 197.487L469.571 126.302Z" fill="#CA9C67" stroke="#5C2806" stroke-width="3"/>
<path d="M445.949 196.088C445.297 195.947 444.487 195.773 443.561 195.576C441.091 195.05 437.806 194.364 434.538 193.72C431.264 193.074 428.028 192.476 425.648 192.122C424.804 191.997 424.092 191.906 423.535 191.853C423.53 191.889 423.525 191.925 423.519 191.959C423.428 192.539 423.26 193.118 423.09 193.609C423.087 193.618 423.084 193.626 423.081 193.635L445.325 198.226L445.529 197.206L445.556 197.071L445.607 196.943L445.949 196.088Z" fill="#FE0707" stroke="#FF0303" stroke-width="3"/>
<path d="M431.779 116.179C431.766 116.237 431.733 116.636 432.516 117.459C433.252 118.234 434.473 119.116 436.159 120.03C439.511 121.848 444.397 123.625 450.014 124.887C455.63 126.15 460.806 126.636 464.615 126.428C466.529 126.323 468.01 126.048 469.007 125.663C470.067 125.255 470.208 124.88 470.221 124.822C470.234 124.764 470.267 124.365 469.484 123.542C468.748 122.768 467.527 121.885 465.841 120.971C462.489 119.153 457.603 117.377 451.986 116.114C446.37 114.851 441.194 114.366 437.385 114.573C435.471 114.678 433.99 114.953 432.993 115.338C431.933 115.747 431.792 116.121 431.779 116.179Z" fill="#D1B798" stroke="#5C2806" stroke-width="3"/>
<path d="M452.331 122.484C452.905 122.623 453.487 122.755 454.078 122.88C454.676 122.988 455.273 123.086 455.868 123.175C456.45 123.242 457.02 123.298 457.578 123.342C458.101 123.36 458.603 123.366 459.082 123.359C459.507 123.324 459.899 123.276 460.261 123.215C460.55 123.126 460.8 123.024 461.011 122.908C461.136 122.767 461.216 122.615 461.251 122.45C461.193 122.264 461.087 122.068 460.934 121.863C460.685 121.641 460.389 121.412 460.046 121.177C459.612 120.933 459.135 120.686 458.615 120.435C458.014 120.184 457.377 119.933 456.704 119.684C455.968 119.442 455.206 119.205 454.418 118.974C453.588 118.758 452.745 118.551 451.888 118.354C451.017 118.18 450.146 118.02 449.274 117.872C448.417 117.755 447.574 117.653 446.745 117.568C445.96 117.517 445.204 117.484 444.476 117.47C443.819 117.492 443.204 117.534 442.631 117.595C442.152 117.693 441.726 117.81 441.352 117.946C441.093 118.117 440.893 118.305 440.754 118.51C440.74 118.746 440.79 118.996 440.905 119.26C441.15 119.548 441.458 119.847 441.831 120.155C442.329 120.478 442.887 120.807 443.504 121.141C444.234 121.48 445.015 121.818 445.847 122.157C446.77 122.49 447.732 122.817 448.733 123.138C449.797 123.443 450.884 123.736 451.995 124.018C453.135 124.273 454.281 124.512 455.433 124.735C456.578 124.921 457.711 125.088 458.83 125.235C459.905 125.338 460.949 125.419 461.961 125.477C462.893 125.487 463.776 125.473 464.611 125.435C465.333 125.348 465.992 125.237 466.588 125.101C467.045 124.919 467.429 124.714 467.738 124.487C467.891 124.218 467.964 123.93 467.957 123.622C467.785 123.28 467.532 122.924 467.196 122.554C466.699 122.159 466.124 121.756 465.471 121.344C464.67 120.921 463.8 120.496 462.862 120.068C461.798 119.642 460.68 119.221 459.507 118.805C458.241 118.405 456.939 118.016 455.599 117.638C454.207 117.29 452.799 116.959 451.375 116.646C449.942 116.374 448.517 116.125 447.098 115.899C445.716 115.724 444.365 115.575 443.043 115.454C441.804 115.389 440.616 115.353 439.481 115.347C438.468 115.401 437.527 115.484 436.656 115.598C435.942 115.77 435.315 115.97 434.773 116.199C434.415 116.483 434.151 116.791 433.984 117.124C434.013 117.503 434.142 117.902 434.37 118.322C434.797 118.775 435.32 119.242 435.941 119.722C436.749 120.223 437.645 120.729 438.63 121.242C439.778 121.758 440.999 122.273 442.294 122.785C443.717 123.285 445.194 123.775 446.725 124.254C448.339 124.705 449.984 125.137 451.658 125.552" stroke="#351703"/>
<mask id="path-5-inside-1_18_109" fill="white">
<path fill-rule="evenodd" clip-rule="evenodd" d="M422.042 12C419.469 12 417.383 14.0858 417.383 16.6588C417.383 19.2318 419.469 21.3177 422.042 21.3177H422.428C420.756 36.3974 415.261 83.561 410.734 94.9951C396.186 97.0662 385 109.574 385 124.694V284.682C385 292.967 391.716 299.682 400 299.682H469C477.284 299.682 484 292.967 484 284.682V124.694C484 109.485 472.682 96.9187 458.008 94.9596C453.008 83.4573 448.009 36.3305 446.514 21.2931C448.861 21.0521 450.692 19.0693 450.692 16.6588C450.692 14.0858 448.606 12 446.033 12H422.042Z"/>
</mask>
<path fill-rule="evenodd" clip-rule="evenodd" d="M422.042 12C419.469 12 417.383 14.0858 417.383 16.6588C417.383 19.2318 419.469 21.3177 422.042 21.3177H422.428C420.756 36.3974 415.261 83.561 410.734 94.9951C396.186 97.0662 385 109.574 385 124.694V284.682C385 292.967 391.716 299.682 400 299.682H469C477.284 299.682 484 292.967 484 284.682V124.694C484 109.485 472.682 96.9187 458.008 94.9596C453.008 83.4573 448.009 36.3305 446.514 21.2931C448.861 21.0521 450.692 19.0693 450.692 16.6588C450.692 14.0858 448.606 12 446.033 12H422.042Z" fill="url(#paint0_linear_18_109)" fill-opacity="0.3"/>
<path d="M422.428 21.3177L425.41 21.6483L425.779 18.3177H422.428V21.3177ZM410.734 94.9951L411.157 97.9652L412.882 97.7196L413.523 96.0994L410.734 94.9951ZM458.008 94.9596L455.257 96.1555L455.932 97.709L457.611 97.9332L458.008 94.9596ZM446.514 21.2931L446.208 18.3088L443.233 18.6142L443.529 21.5899L446.514 21.2931ZM420.383 16.6588C420.383 15.7427 421.126 15 422.042 15V9.00002C417.812 9.00002 414.383 12.429 414.383 16.6588H420.383ZM422.042 18.3177C421.126 18.3177 420.383 17.575 420.383 16.6588H414.383C414.383 20.8887 417.812 24.3177 422.042 24.3177V18.3177ZM422.428 18.3177H422.042V24.3177H422.428V18.3177ZM413.523 96.0994C414.775 92.9387 416.01 87.58 417.184 81.3341C418.374 75.0068 419.544 67.5191 420.622 59.946C422.777 44.7956 424.572 29.1993 425.41 21.6483L419.446 20.987C418.612 28.5157 416.824 44.0411 414.681 59.101C413.61 66.633 412.454 74.0226 411.287 80.2255C410.106 86.51 408.957 91.3345 407.945 93.8909L413.523 96.0994ZM388 124.694C388 111.088 398.066 99.8287 411.157 97.9652L410.311 92.0251C394.306 94.3036 382 108.059 382 124.694H388ZM388 284.682V124.694H382V284.682H388ZM400 296.682C393.373 296.682 388 291.31 388 284.682H382C382 294.623 390.059 302.682 400 302.682V296.682ZM469 296.682H400V302.682H469V296.682ZM481 284.682C481 291.31 475.627 296.682 469 296.682V302.682C478.941 302.682 487 294.623 487 284.682H481ZM481 124.694V284.682H487V124.694H481ZM457.611 97.9332C470.814 99.696 481 111.008 481 124.694H487C487 107.961 474.549 94.1414 458.405 91.986L457.611 97.9332ZM443.529 21.5899C444.278 29.1219 445.906 44.705 447.974 59.8578C449.009 67.4318 450.157 74.929 451.366 81.2729C452.558 87.5253 453.857 92.9354 455.257 96.1555L460.759 93.7636C459.659 91.2326 458.459 86.4385 457.26 80.1496C456.079 73.9524 454.947 66.5713 453.919 59.0461C451.865 44.0006 450.246 28.5017 449.5 20.9963L443.529 21.5899ZM447.692 16.6588C447.692 17.5152 447.04 18.2233 446.208 18.3088L446.821 24.2774C450.682 23.881 453.692 20.6233 453.692 16.6588H447.692ZM446.033 15C446.949 15 447.692 15.7427 447.692 16.6588H453.692C453.692 12.429 450.263 9.00002 446.033 9.00002V15ZM422.042 15H446.033V9.00002H422.042V15Z" fill="black" mask="url(#path-5-inside-1_18_109)"/>
<path d="M1119.08 114.845L1080.47 114.227L1087.58 189.181L1087.6 189.347L1087.58 189.512L1077.95 265.131C1083.67 270.75 1089.37 273.57 1095.51 273.724C1101.71 273.879 1108.62 271.331 1116.76 265.623L1109.57 189.864L1109.55 189.698L1109.57 189.533L1119.08 114.845Z" fill="#CA9C67" stroke="#5C2806" stroke-width="3"/>
<path d="M1110.17 187.979C1109.5 187.974 1108.68 187.969 1107.73 187.964C1105.2 187.953 1101.85 187.95 1098.52 187.985C1095.18 188.02 1091.89 188.093 1089.49 188.232C1088.64 188.281 1087.92 188.337 1087.36 188.399C1087.37 188.436 1087.37 188.471 1087.37 188.506C1087.4 189.092 1087.35 189.694 1087.29 190.209C1087.29 190.218 1087.28 190.227 1087.28 190.236L1110 190.199L1109.99 189.159L1109.99 189.021L1110.01 188.886L1110.17 187.979Z" fill="#FE0707" stroke="#FF0303" stroke-width="3"/>
<path d="M1080.02 112.633C1080.02 112.692 1080.07 113.09 1081 113.736C1081.88 114.344 1083.26 114.959 1085.09 115.511C1088.75 116.607 1093.89 117.351 1099.65 117.444C1105.4 117.536 1110.57 116.957 1114.26 115.977C1116.11 115.485 1117.5 114.914 1118.4 114.334C1119.35 113.718 1119.42 113.323 1119.42 113.263C1119.42 113.204 1119.37 112.806 1118.43 112.16C1117.56 111.552 1116.18 110.936 1114.34 110.385C1110.69 109.288 1105.55 108.544 1099.79 108.452C1094.03 108.36 1088.87 108.939 1085.18 109.918C1083.33 110.411 1081.93 110.982 1081.04 111.562C1080.08 112.178 1080.02 112.573 1080.02 112.633Z" fill="#D1B798" stroke="#5C2806" stroke-width="3"/>
<path d="M1101.43 114.619C1102.02 114.638 1102.61 114.648 1103.22 114.65C1103.82 114.634 1104.43 114.609 1105.03 114.574C1105.61 114.522 1106.18 114.46 1106.74 114.389C1107.25 114.301 1107.75 114.205 1108.21 114.1C1108.62 113.979 1109 113.852 1109.34 113.718C1109.6 113.572 1109.83 113.422 1110.01 113.266C1110.1 113.102 1110.15 112.937 1110.15 112.768C1110.06 112.598 1109.91 112.428 1109.72 112.258C1109.43 112.091 1109.1 111.928 1108.71 111.768C1108.24 111.617 1107.72 111.472 1107.16 111.333C1106.52 111.209 1105.85 111.093 1105.14 110.987C1104.37 110.899 1103.57 110.823 1102.75 110.757C1101.9 110.714 1101.03 110.684 1100.15 110.666C1099.26 110.673 1098.38 110.693 1097.49 110.726C1096.63 110.786 1095.78 110.858 1094.96 110.943C1094.18 111.053 1093.43 111.176 1092.71 111.309C1092.08 111.466 1091.48 111.632 1090.93 111.808C1090.48 112.002 1090.09 112.203 1089.75 112.412C1089.53 112.633 1089.38 112.858 1089.28 113.087C1089.32 113.321 1089.42 113.555 1089.58 113.79C1089.88 114.022 1090.24 114.251 1090.67 114.477C1091.22 114.692 1091.84 114.9 1092.51 115.101C1093.29 115.285 1094.13 115.457 1095.01 115.619C1095.98 115.757 1096.99 115.881 1098.04 115.992C1099.14 116.073 1100.26 116.139 1101.41 116.189C1102.58 116.206 1103.75 116.207 1104.92 116.19C1106.08 116.14 1107.22 116.072 1108.35 115.988C1109.42 115.87 1110.46 115.736 1111.46 115.587C1112.38 115.407 1113.24 115.214 1114.05 115.006C1114.74 114.774 1115.36 114.531 1115.92 114.277C1116.33 114.005 1116.66 113.727 1116.92 113.441C1117.01 113.146 1117.03 112.849 1116.96 112.55C1116.72 112.25 1116.4 111.953 1115.99 111.659C1115.43 111.374 1114.78 111.096 1114.06 110.826C1113.19 110.575 1112.25 110.335 1111.24 110.108C1110.12 109.908 1108.93 109.724 1107.7 109.555C1106.38 109.421 1105.03 109.305 1103.64 109.208C1102.2 109.151 1100.76 109.114 1099.3 109.098C1097.84 109.124 1096.4 109.17 1094.96 109.238C1093.57 109.348 1092.22 109.477 1090.9 109.628C1089.67 109.817 1088.5 110.024 1087.39 110.249C1086.41 110.508 1085.51 110.781 1084.68 111.07C1084.01 111.384 1083.44 111.708 1082.96 112.042C1082.66 112.393 1082.47 112.748 1082.37 113.109C1082.48 113.474 1082.68 113.838 1082.99 114.202C1083.5 114.559 1084.11 114.909 1084.82 115.253C1085.71 115.579 1086.69 115.892 1087.76 116.193C1088.99 116.465 1090.29 116.72 1091.66 116.958C1093.16 117.158 1094.7 117.336 1096.3 117.494C1097.97 117.606 1099.67 117.695 1101.39 117.759" stroke="#351703"/>
<mask id="path-11-inside-2_18_109" fill="white">
<path fill-rule="evenodd" clip-rule="evenodd" d="M1049.27 12.6214C1046.75 13.1455 1045.13 15.6125 1045.65 18.1315C1046.18 20.6506 1048.64 22.2678 1051.16 21.7436L1051.54 21.665C1052.98 36.7691 1057.2 84.0633 1055.1 96.1797C1041.28 101.171 1032.88 115.695 1035.96 130.498L1068.55 287.132C1070.24 295.242 1078.18 300.449 1086.29 298.762L1153.84 284.706C1161.95 283.018 1167.16 275.075 1165.47 266.965L1132.88 110.331C1129.78 95.4406 1116.14 85.4438 1101.38 86.5148C1094.14 76.2722 1079.64 31.1519 1075.12 16.7344C1077.37 16.0204 1078.75 13.7062 1078.26 11.3464C1077.74 8.8273 1075.27 7.21011 1072.75 7.73425L1049.27 12.6214Z"/>
</mask>
<path fill-rule="evenodd" clip-rule="evenodd" d="M1049.27 12.6214C1046.75 13.1455 1045.13 15.6125 1045.65 18.1315C1046.18 20.6506 1048.64 22.2678 1051.16 21.7436L1051.54 21.665C1052.98 36.7691 1057.2 84.0633 1055.1 96.1797C1041.28 101.171 1032.88 115.695 1035.96 130.498L1068.55 287.132C1070.24 295.242 1078.18 300.449 1086.29 298.762L1153.84 284.706C1161.95 283.018 1167.16 275.075 1165.47 266.965L1132.88 110.331C1129.78 95.4406 1116.14 85.4438 1101.38 86.5148C1094.14 76.2722 1079.64 31.1519 1075.12 16.7344C1077.37 16.0204 1078.75 13.7062 1078.26 11.3464C1077.74 8.8273 1075.27 7.21011 1072.75 7.73425L1049.27 12.6214Z" fill="url(#paint1_linear_18_109)" fill-opacity="0.3"/>
<path d="M1051.54 21.665L1054.53 21.3813L1054.21 18.0453L1050.93 18.7279L1051.54 21.665ZM1055.1 96.1797L1056.12 99.0014L1057.76 98.4095L1058.06 96.6926L1055.1 96.1797ZM1035.96 130.498L1033.02 131.109L1035.96 130.498ZM1068.55 287.132L1071.48 286.521L1068.55 287.132ZM1086.29 298.762L1086.9 301.699L1086.29 298.762ZM1153.84 284.706L1153.23 281.769L1153.84 284.706ZM1165.47 266.965L1162.53 267.576L1165.47 266.965ZM1132.88 110.331L1135.82 109.72L1132.88 110.331ZM1101.38 86.5148L1098.93 88.2461L1099.9 89.6295L1101.59 89.5069L1101.38 86.5148ZM1075.12 16.7344L1074.21 13.8751L1071.36 14.7801L1072.26 17.6331L1075.12 16.7344ZM1048.59 17.5204C1048.4 16.6235 1048.98 15.7451 1049.88 15.5585L1048.65 9.68427C1044.51 10.5459 1041.85 14.6015 1042.72 18.7427L1048.59 17.5204ZM1050.55 18.8065C1049.66 18.9932 1048.78 18.4173 1048.59 17.5204L1042.72 18.7427C1043.58 22.8838 1047.63 25.5424 1051.77 24.6807L1050.55 18.8065ZM1050.93 18.7279L1050.55 18.8065L1051.77 24.6807L1052.15 24.6021L1050.93 18.7279ZM1058.06 96.6926C1058.64 93.3433 1058.76 87.8453 1058.63 81.4913C1058.51 75.0543 1058.13 67.4851 1057.64 59.8513C1056.67 44.5796 1055.25 28.9446 1054.53 21.3813L1048.55 21.9487C1049.27 29.4896 1050.68 45.0536 1051.65 60.2341C1052.14 67.8265 1052.51 75.2967 1052.63 81.6071C1052.76 88.0005 1052.62 92.958 1052.15 95.6668L1058.06 96.6926ZM1038.89 129.887C1036.12 116.567 1043.68 103.492 1056.12 99.0014L1054.08 93.3581C1038.88 98.8494 1029.63 114.823 1033.02 131.109L1038.89 129.887ZM1071.48 286.521L1038.89 129.887L1033.02 131.109L1065.61 287.743L1071.48 286.521ZM1085.68 295.825C1079.19 297.175 1072.83 293.009 1071.48 286.521L1065.61 287.743C1067.64 297.476 1077.17 303.724 1086.9 301.699L1085.68 295.825ZM1153.23 281.769L1085.68 295.825L1086.9 301.699L1154.45 287.643L1153.23 281.769ZM1162.53 267.576C1163.88 274.064 1159.72 280.419 1153.23 281.769L1154.45 287.643C1164.19 285.618 1170.43 276.086 1168.41 266.354L1162.53 267.576ZM1129.94 110.942L1162.53 267.576L1168.41 266.354L1135.82 109.72L1129.94 110.942ZM1101.59 89.5069C1114.88 88.5432 1127.16 97.5431 1129.94 110.942L1135.82 109.72C1132.41 93.338 1117.4 82.3443 1101.16 83.5227L1101.59 89.5069ZM1072.26 17.6331C1074.52 24.8546 1079.29 39.7794 1084.4 54.193C1086.96 61.3976 1089.61 68.5035 1092.09 74.4682C1094.53 80.3467 1096.9 85.3787 1098.93 88.2461L1103.83 84.7835C1102.23 82.5296 1100.08 78.0806 1097.63 72.1678C1095.21 66.3411 1092.6 59.3454 1090.06 52.1873C1084.98 37.8758 1080.24 23.0317 1077.98 15.8357L1072.26 17.6331ZM1075.33 11.9575C1075.5 12.7959 1075.01 13.6218 1074.21 13.8751L1076.03 19.5937C1079.72 18.419 1082.01 14.6166 1081.2 10.7352L1075.33 11.9575ZM1073.36 10.6713C1074.26 10.4847 1075.14 11.0605 1075.33 11.9575L1081.2 10.7352C1080.34 6.59406 1076.28 3.93551 1072.14 4.79716L1073.36 10.6713ZM1049.88 15.5585L1073.36 10.6713L1072.14 4.79716L1048.65 9.68427L1049.88 15.5585Z" fill="black" mask="url(#path-11-inside-2_18_109)"/>
<path d="M300.184 113C250.642 116.501 223.943 229.702 149.631 113C100.089 116.501 74.3123 231.266 0 114.564V401H1202V113C1152.46 116.685 1124.26 235.844 1049.95 113C1000.41 116.685 974.707 235.844 900.394 113C850.853 116.501 825.154 229.702 750.842 113C701.3 116.501 674.601 229.702 600.289 113C550.747 116.685 524.048 235.844 449.736 113C400.194 116.685 374.496 235.844 300.184 113Z" fill="#248186" fill-opacity="0.7"/>
<defs>
<linearGradient id="paint0_linear_18_109" x1="434.5" y1="12" x2="434.5" y2="299.682" gradientUnits="userSpaceOnUse">
<stop stop-color="#66C80F"/>
<stop offset="0.791667" stop-color="#166107"/>
</linearGradient>
<linearGradient id="paint1_linear_18_109" x1="1061.46" y1="10.0836" x2="1120.07" y2="291.734" gradientUnits="userSpaceOnUse">
<stop stop-color="#66C80F"/>
<stop offset="0.791667" stop-color="#166107"/>
</linearGradient>
</defs>
</svg>
