<?xml version="1.0" encoding="UTF-8" standalone="no"?>
<svg
   width="324.71793"
   height="315.32663"
   viewBox="0 0 324.71793 315.32663"
   fill="none"
   version="1.1"
   id="svg1"
   sodipodi:docname="PageIcon2.svg"
   inkscape:version="1.3.2 (091e20e, 2023-11-25)"
   xmlns:inkscape="http://www.inkscape.org/namespaces/inkscape"
   xmlns:sodipodi="http://sodipodi.sourceforge.net/DTD/sodipodi-0.dtd"
   xmlns="http://www.w3.org/2000/svg"
   xmlns:svg="http://www.w3.org/2000/svg">
  <defs
     id="defs1">
    <linearGradient
       id="paint0_linear_60_2"
       x1="48.055599"
       y1="0"
       x2="48.055599"
       y2="279.28799"
       gradientUnits="userSpaceOnUse">
      <stop
         stop-color="#66C80F"
         id="stop3" />
      <stop
         offset="0.791667"
         stop-color="#166107"
         id="stop4" />
    </linearGradient>
    <mask
       id="path-5-inside-1_60_2"
       fill="#ffffff">
      <path
         fill-rule="evenodd"
         clip-rule="evenodd"
         d="m 35.9611,0 c -2.4979,0 -4.5229,2.02496 -4.5229,4.52288 0,2.49792 2.025,4.52288 4.5229,4.52288 h 0.3748 C 34.706,23.7454 29.3339,69.8482 24.9292,80.7079 10.7755,83.1174 0,95.4409 0,110.281 v 154.007 c 0,8.284 6.71571,15 15,15 h 66.1112 c 8.2843,0 15,-6.716 15,-15 V 110.281 C 96.1112,95.3543 85.2097,82.9737 70.9341,80.6668 66.0615,69.7263 61.1762,23.6769 59.7193,9.0219 61.9976,8.78799 63.7747,6.86297 63.7747,4.52288 63.7747,2.02496 61.7498,0 59.2518,0 Z"
         id="path1-9" />
    </mask>
    <clipPath
       clipPathUnits="userSpaceOnUse"
       id="clipPath1">
      <rect
         style="fill:none;fill-opacity:0.887464;stroke:#000000;stroke-width:1;stroke-dasharray:none;stroke-opacity:0.956517"
         id="rect2"
         width="324.71793"
         height="324.71793"
         x="376.72647"
         y="40.172348" />
    </clipPath>
    <clipPath
       clipPathUnits="userSpaceOnUse"
       id="clipPath2">
      <rect
         style="fill:none;fill-opacity:0.887464;stroke:#000000;stroke-width:1;stroke-dasharray:none;stroke-opacity:0.956517"
         id="rect3"
         width="324.71793"
         height="324.71793"
         x="-151.35289"
         y="1.32506"
         transform="rotate(-17.697062)" />
    </clipPath>
  </defs>
  <sodipodi:namedview
     id="namedview1"
     pagecolor="#ffffff"
     bordercolor="#000000"
     borderopacity="0.25"
     inkscape:showpageshadow="2"
     inkscape:pageopacity="0.0"
     inkscape:pagecheckerboard="0"
     inkscape:deskcolor="#d1d1d1"
     inkscape:zoom="0.64808652"
     inkscape:cx="148.89987"
     inkscape:cy="217.56354"
     inkscape:window-width="1366"
     inkscape:window-height="688"
     inkscape:window-x="0"
     inkscape:window-y="0"
     inkscape:window-maximized="1"
     inkscape:current-layer="svg1" />
  <g
     id="MessageInaBottle"
     transform="matrix(1.0807697,0.9372661,-0.9372661,1.0807697,243.3565,-31.560263)"
     clip-path="url(#clipPath2)">
    <g
       id="Message">
      <path
         id="Polygon 2"
         d="m 45.5618,102.796 -7.906,71.266 21.033,4.729 23.357,-67.792 z m 12.4689,78.921 -21.033,-4.728 -23.6625,68.679 c 4.319,6.454 9.1691,10.248 14.9558,11.604 5.8377,1.368 12.8984,0.32 21.7448,-3.485 z"
         fill="#ca9c67"
         stroke="#5c2806"
         stroke-width="3" />
      <path
         id="Rectangle 3"
         d="m 59.1108,178.748 c -0.6238,-0.134 -1.3929,-0.3 -2.268,-0.486 -2.3971,-0.51 -5.586,-1.177 -8.7589,-1.802 -3.1786,-0.626 -6.3192,-1.207 -8.6281,-1.551 -0.7986,-0.118 -1.4747,-0.205 -2.0077,-0.256 -0.0032,0.021 -0.0063,0.042 -0.0096,0.062 -0.0875,0.557 -0.2484,1.114 -0.4107,1.587 l 21.5028,4.438 0.1894,-0.947 0.027,-0.135 0.0512,-0.128 z"
         fill="#fe0707"
         stroke="#ff0303"
         stroke-width="3" />
      <g
         id="Group 2">
        <path
           id="Ellipse 2"
           d="m 45.4565,101.149 c -0.0078,0.034 -0.0519,0.407 0.7046,1.203 0.7105,0.747 1.8908,1.601 3.5256,2.488 3.2505,1.762 7.9896,3.485 13.4396,4.711 5.4501,1.225 10.4709,1.696 14.1629,1.494 1.8567,-0.101 3.2891,-0.368 4.2511,-0.739 1.0241,-0.395 1.1438,-0.751 1.1516,-0.786 0.0077,-0.034 0.0519,-0.407 -0.7046,-1.203 -0.7105,-0.747 -1.8909,-1.601 -3.5256,-2.487 -3.2505,-1.763 -7.9896,-3.486 -13.4397,-4.712 -5.45,-1.2248 -10.4708,-1.6954 -14.1628,-1.494 -1.8567,0.1012 -3.2892,0.3682 -4.2511,0.739 -1.0241,0.396 -1.1439,0.751 -1.1516,0.786 z"
           fill="#d1b798"
           stroke="#5c2806"
           stroke-width="3" />
        <path
           id="Vector"
           d="m 65.3668,107.26 c 0.5569,0.135 1.122,0.263 1.6955,0.384 0.5806,0.105 1.1598,0.201 1.7376,0.287 0.5649,0.065 1.1183,0.119 1.66,0.162 0.5084,0.018 0.9952,0.023 1.4603,0.016 0.4123,-0.033 0.7938,-0.08 1.1445,-0.14 0.281,-0.086 0.5236,-0.185 0.7279,-0.297 0.1216,-0.137 0.1995,-0.285 0.2337,-0.445 -0.0564,-0.181 -0.159,-0.371 -0.3078,-0.57 -0.2416,-0.216 -0.5289,-0.437 -0.8619,-0.665 -0.4214,-0.238 -0.8847,-0.478 -1.3901,-0.721 -0.5831,-0.244 -1.2013,-0.487 -1.8546,-0.729 -0.7145,-0.235 -1.4545,-0.465 -2.2199,-0.69 -0.8049,-0.21 -1.6233,-0.41 -2.4553,-0.601 -0.846,-0.169 -1.692,-0.325 -2.5382,-0.468 -0.8323,-0.114 -1.6506,-0.213 -2.4549,-0.296 -0.7622,-0.049 -1.4966,-0.081 -2.203,-0.095 -0.6377,0.022 -1.2349,0.063 -1.7916,0.122 -0.4646,0.095 -0.8782,0.209 -1.2408,0.341 -0.2523,0.166 -0.4461,0.348 -0.5814,0.547 -0.0134,0.23 0.0357,0.472 0.1471,0.729 0.2373,0.279 0.5369,0.569 0.8989,0.868 0.4834,0.314 1.0249,0.633 1.6244,0.957 0.7084,0.329 1.4664,0.658 2.2742,0.987 0.8962,0.323 1.83,0.64 2.8017,0.952 1.0327,0.296 2.0883,0.58 3.1666,0.854 1.1071,0.248 2.2198,0.48 3.3383,0.696 1.1117,0.181 2.211,0.343 3.2978,0.486 1.0436,0.1 2.0568,0.178 3.0395,0.234 0.9046,0.01 1.762,-0.003 2.5723,-0.04 0.7011,-0.085 1.3409,-0.193 1.9193,-0.324 0.4443,-0.177 0.8165,-0.376 1.1169,-0.596 0.1489,-0.262 0.2197,-0.541 0.2122,-0.84 -0.1665,-0.332 -0.4127,-0.677 -0.7384,-1.037 -0.4823,-0.383 -1.0404,-0.774 -1.6743,-1.174 -0.7776,-0.411 -1.6222,-0.824 -2.5335,-1.24 -1.0325,-0.413 -2.1182,-0.821 -3.2571,-1.226 -1.2288,-0.388 -2.4932,-0.766 -3.7934,-1.132 -1.3517,-0.339 -2.7186,-0.659 -4.1008,-0.963 -1.391,-0.264 -2.7751,-0.506 -4.1524,-0.725 -1.3413,-0.171 -2.6534,-0.315 -3.9364,-0.433 -1.2032,-0.063 -2.3561,-0.097 -3.4588,-0.103 -0.9829,0.052 -1.8971,0.133 -2.7425,0.243 -0.6924,0.167 -1.3015,0.362 -1.8273,0.584 -0.3484,0.275 -0.6039,0.574 -0.7666,0.898 0.0284,0.368 0.1533,0.755 0.375,1.162 0.4141,0.44 0.9225,0.893 1.5253,1.36 0.7843,0.486 1.6543,0.977 2.6101,1.475 1.1144,0.502 2.3001,1.001 3.5573,1.499 1.3818,0.485 2.8156,0.96 4.3014,1.426 1.5675,0.437 3.1638,0.857 4.7889,1.259"
           stroke="#351703" />
      </g>
    </g>
    <g
       id="Union">
      <mask
         id="mask2"
         fill="#ffffff">
        <path
           fill-rule="evenodd"
           clip-rule="evenodd"
           d="m 35.9611,0 c -2.4979,0 -4.5229,2.02496 -4.5229,4.52288 0,2.49792 2.025,4.52288 4.5229,4.52288 h 0.3748 C 34.706,23.7454 29.3339,69.8482 24.9292,80.7079 10.7755,83.1174 0,95.4409 0,110.281 v 154.007 c 0,8.284 6.71571,15 15,15 h 66.1112 c 8.2843,0 15,-6.716 15,-15 V 110.281 C 96.1112,95.3543 85.2097,82.9737 70.9341,80.6668 66.0615,69.7263 61.1762,23.6769 59.7193,9.0219 61.9976,8.78799 63.7747,6.86297 63.7747,4.52288 63.7747,2.02496 61.7498,0 59.2518,0 Z"
           id="path2" />
      </mask>
      <path
         fill-rule="evenodd"
         clip-rule="evenodd"
         d="m 35.9611,0 c -2.4979,0 -4.5229,2.02496 -4.5229,4.52288 0,2.49792 2.025,4.52288 4.5229,4.52288 h 0.3748 C 34.706,23.7454 29.3339,69.8482 24.9292,80.7079 10.7755,83.1174 0,95.4409 0,110.281 v 154.007 c 0,8.284 6.71571,15 15,15 h 66.1112 c 8.2843,0 15,-6.716 15,-15 V 110.281 C 96.1112,95.3543 85.2097,82.9737 70.9341,80.6668 66.0615,69.7263 61.1762,23.6769 59.7193,9.0219 61.9976,8.78799 63.7747,6.86297 63.7747,4.52288 63.7747,2.02496 61.7498,0 59.2518,0 Z"
         fill="url(#paint0_linear_60_2)"
         fill-opacity="0.3"
         id="path3"
         style="fill:url(#paint0_linear_60_2)" />
      <path
         d="m 36.3359,9.04576 2.9817,0.33062 0.3693,-3.33062 h -3.351 z m -11.4067,71.66214 0.5034,2.9574 1.6482,-0.2805 0.6284,-1.5493 z M 15,279.288 v -3 z m 66.1112,0 v 3 z M 70.9341,80.6668 l -2.7405,1.2205 0.6601,1.4822 1.6018,0.2588 z M 59.7193,9.0219 59.4129,6.03759 56.4381,6.34301 56.734,9.31869 Z M 34.4382,4.52288 C 34.4382,3.68182 35.1201,3 35.9611,3 v -6 c -4.1548,0 -7.5229,3.368107 -7.5229,7.52288 z m 1.5229,1.52288 c -0.841,0 -1.5229,-0.68182 -1.5229,-1.52288 h -6 c 0,4.15477 3.3681,7.52292 7.5229,7.52292 z m 0.3748,0 h -0.3748 v 6.00004 h 0.3748 z M 27.7092,81.8355 C 28.938,78.806 30.1444,73.608 31.2883,67.5533 32.4488,61.4111 33.5915,54.1208 34.6431,46.7399 36.7469,31.9737 38.5014,16.7373 39.3176,9.37638 L 33.3542,8.71514 C 32.5404,16.0538 30.7939,31.2186 28.7031,45.8936 27.6573,53.2333 26.5292,60.4237 25.3926,66.4394 24.2395,72.5427 23.1227,77.1799 22.1491,79.5803 Z M 3,110.281 C 3,96.9279 12.6965,85.8335 25.4326,83.6653 L 24.4257,77.7504 C 8.85442,80.4013 -3,93.9538 -3,110.281 Z M 3,264.288 V 110.281 h -6 v 154.007 z m 12,12 c -6.62743,0 -12,-5.373 -12,-12 h -6 c 0,9.941 8.05886,18 18,18 z m 66.1112,0 H 15 v 6 h 66.1112 z m 12,-12 c 0,6.627 -5.3726,12 -12,12 v 6 c 9.9411,0 18,-8.059 18,-18 z m 0,-154.007 v 154.007 h 6 V 110.281 Z M 70.4555,83.6283 c 12.8456,2.0759 22.6557,13.2216 22.6557,26.6527 h 6 c 0,-16.4222 -11.9929,-30.0377 -27.6985,-32.5758 z M 56.734,9.31869 c 0.7298,7.34081 2.3196,22.55931 4.3395,37.32521 1.0096,7.3804 2.1309,14.6791 3.3111,20.8383 1.1615,6.0613 2.4318,11.3128 3.809,14.4051 l 5.481,-2.4411 C 72.6155,77.0682 71.4479,72.461 70.2774,66.353 69.1257,60.343 68.021,53.1621 67.0181,45.8307 65.013,31.173 63.4317,16.0393 62.7045,8.72511 Z m 4.0407,-4.79581 c 0,0.78605 -0.5979,1.43628 -1.3618,1.51471 l 0.6128,5.96861 c 3.7926,-0.3894 6.749,-3.58919 6.749,-7.48332 z M 59.2518,3 c 0.8411,0 1.5229,0.68182 1.5229,1.52288 h 6 C 66.7747,0.368107 63.4066,-3 59.2518,-3 Z M 35.9611,3 H 59.2518 V -3 H 35.9611 Z"
         fill="#000000"
         mask="url(#path-5-inside-1_60_2)"
         id="path4" />
    </g>
  </g>
  <path
     d="m 286.96556,180.80844 c -49.524,3.50106 -76.214,116.702 -150.5,0 -49.524001,3.50106 -75.291901,118.266 -149.578187,1.56393 V 616.30844 H 1188.4655 v -435.5 c -49.52,3.68532 -77.71,122.844 -152,0 -49.51994,3.68532 -75.21394,122.844 -149.49994,0 -49.524,3.50106 -75.214,116.702 -149.5,0 -49.524,3.50106 -76.214,116.702 -150.5,0 -49.524,3.68532 -76.214,122.844 -150.5,0 -49.524,3.68532 -75.214,122.844 -149.5,0 z"
     fill="#0b99a2"
     fill-opacity="0.7"
     id="path1"
     style="fill:#097d84;fill-opacity:0.887464"
     clip-path="url(#clipPath1)"
     transform="matrix(-1,0,0,1,701.4444,-49.563644)" />
</svg>
